SplineFontDB: 3.2
FontName: csgo_icons
FullName: csgo_icons
FamilyName: csgo_icons
Weight: Book
Copyright: 
Version: 1.1
ItalicAngle: 0
UnderlinePosition: 0
UnderlineWidth: 0
Ascent: 960
Descent: 64
InvalidEm: 0
sfntRevision: 0x0001199a
LayerCount: 2
Layer: 0 1 "Back" 1
Layer: 1 1 "Fore" 0
XUID: [1021 447 1472068856 22153]
StyleMap: 0x0000
FSType: 0
OS2Version: 3
OS2_WeightWidthSlopeOnly: 0
OS2_UseTypoMetrics: 0
CreationTime: 1455832394
ModificationTime: 1700641713
PfmFamily: 81
TTFWeight: 400
TTFWidth: 5
LineGap: 0
VLineGap: 0
Panose: 0 0 0 0 0 0 0 0 0 0
OS2TypoAscent: 960
OS2TypoAOffset: 0
OS2TypoDescent: -64
OS2TypoDOffset: 0
OS2TypoLinegap: 64
OS2WinAscent: 960
OS2WinAOffset: 0
OS2WinDescent: 64
OS2WinDOffset: 0
HheadAscent: 960
HheadAOffset: 0
HheadDescent: -64
HheadDOffset: 0
OS2SubXSize: 665
OS2SubYSize: 716
OS2SubXOff: 0
OS2SubYOff: 143
OS2SupXSize: 665
OS2SupYSize: 716
OS2SupXOff: 0
OS2SupYOff: 491
OS2StrikeYSize: 51
OS2StrikeYPos: 265
OS2Vendor: 'PfEd'
OS2CodePages: 00000001.00000000
OS2UnicodeRanges: 00000001.10000000.00000000.00000000
MarkAttachClasses: 1
DEI: 91125
TtTable: prep
PUSHW_1
 511
SCANCTRL
PUSHB_1
 1
SCANTYPE
SVTCA[y-axis]
MPPEM
PUSHB_1
 8
LT
IF
PUSHB_2
 1
 1
INSTCTRL
EIF
PUSHB_2
 70
 6
CALL
IF
POP
PUSHB_1
 16
EIF
MPPEM
PUSHB_1
 20
GT
IF
POP
PUSHB_1
 128
EIF
SCVTCI
PUSHB_1
 6
CALL
NOT
IF
EIF
PUSHB_1
 20
CALL
EndTTInstrs
TtTable: fpgm
PUSHB_1
 0
FDEF
PUSHB_1
 0
SZP0
MPPEM
PUSHB_1
 42
LT
IF
PUSHB_1
 74
SROUND
EIF
PUSHB_1
 0
SWAP
MIAP[rnd]
RTG
PUSHB_1
 6
CALL
IF
RTDG
EIF
MPPEM
PUSHB_1
 42
LT
IF
RDTG
EIF
DUP
MDRP[rp0,rnd,grey]
PUSHB_1
 1
SZP0
MDAP[no-rnd]
RTG
ENDF
PUSHB_1
 1
FDEF
DUP
MDRP[rp0,min,white]
PUSHB_1
 12
CALL
ENDF
PUSHB_1
 2
FDEF
MPPEM
GT
IF
RCVT
SWAP
EIF
POP
ENDF
PUSHB_1
 3
FDEF
ROUND[Black]
RTG
DUP
PUSHB_1
 64
LT
IF
POP
PUSHB_1
 64
EIF
ENDF
PUSHB_1
 4
FDEF
PUSHB_1
 6
CALL
IF
POP
SWAP
POP
ROFF
IF
MDRP[rp0,min,rnd,black]
ELSE
MDRP[min,rnd,black]
EIF
ELSE
MPPEM
GT
IF
IF
MIRP[rp0,min,rnd,black]
ELSE
MIRP[min,rnd,black]
EIF
ELSE
SWAP
POP

StartChar: glyph1
Encoding: 0 0 1
Width: 0
GlyphClass: 2
Flags: W
LayerCount: 2
Fore
SplineSet
0 0 m 1,0,-1
 0 0 l 1,0,-1
EndSplineSet
Validated: 1
EndChar

StartChar: uni0001
Encoding: 1 1 3
Width: 0
GlyphClass: 2
Flags: W
LayerCount: 2
Fore
SplineSet
0 0 m 1,0,-1
 0 0 l 1,0,-1
EndSplineSet
Validated: 1
EndChar

StartChar: space
Encoding: 32 32 4
Width: 512
GlyphClass: 2
Flags: W
LayerCount: 2
Fore
SplineSet
0 0 m 1,0,-1
 0 0 l 1,0,-1
EndSplineSet
Validated: 1
EndChar

StartChar: uniE000
Encoding: 57344 57344 5
Width: 922
GlyphClass: 2
Flags: W
LayerCount: 2
Fore
SplineSet
485 728 m 0,0,1
 495 732 495 732 500.5 731 c 128,-1,2
 506 730 506 730 514 723 c 0,3,4
 521 717 521 717 527.5 695.5 c 128,-1,5
 534 674 534 674 552 598 c 2,6,7
 552 598 552 598 592 428 c 2,8,9
 605 374 605 374 608 369 c 0,10,11
 608 368 608 368 618.5 373 c 128,-1,12
 629 378 629 378 649.5 390 c 128,-1,13
 670 402 670 402 700.5 420.5 c 128,-1,14
 731 439 731 439 773 464 c 0,15,16
 935 564 935 564 946 564 c 256,17,18
 957 564 957 564 966.5 555 c 128,-1,19
 976 546 976 546 976 537 c 0,20,21
 976 523 976 523 804 216 c 0,22,23
 797 205 797 205 793.5 197 c 128,-1,24
 790 189 790 189 789 185 c 128,-1,25
 788 181 788 181 789 180 c 0,26,27
 794 179 794 179 888 149 c 0,28,29
 961 127 961 127 978.5 118 c 128,-1,30
 996 109 996 109 996 94 c 0,31,32
 996 85 996 85 989 77 c 0,33,34
 983 70 983 70 873 17 c 128,-1,35
 763 -36 763 -36 755 -36 c 0,36,37
 746 -36 746 -36 737 -25.5 c 128,-1,38
 728 -15 728 -15 728 -5 c 0,39,40
 728 8 728 8 742.5 18 c 128,-1,41
 757 28 757 28 813 54 c 0,42,43
 880 86 880 86 880 88 c 128,-1,44
 880 90 880 90 841 102 c 0,45,46
 750 129 750 129 731 138.5 c 128,-1,47
 712 148 712 148 712 164 c 0,48,49
 712 174 712 174 787.5 310 c 128,-1,50
 863 446 863 446 862 447 c 128,-1,51
 861 448 861 448 731 368 c 0,52,53
 625 303 625 303 600.5 292.5 c 128,-1,54
 576 282 576 282 566 298 c 0,55,56
 560 307 560 307 532 424 c 128,-1,57
 504 541 504 541 502 543 c 1,58,-1
 498 533 l 2,59,60
 496 523 496 523 478 414 c 128,-1,61
 460 305 460 305 460 302 c 0,62,63
 460 297 460 297 449 290.5 c 128,-1,64
 438 284 438 284 430 284 c 128,-1,65
 422 284 422 284 404.5 298 c 128,-1,66
 387 312 387 312 333 361 c 0,67,68
 250 438 250 438 243 443 c 0,69,70
 239 447 239 447 239 444 c 0,71,72
 240 438 240 438 300 280 c 0,73,74
 344 166 344 166 344 157 c 0,75,76
 344 142 344 142 328 134.5 c 128,-1,77
 312 127 312 127 247 112 c 0,78,79
 164 93 164 93 159.5 91.5 c 128,-1,80
 155 90 155 90 235 56 c 0,81,82
 297 30 297 30 314.5 19.5 c 128,-1,83
 332 9 332 9 332 -2 c 0,84,85
 332 -21 332 -21 319.5 -29 c 128,-1,86
 307 -37 307 -37 289 -31 c 0,87,88
 253 -18 253 -18 146 29 c 128,-1,89
 39 76 39 76 35 81 c 0,90,91
 20 98 20 98 37 117 c 0,92,93
 43 124 43 124 64.5 130 c 128,-1,94
 86 136 86 136 157 152 c 0,95,96
 269 178 269 178 270.5 182.5 c 128,-1,97
 272 187 272 187 202 370 c 128,-1,98
 132 553 132 553 132 561 c 0,99,100
 132 571 132 571 141.5 579.5 c 128,-1,101
 151 588 151 588 162 588 c 0,102,103
 170 588 170 588 193 569 c 128,-1,104
 216 550 216 550 292 480 c 0,105,106
 324 451 324 451 351.5 426.5 c 128,-1,107
 379 402 379 402 395 388.5 c 128,-1,108
 411 375 411 375 411 377 c 0,109,110
 412 382 412 382 439.5 545 c 128,-1,111
 467 708 467 708 472 716 c 128,-1,112
 477 724 477 724 485 728 c 0,0,1
496 283 m 0,113,114
 487 170 487 170 485.5 168.5 c 128,-1,115
 484 167 484 167 403 243 c 128,-1,116
 322 319 322 319 321 318.5 c 128,-1,117
 320 318 320 318 372.5 214.5 c 128,-1,118
 425 111 425 111 423 109.5 c 128,-1,119
 421 108 421 108 340.5 93 c 128,-1,120
 260 78 260 78 260 75.5 c 128,-1,121
 260 73 260 73 273 70 c 0,122,123
 294 66 294 66 359 46 c 128,-1,124
 424 26 424 26 424 24 c 0,125,126
 424 20 424 20 402 -5.5 c 128,-1,127
 380 -31 380 -31 380 -33.5 c 128,-1,128
 380 -36 380 -36 514 -36 c 2,129,-1
 649 -36 l 1,130,-1
 638 -18 l 2,131,132
 628 -1 628 -1 628 2.5 c 128,-1,133
 628 6 628 6 704 44 c 0,134,135
 725 54 725 54 742 63 c 128,-1,136
 759 72 759 72 769 77 c 128,-1,137
 779 82 779 82 779 83 c 0,138,139
 777 84 777 84 698 98 c 128,-1,140
 619 112 619 112 617.5 113 c 128,-1,141
 616 114 616 114 691 226 c 0,142,143
 769 344 769 344 767 344 c 2,144,145
 767 344 767 344 764 342 c 2,146,147
 721 309 721 309 638 248.5 c 128,-1,148
 555 188 555 188 554 189 c 256,149,150
 553 190 553 190 531.5 293 c 128,-1,151
 510 396 510 396 508 396 c 128,-1,152
 506 396 506 396 496 283 c 0,113,114
EndSplineSet
Validated: 41
EndChar

StartChar: uniE001
Encoding: 57345 57345 6
Width: 1664
GlyphClass: 2
Flags: W
LayerCount: 2
Fore
SplineSet
1389 788 m 0,0,1
 1375 778 1375 778 1371 773 c 0,2,3
 1361 758 1361 758 1139 752 c 0,4,5
 989 748 989 748 984 748 c 0,6,7
 965 747 965 747 840.5 752 c 128,-1,8
 716 757 716 757 714 759 c 256,9,10
 712 761 712 761 658 761 c 0,11,12
 599 761 599 761 495 745 c 0,13,14
 480 743 480 743 472 745.5 c 128,-1,15
 464 748 464 748 450 761 c 0,16,17
 428 780 428 780 419 779.5 c 128,-1,18
 410 779 410 779 410 758 c 256,19,20
 410 737 410 737 401 737 c 0,21,22
 394 737 394 737 367.5 707 c 128,-1,23
 341 677 341 677 341 669 c 0,24,25
 341 654 341 654 320 675 c 2,26,-1
 306 687 l 1,27,-1
 275 647 l 2,28,29
 248 614 248 614 249.5 604 c 128,-1,30
 251 594 251 594 283 594 c 0,31,32
 308 594 308 594 312 590 c 0,33,34
 325 577 325 577 284 559 c 0,35,36
 274 555 274 555 261 550 c 0,37,38
 217 536 217 536 217 532.5 c 128,-1,39
 217 529 217 529 272 531 c 0,40,41
 307 532 307 532 321.5 530 c 128,-1,42
 336 528 336 528 352 520 c 0,43,44
 372 510 372 510 387.5 485 c 128,-1,45
 403 460 403 460 403 438 c 0,46,47
 403 421 403 421 387.5 346.5 c 128,-1,48
 372 272 372 272 363 249 c 0,49,50
 354 225 354 225 354 173 c 0,51,52
 354 136 354 136 356 129 c 128,-1,53
 358 122 358 122 369 122 c 0,54,55
 384 122 384 122 386 116 c 0,56,57
 388 111 388 111 500.5 115 c 128,-1,58
 613 119 613 119 619 124 c 0,59,60
 623 128 623 128 614 163 c 0,61,62
 609 185 609 185 610 206 c 128,-1,63
 611 227 611 227 620 288 c 0,64,65
 620 294 620 294 622 303 c 0,66,67
 625 327 625 327 626.5 337 c 128,-1,68
 628 347 628 347 632.5 361.5 c 128,-1,69
 637 376 637 376 638.5 380.5 c 128,-1,70
 640 385 640 385 648.5 392 c 128,-1,71
 657 399 657 399 661.5 400 c 128,-1,72
 666 401 666 401 682 403.5 c 128,-1,73
 698 406 698 406 708.5 406 c 2,74,-1
 744 406 l 2,75,76
 754 407 754 407 760 407 c 0,77,78
 859 408 859 408 863.5 411 c 128,-1,79
 868 414 868 414 859 431 c 0,80,81
 852 444 852 444 850.5 469 c 128,-1,82
 849 494 849 494 854 518 c 0,83,84
 856 528 856 528 859.5 532.5 c 128,-1,85
 863 537 863 537 881 540 c 128,-1,86
 899 543 899 543 924.5 544 c 128,-1,87
 950 545 950 545 1007 546 c 0,88,89
 1104 548 1104 548 1107 551 c 128,-1,90
 1110 554 1110 554 1207 553 c 0,91,92
 1275 552 1275 552 1290.5 554 c 128,-1,93
 1306 556 1306 556 1308 564 c 0,94,95
 1311 575 1311 575 1334 575 c 128,-1,96
 1357 575 1357 575 1386 579 c 2,97,-1
 1414 583 l 1,98,-1
 1433 632 l 2,99,100
 1452 682 1452 682 1452 725 c 0,101,102
 1452 756 1452 756 1450 762 c 128,-1,103
 1448 768 1448 768 1437 768 c 0,104,105
 1421 768 1421 768 1421 779 c 0,106,107
 1421 792 1421 792 1411.5 794.5 c 128,-1,108
 1402 797 1402 797 1389 788 c 0,0,1
749 540 m 1,109,110
 749 540 749 540 752 540 c 2,111,112
 798 543 798 543 805.5 542.5 c 128,-1,113
 813 542 813 542 813 533 c 0,114,115
 813 521 813 521 825.5 510 c 128,-1,116
 838 499 838 499 838 466.5 c 128,-1,117
 838 434 838 434 830 427.5 c 128,-1,118
 822 421 822 421 754 419 c 0,119,120
 705 418 705 418 694 420 c 128,-1,121
 683 422 683 422 672 435 c 0,122,123
 658 452 658 452 658 470 c 0,124,125
 658 485 658 485 665 502 c 128,-1,126
 672 519 672 519 678 519 c 0,127,128
 683 519 683 519 680 514 c 0,129,130
 671 500 671 500 691.5 466 c 128,-1,131
 712 432 712 432 730 432 c 0,132,133
 733 432 733 432 734 433 c 128,-1,134
 735 434 735 434 735 435.5 c 128,-1,135
 735 437 735 437 733.5 440 c 128,-1,136
 732 443 732 443 729 448 c 0,137,138
 718 464 718 464 713.5 487 c 128,-1,139
 709 510 709 510 714 523 c 0,140,141
 717 532 717 532 724 535 c 128,-1,142
 731 538 731 538 749 540 c 1,109,110
EndSplineSet
Validated: 37
EndChar

StartChar: uniE002
Encoding: 57346 57346 7
Width: 2560
GlyphClass: 2
Flags: W
LayerCount: 2
Fore
SplineSet
437 789 m 0,0,1
 432 776 432 776 413.5 776 c 128,-1,2
 395 776 395 776 386.5 766 c 128,-1,3
 378 756 378 756 354 760 c 0,4,5
 329 764 329 764 322 754.5 c 128,-1,6
 315 745 315 745 325 718 c 0,7,8
 331 701 331 701 331 692.5 c 128,-1,9
 331 684 331 684 324 670 c 0,10,11
 307 632 307 632 299.5 623 c 128,-1,12
 292 614 292 614 274 610 c 0,13,14
 249 604 249 604 250 595.5 c 128,-1,15
 251 587 251 587 277 583 c 0,16,17
 329 574 329 574 345 536 c 0,18,19
 355 512 355 512 353 491 c 128,-1,20
 351 470 351 470 335 438 c 0,21,22
 297 360 297 360 270 285 c 128,-1,23
 243 210 243 210 243 180 c 0,24,25
 243 160 243 160 247 151 c 128,-1,26
 251 142 251 142 267 128 c 0,27,28
 302 97 302 97 312 114 c 0,29,30
 316 120 316 120 324 114 c 128,-1,31
 332 108 332 108 420 101 c 0,32,33
 422 101 422 101 426 100 c 0,34,35
 450 98 450 98 460 97 c 128,-1,36
 470 96 470 96 484.5 96.5 c 128,-1,37
 499 97 499 97 503 97.5 c 128,-1,38
 507 98 507 98 514.5 102.5 c 128,-1,39
 522 107 522 107 523 110 c 128,-1,40
 524 113 524 113 526.5 123.5 c 128,-1,41
 529 134 529 134 529 141.5 c 2,42,-1
 529 166 l 1,43,44
 529 166 529 166 529 171 c 2,45,46
 530 207 530 207 535.5 233.5 c 128,-1,47
 541 260 541 260 559 313 c 0,48,49
 578 369 578 369 586 385.5 c 128,-1,50
 594 402 594 402 606 408 c 0,51,52
 625 416 625 416 653 409 c 0,53,54
 733 389 733 389 826 418 c 2,55,-1
 878 435 l 1,56,-1
 881 490 l 2,57,58
 881 493 881 493 882 498 c 0,59,60
 883 521 883 521 883.5 530 c 128,-1,61
 884 539 884 539 889 550.5 c 128,-1,62
 894 562 894 562 897.5 564 c 128,-1,63
 901 566 901 566 916 569.5 c 128,-1,64
 931 573 931 573 943 573 c 2,65,-1
 985 573 l 1,66,67
 985 573 985 573 997 573 c 2,68,69
 1094 573 1094 573 1101.5 580.5 c 128,-1,70
 1109 588 1109 588 1117 580.5 c 128,-1,71
 1125 573 1125 573 1167 573 c 0,72,73
 1194 573 1194 573 1202 575 c 128,-1,74
 1210 577 1210 577 1212.5 585.5 c 128,-1,75
 1215 594 1215 594 1222.5 596.5 c 128,-1,76
 1230 599 1230 599 1255 599 c 0,77,78
 1293 599 1293 599 1293.5 607 c 128,-1,79
 1294 615 1294 615 1293 656 c 2,80,-1
 1292 697 l 1,81,-1
 1314 699 l 2,82,83
 1330 700 1330 700 1333 705 c 128,-1,84
 1336 710 1336 710 1338 735 c 2,85,-1
 1340 770 l 1,86,-1
 1317 770 l 2,87,88
 1294 770 1294 770 1287 783 c 128,-1,89
 1280 796 1280 796 1262.5 800 c 128,-1,90
 1245 804 1245 804 1233 789 c 2,91,-1
 1222 773 l 1,92,-1
 845 774 l 2,93,94
 567 775 567 775 517 777 c 128,-1,95
 467 779 467 779 460 789 c 0,96,97
 444 813 444 813 437 789 c 0,0,1
332 752 m 0,98,99
 336 756 336 756 342 752.5 c 128,-1,100
 348 749 348 749 348 743 c 128,-1,101
 348 737 348 737 338 737 c 0,102,103
 330 737 330 737 328.5 741.5 c 128,-1,104
 327 746 327 746 332 752 c 0,98,99
723 537 m 2,105,-1
 724 573 l 1,106,-1
 756 573 l 2,107,108
 803 573 803 573 828 551.5 c 128,-1,109
 853 530 853 530 853 490 c 0,110,111
 853 468 853 468 835.5 449 c 128,-1,112
 818 430 818 430 790 422 c 0,113,114
 765 415 765 415 725.5 415.5 c 128,-1,115
 686 416 686 416 662 423 c 0,116,117
 639 430 639 430 621.5 448.5 c 128,-1,118
 604 467 604 467 604 484 c 0,119,120
 604 511 604 511 623.5 535.5 c 128,-1,121
 643 560 643 560 665 560 c 0,122,123
 673 560 673 560 681.5 546.5 c 128,-1,124
 690 533 690 533 686 527 c 0,125,126
 681 519 681 519 704 486.5 c 128,-1,127
 727 454 727 454 743 446 c 0,128,129
 766 435 766 435 771 440 c 0,130,131
 775 444 775 444 759 452 c 0,132,133
 721 473 721 473 723 537 c 2,105,-1
289 126 m 0,134,135
 289 133 289 133 299 133 c 0,136,137
 303 133 303 133 305 131 c 128,-1,138
 307 129 307 129 305 126 c 0,139,140
 301 120 301 120 295 120 c 128,-1,141
 289 120 289 120 289 126 c 0,134,135
EndSplineSet
Validated: 37
EndChar

StartChar: uniE003
Encoding: 57347 57347 8
Width: 1357
GlyphClass: 2
Flags: W
LayerCount: 2
Fore
SplineSet
218 783 m 0,0,1
 218 766 218 766 198 749 c 0,2,3
 187 739 187 739 180 724 c 128,-1,4
 173 709 173 709 163 672 c 0,5,6
 156 645 156 645 152.5 631 c 128,-1,7
 149 617 149 617 148.5 602 c 128,-1,8
 148 587 148 587 150 581 c 128,-1,9
 152 575 152 575 159.5 566.5 c 128,-1,10
 167 558 167 558 176 553.5 c 128,-1,11
 185 549 185 549 203 541 c 0,12,13
 219 534 219 534 227 529.5 c 128,-1,14
 235 525 235 525 240.5 516.5 c 128,-1,15
 246 508 246 508 247 501 c 128,-1,16
 248 494 248 494 244.5 477 c 128,-1,17
 241 460 241 460 235.5 443 c 128,-1,18
 230 426 230 426 218 394 c 0,19,20
 188 311 188 311 169.5 225 c 128,-1,21
 151 139 151 139 159 120 c 0,22,23
 168 99 168 99 200 94.5 c 128,-1,24
 232 90 232 90 330 98 c 0,25,26
 442 107 442 107 445.5 110.5 c 128,-1,27
 449 114 449 114 438 130 c 0,28,29
 431 142 431 142 431.5 154.5 c 128,-1,30
 432 167 432 167 442 216 c 0,31,32
 456 285 456 285 465 302 c 128,-1,33
 474 319 474 319 474 339 c 128,-1,34
 474 359 474 359 483 377 c 2,35,-1
 492 394 l 1,36,-1
 609 403 l 2,37,38
 694 408 694 408 712.5 411.5 c 128,-1,39
 731 415 731 415 744 428 c 0,40,41
 762 445 762 445 775 493 c 0,42,43
 785 530 785 530 795 543.5 c 128,-1,44
 805 557 805 557 823 557 c 0,45,46
 837 557 837 557 841 566 c 0,47,48
 844 576 844 576 854 576 c 128,-1,49
 864 576 864 576 864 566 c 0,50,51
 864 560 864 560 869 558 c 128,-1,52
 874 556 874 556 881.5 558.5 c 128,-1,53
 889 561 889 561 894 568 c 0,54,55
 900 576 900 576 902.5 576 c 128,-1,56
 905 576 905 576 911 568 c 0,57,58
 916 561 916 561 923 558.5 c 128,-1,59
 930 556 930 556 935.5 558 c 128,-1,60
 941 560 941 560 941 566 c 0,61,62
 941 576 941 576 950 576 c 128,-1,63
 959 576 959 576 962.5 566.5 c 128,-1,64
 966 557 966 557 976 557 c 128,-1,65
 986 557 986 557 990 566 c 0,66,67
 993 576 993 576 1002 576 c 128,-1,68
 1011 576 1011 576 1011 566 c 0,69,70
 1011 560 1011 560 1016.5 558 c 128,-1,71
 1022 556 1022 556 1029 558.5 c 128,-1,72
 1036 561 1036 561 1041 568 c 0,73,74
 1047 576 1047 576 1049.5 576 c 128,-1,75
 1052 576 1052 576 1059 567 c 0,76,77
 1077 544 1077 544 1084 585 c 0,78,79
 1087 601 1087 601 1092 604.5 c 128,-1,80
 1097 608 1097 608 1119 609 c 0,81,82
 1149 611 1149 611 1149 619 c 128,-1,83
 1149 627 1149 627 1157 635 c 0,84,85
 1163 641 1163 641 1164.5 686 c 128,-1,86
 1166 731 1166 731 1161 745 c 0,87,88
 1157 755 1157 755 1141.5 755 c 128,-1,89
 1126 755 1126 755 1120 770 c 0,90,91
 1116 781 1116 781 1107 787.5 c 128,-1,92
 1098 794 1098 794 1088 794 c 0,93,94
 1083 794 1083 794 1075 773 c 2,95,-1
 1066 753 l 1,96,-1
 884 757 l 2,97,98
 702 762 702 762 527 762 c 0,99,100
 414 762 414 762 383 763.5 c 128,-1,101
 352 765 352 765 352 771 c 256,102,103
 352 777 352 777 343 779 c 128,-1,104
 334 781 334 781 308 781 c 0,105,106
 265 781 265 781 259 786.5 c 128,-1,107
 253 792 253 792 235 796 c 0,108,109
 223 799 223 799 220.5 797 c 128,-1,110
 218 795 218 795 218 783 c 0,0,1
600 510 m 2,111,-1
 598 550 l 1,112,-1
 661 550 l 2,113,114
 705 550 705 550 717 548 c 128,-1,115
 729 546 729 546 740 534 c 0,116,117
 751 523 751 523 753 515.5 c 128,-1,118
 755 508 755 508 752 488 c 0,119,120
 750 470 750 470 746.5 461.5 c 128,-1,121
 743 453 743 453 737.5 446 c 128,-1,122
 732 439 732 439 716.5 436 c 128,-1,123
 701 433 701 433 683 432 c 128,-1,124
 665 431 665 431 628 430 c 2,125,-1
 533 428 l 1,126,-1
 519 447 l 2,127,128
 510 460 510 460 509.5 467.5 c 128,-1,129
 509 475 509 475 517 500 c 256,130,131
 525 525 525 525 529.5 529.5 c 128,-1,132
 534 534 534 534 550 534 c 0,133,134
 567 534 567 534 570.5 529.5 c 128,-1,135
 574 525 574 525 579 497 c 0,136,137
 586 460 586 460 601 447 c 0,138,139
 623 429 623 429 623 438 c 0,140,141
 622 442 622 442 615 453 c 0,142,143
 603 470 603 470 600 510 c 2,111,-1
EndSplineSet
Validated: 37
EndChar

StartChar: uniE004
Encoding: 57348 57348 9
Width: 1510
GlyphClass: 2
Flags: W
LayerCount: 2
Fore
SplineSet
270 757.5 m 128,-1,1
 265 749 265 749 253 747 c 0,2,3
 244 745 244 745 241.5 734 c 128,-1,4
 239 723 239 723 237 679 c 0,5,6
 233 613 233 613 239 605.5 c 128,-1,7
 245 598 245 598 271 594 c 0,8,9
 306 588 306 588 329.5 552.5 c 128,-1,10
 353 517 353 517 347 480 c 0,11,12
 343 454 343 454 326.5 419 c 128,-1,13
 310 384 310 384 290 358 c 0,14,15
 267 327 267 327 251.5 293 c 128,-1,16
 236 259 236 259 240 246 c 0,17,18
 243 234 243 234 262.5 221.5 c 128,-1,19
 282 209 282 209 294 213 c 0,20,21
 306 216 306 216 306 207 c 0,22,23
 306 201 306 201 340.5 189 c 128,-1,24
 375 177 375 177 498 140 c 0,25,26
 549 124 549 124 554 131.5 c 128,-1,27
 559 139 559 139 559 198 c 0,28,29
 560 248 560 248 564 266 c 128,-1,30
 568 284 568 284 578 288 c 0,31,32
 587 292 587 292 587 335 c 2,33,34
 587 335 587 335 587 340 c 2,35,36
 587 386 587 386 606 393.5 c 128,-1,37
 625 401 625 401 738 399 c 2,38,39
 738 399 738 399 748 399 c 1,40,-1
 885 397 l 1,41,-1
 882 462 l 2,42,43
 880 508 880 508 881.5 519.5 c 128,-1,44
 883 531 883 531 893 540 c 0,45,46
 908 554 908 554 939 557 c 128,-1,47
 970 560 970 560 1093 560 c 0,48,49
 1241 560 1241 560 1247.5 568 c 128,-1,50
 1254 576 1254 576 1253 657 c 0,51,52
 1252 714 1252 714 1250 727 c 128,-1,53
 1248 740 1248 740 1239 745 c 0,54,55
 1225 751 1225 751 1215 760 c 0,56,57
 1208 766 1208 766 1205 765.5 c 128,-1,58
 1202 765 1202 765 1198 758 c 256,59,60
 1194 751 1194 751 1125.5 749.5 c 128,-1,61
 1057 748 1057 748 749 748 c 0,62,63
 458 748 458 748 381 749.5 c 128,-1,64
 304 751 304 751 302 757 c 0,65,66
 299 766 299 766 287 766 c 128,-1,0
 275 766 275 766 270 757.5 c 128,-1,1
693 537 m 0,67,68
 703 549 703 549 712.5 551.5 c 128,-1,69
 722 554 722 554 763 554 c 0,70,71
 801 554 801 554 813 551.5 c 128,-1,72
 825 549 825 549 835 541 c 0,73,74
 851 525 851 525 850 496 c 128,-1,75
 849 467 849 467 831 447 c 0,76,77
 817 431 817 431 806.5 428.5 c 128,-1,78
 796 426 796 426 745 424 c 0,79,80
 680 422 680 422 656 430 c 128,-1,81
 632 438 632 438 627 463 c 0,82,83
 623 485 623 485 627 503 c 2,84,-1
 632 520 l 1,85,-1
 642 498 l 2,86,87
 657 467 657 467 669 454 c 128,-1,88
 681 441 681 441 697 435 c 0,89,90
 719 428 719 428 722 433 c 128,-1,91
 725 438 725 438 706 453 c 0,92,93
 686 470 686 470 682 494 c 128,-1,94
 678 518 678 518 693 537 c 0,67,68
EndSplineSet
Validated: 41
EndChar

StartChar: uniE007
Encoding: 57351 57351 10
Width: 2842
GlyphClass: 2
Flags: W
LayerCount: 2
Fore
SplineSet
2929.5 857.5 m 128,-1,1
 2924 852 2924 852 2924 831.5 c 128,-1,2
 2924 811 2924 811 2903.5 775 c 128,-1,3
 2883 739 2883 739 2883 732 c 0,4,5
 2883 727 2883 727 2865.5 726 c 128,-1,6
 2848 725 2848 725 2781 725 c 0,7,8
 2705 725 2705 725 2670 729.5 c 128,-1,9
 2635 734 2635 734 2617 746.5 c 128,-1,10
 2599 759 2599 759 2586 788 c 2,11,-1
 2577 808 l 1,12,-1
 2512 808 l 2,13,14
 2348 808 2348 808 2348 820 c 0,15,16
 2348 825 2348 825 2317 829 c 0,17,18
 2286 832 2286 832 2153.5 832.5 c 128,-1,19
 2021 833 2021 833 1998 830 c 0,20,21
 1981 828 1981 828 1975.5 829 c 128,-1,22
 1970 830 1970 830 1966 836 c 0,23,24
 1960 845 1960 845 1939.5 845 c 128,-1,25
 1919 845 1919 845 1916.5 849 c 128,-1,26
 1914 853 1914 853 1877 850.5 c 128,-1,27
 1840 848 1840 848 1828.5 854 c 128,-1,28
 1817 860 1817 860 1811.5 854.5 c 128,-1,29
 1806 849 1806 849 1780 849 c 128,-1,30
 1754 849 1754 849 1749 855 c 0,31,32
 1746 858 1746 858 1745 857 c 128,-1,33
 1744 856 1744 856 1744 850 c 256,34,35
 1744 844 1744 844 1748.5 842 c 128,-1,36
 1753 840 1753 840 1775 839 c 0,37,38
 1804 838 1804 838 1803 833 c 0,39,40
 1803 829 1803 829 1778 828 c 0,41,42
 1755 828 1755 828 1754 821 c 0,43,44
 1753 816 1753 816 1700.5 814.5 c 128,-1,45
 1648 813 1648 813 1416 813 c 2,46,-1
 1079 813 l 1,47,-1
 1048 785 l 2,48,49
 1018 757 1018 757 1012 757 c 128,-1,50
 1006 757 1006 757 989 731.5 c 128,-1,51
 972 706 972 706 961 706 c 128,-1,52
 950 706 950 706 849 681 c 2,53,-1
 747 655 l 1,54,-1
 718 668 l 1,55,-1
 690 680 l 1,56,-1
 468 686 l 2,57,58
 246 692 246 692 230 688.5 c 128,-1,59
 214 685 214 685 203 665 c 0,60,61
 195 650 195 650 192.5 626.5 c 128,-1,62
 190 603 190 603 185 498 c 0,63,64
 180 396 180 396 180.5 372 c 128,-1,65
 181 348 181 348 186 340 c 0,66,67
 198 322 198 322 239 334 c 128,-1,68
 280 346 280 346 478 425 c 0,69,70
 655 496 655 496 700.5 512 c 128,-1,71
 746 528 746 528 819 545 c 0,72,73
 886 561 886 561 910 564.5 c 128,-1,74
 934 568 934 568 966 567 c 2,75,-1
 1015 566 l 1,76,-1
 1015 552 l 2,77,78
 1015 537 1015 537 1021 518 c 0,79,80
 1026 504 1026 504 1023.5 490.5 c 128,-1,81
 1021 477 1021 477 1001 417 c 2,82,83
 1001 417 1001 417 984.5 367.5 c 2,84,85
 979 351 979 351 976 334 c 128,-1,86
 973 317 973 317 974 310.5 c 128,-1,87
 975 304 975 304 981 295.5 c 128,-1,88
 987 287 987 287 995 283.5 c 2,89,-1
 1019 273 l 2,90,91
 1044 263 1044 263 1054.5 261 c 128,-1,92
 1065 259 1065 259 1084 261 c 2,93,-1
 1112 264 l 1,94,-1
 1112 287 l 2,95,96
 1112 310 1112 310 1147 402 c 0,97,98
 1170 461 1170 461 1179 479.5 c 128,-1,99
 1188 498 1188 498 1198 506 c 0,100,101
 1213 518 1213 518 1213 510.5 c 128,-1,102
 1213 503 1213 503 1223 493 c 0,103,104
 1231 485 1231 485 1242 484 c 128,-1,105
 1253 483 1253 483 1302 485 c 256,106,107
 1351 487 1351 487 1362 488.5 c 128,-1,108
 1373 490 1373 490 1379 498 c 256,109,110
 1385 506 1385 506 1386.5 506.5 c 128,-1,111
 1388 507 1388 507 1390 500 c 0,112,113
 1392 490 1392 490 1412 489 c 2,114,-1
 1432 487 l 1,115,-1
 1431 462 l 2,116,117
 1429 439 1429 439 1433 440 c 0,118,119
 1438 441 1438 441 1442 478 c 0,120,121
 1445 513 1445 513 1449 513 c 128,-1,122
 1453 513 1453 513 1453 506 c 0,123,124
 1453 490 1453 490 1482 420.5 c 128,-1,125
 1511 351 1511 351 1538 304 c 0,126,127
 1612 172 1612 172 1721 88 c 0,128,129
 1769 50 1769 50 1772.5 41.5 c 128,-1,130
 1776 33 1776 33 1780 33 c 128,-1,131
 1784 33 1784 33 1839 117 c 0,132,133
 1880 179 1880 179 1886.5 191 c 128,-1,134
 1893 203 1893 203 1886 208 c 0,135,136
 1809 262 1809 262 1749 339 c 0,137,138
 1716 382 1716 382 1704.5 401.5 c 128,-1,139
 1693 421 1693 421 1672 473 c 0,140,141
 1642 547 1642 547 1639 573 c 2,142,-1
 1636 599 l 1,143,-1
 1727 602 l 2,144,145
 1818 606 1818 606 1822 601 c 0,146,147
 1831 586 1831 586 1875.5 583 c 128,-1,148
 1920 580 1920 580 1961 591 c 0,149,150
 1995 600 1995 600 2128.5 609.5 c 128,-1,151
 2262 619 2262 619 2287.5 624 c 128,-1,152
 2313 629 2313 629 2333 631 c 128,-1,153
 2353 633 2353 633 2356 640 c 0,154,155
 2358 647 2358 647 2493.5 647 c 128,-1,156
 2629 647 2629 647 2632 639 c 0,157,158
 2635 632 2635 632 2652.5 632 c 128,-1,159
 2670 632 2670 632 2673 640 c 0,160,161
 2674 645 2674 645 2698 646 c 128,-1,162
 2722 647 2722 647 2815 646 c 2,163,-1
 2902.5 646 l 2,164,165
 2935 646 2935 646 2952.5 648.5 c 128,-1,166
 2970 651 2970 651 2975 654.5 c 128,-1,167
 2980 658 2980 658 2980 665 c 0,168,169
 2980 671 2980 671 2985.5 672.5 c 128,-1,170
 2991 674 2991 674 3016 674 c 0,171,172
 3052 674 3052 674 3055 677 c 0,173,174
 3059 681 3059 681 3053 691.5 c 128,-1,175
 3047 702 3047 702 3034 711 c 0,176,177
 3015 725 3015 725 2997 725 c 2,178,-1
 2979 725 l 1,179,-1
 2980 788 l 2,180,181
 2982 852 2982 852 2978 857 c 0,182,183
 2975 863 2975 863 2955 863 c 128,-1,0
 2935 863 2935 863 2929.5 857.5 c 128,-1,1
2913 756 m 128,-1,185
 2920 766 2920 766 2941 766 c 0,186,187
 2956 766 2956 766 2958.5 764 c 128,-1,188
 2961 762 2961 762 2961 752 c 2,189,-1
 2961 739 l 1,190,-1
 2934 739 l 2,191,192
 2906 739 2906 739 2906 742.5 c 128,-1,184
 2906 746 2906 746 2913 756 c 128,-1,185
2380 743 m 0,193,194
 2410 746 2410 746 2479 746 c 0,195,196
 2530 746 2530 746 2539.5 744.5 c 128,-1,197
 2549 743 2549 743 2550 735 c 2,198,-1
 2551 725 l 1,199,-1
 2470 725 l 2,200,201
 2419 725 2419 725 2404 726 c 128,-1,202
 2389 727 2389 727 2389 732 c 0,203,204
 2389 739 2389 739 2370 739 c 2,205,-1
 2360 741 l 1,206,207
 2362 741 2362 741 2380 743 c 0,193,194
2001 738 m 0,208,209
 2007 741 2007 741 2131 741 c 128,-1,210
 2255 741 2255 741 2258 737 c 0,211,212
 2259 737 2259 737 2242 736 c 128,-1,213
 2225 735 2225 735 2194.5 734.5 c 128,-1,214
 2164 734 2164 734 2128 734 c 0,215,216
 1995 734 1995 734 2001 738 c 0,208,209
2378 671 m 0,217,218
 2397 674 2397 674 2512 671.5 c 128,-1,219
 2627 669 2627 669 2631 665 c 0,220,221
 2634 662 2634 662 2586 661 c 0,222,223
 2553 660 2553 660 2495 660 c 0,224,225
 2355 660 2355 660 2359.5 664.5 c 128,-1,226
 2364 669 2364 669 2378 671 c 0,217,218
2674 667 m 0,227,228
 2675 671 2675 671 2694.5 672.5 c 128,-1,229
 2714 674 2714 674 2780 674 c 0,230,231
 2883 674 2883 674 2883 669.5 c 128,-1,232
 2883 665 2883 665 2898 664 c 1,233,-1
 2792 661 l 1,234,-1
 2728.5 661 l 2,235,236
 2705 661 2705 661 2692.5 661.5 c 128,-1,237
 2680 662 2680 662 2676.5 663.5 c 128,-1,238
 2673 665 2673 665 2674 667 c 0,227,228
1313 582 m 128,-1,240
 1372 585 1372 585 1375 586 c 0,241,242
 1377 586 1377 586 1377.5 565.5 c 128,-1,243
 1378 545 1378 545 1376 523 c 128,-1,244
 1374 501 1374 501 1371 498 c 0,245,246
 1365 492 1365 492 1300 492 c 0,247,248
 1252 492 1252 492 1242.5 493.5 c 128,-1,249
 1233 495 1233 495 1227 503 c 0,250,251
 1219 515 1219 515 1216 546 c 0,252,253
 1214 567 1214 567 1215 572 c 128,-1,254
 1216 577 1216 577 1222 577 c 0,255,256
 1230 577 1230 577 1233 557 c 0,257,258
 1234 542 1234 542 1243.5 525 c 128,-1,259
 1253 508 1253 508 1259 508 c 0,260,261
 1264 508 1264 508 1255 523 c 0,262,263
 1247 535 1247 535 1245.5 549.5 c 128,-1,264
 1244 564 1244 564 1250 572 c 0,265,239
 1254 579 1254 579 1313 582 c 128,-1,240
EndSplineSet
Validated: 41
EndChar

StartChar: uniE008
Encoding: 57352 57352 11
Width: 2406
GlyphClass: 2
Flags: W
LayerCount: 2
Fore
SplineSet
1046 844 m 0,0,1
 996 841 996 841 964 835 c 0,2,3
 942 831 942 831 936 831.5 c 128,-1,4
 930 832 930 832 926 837 c 0,5,6
 919 846 919 846 906 844 c 128,-1,7
 893 842 893 842 891 832 c 0,8,9
 890 822 890 822 884 821 c 0,10,11
 881 821 881 821 881 826 c 256,12,13
 881 831 881 831 867 831 c 128,-1,14
 853 831 853 831 853 826 c 128,-1,15
 853 821 853 821 827 822 c 2,16,-1
 800 824 l 1,17,-1
 799 796 l 2,18,19
 797 762 797 762 801.5 755.5 c 128,-1,20
 806 749 806 749 827 751 c 0,21,22
 852 754 852 754 855 748 c 0,23,24
 857 745 857 745 863.5 744 c 128,-1,25
 870 743 870 743 875.5 744 c 128,-1,26
 881 745 881 745 881 748 c 0,27,28
 881 752 881 752 887.5 752 c 128,-1,29
 894 752 894 752 897 748 c 128,-1,30
 900 744 900 744 902 724 c 2,31,-1
 905 703 l 1,32,-1
 873 703 l 2,33,34
 848 703 848 703 832.5 697.5 c 128,-1,35
 817 692 817 692 801 677 c 2,36,-1
 788 665 l 1,37,-1
 481 665 l 2,38,39
 173 665 173 665 158 661 c 0,40,41
 140 655 140 655 120.5 637 c 128,-1,42
 101 619 101 619 94 602 c 0,43,44
 89 588 89 588 89 577 c 128,-1,45
 89 566 89 566 94 528 c 0,46,47
 103 463 103 463 117 388.5 c 128,-1,48
 131 314 131 314 136 303 c 0,49,50
 147 278 147 278 158 272 c 128,-1,51
 169 266 169 266 203 264 c 0,52,53
 246 263 246 263 274 266 c 0,54,55
 293 268 293 268 299 270.5 c 128,-1,56
 305 273 305 273 309 280 c 0,57,58
 314 292 314 292 305 307 c 0,59,60
 294 324 294 324 301 338 c 128,-1,61
 308 352 308 352 337 376 c 256,62,63
 366 400 366 400 405 419.5 c 128,-1,64
 444 439 444 439 451 433 c 0,65,66
 457 428 457 428 485 448 c 0,67,68
 510 465 510 465 521.5 465.5 c 128,-1,69
 533 466 533 466 534 448 c 0,70,71
 536 432 536 432 552 339 c 128,-1,72
 568 246 568 246 597.5 153 c 128,-1,73
 627 60 627 60 627 51 c 0,74,75
 627 46 627 46 628.5 44 c 128,-1,76
 630 42 630 42 633 43 c 2,77,78
 633 43 633 43 714 70 c 2,79,80
 789 95 789 95 789 99.5 c 128,-1,81
 789 104 789 104 780 122.5 c 128,-1,82
 771 141 771 141 745.5 210.5 c 128,-1,83
 720 280 720 280 703.5 369 c 128,-1,84
 687 458 687 458 687 465.5 c 128,-1,85
 687 473 687 473 704 484 c 0,86,87
 715 491 715 491 731 494.5 c 128,-1,88
 747 498 747 498 792 502 c 2,89,-1
 863 508 l 1,90,-1
 874 495 l 2,91,92
 900 466 900 466 868 432 c 0,93,94
 844 406 844 406 825.5 372 c 128,-1,95
 807 338 807 338 800 308 c 0,96,97
 793 272 793 272 796 269 c 128,-1,98
 799 266 799 266 890 264 c 0,99,100
 952 263 952 263 972 264.5 c 128,-1,101
 992 266 992 266 1013 273 c 2,102,-1
 1045 283 l 1,103,-1
 1100 352 l 2,104,105
 1156 421 1156 421 1184 455 c 2,106,-1
 1214 490 l 1,107,-1
 1294 489 l 2,108,109
 1408 488 1408 488 1360 478 c 0,110,111
 1347 475 1347 475 1344.5 468.5 c 128,-1,112
 1342 462 1342 462 1348 447 c 0,113,114
 1353 436 1353 436 1352 423.5 c 128,-1,115
 1351 411 1351 411 1344 369 c 0,116,117
 1333 307 1333 307 1334 282 c 2,118,-1
 1335 257 l 1,119,-1
 1363 254 l 2,120,121
 1383 252 1383 252 1413 254.5 c 128,-1,122
 1443 257 1443 257 1447 261 c 0,123,124
 1450 263 1450 263 1437 282 c 2,125,-1
 1424 301 l 1,126,-1
 1426 393 l 1,127,-1
 1428 485 l 1,128,-1
 1410 485 l 2,129,130
 1396 485 1396 485 1394.5 487 c 128,-1,131
 1393 489 1393 489 1399 500 c 0,132,133
 1406 510 1406 510 1409 537 c 2,134,-1
 1412 563 l 1,135,-1
 1443 564 l 2,136,137
 1474 565 1474 565 1483 565 c 128,-1,138
 1492 565 1492 565 1497 572 c 0,139,140
 1501 577 1501 577 1544.5 578 c 128,-1,141
 1588 579 1588 579 1758 579 c 2,142,-1
 2013 579 l 1,143,-1
 2013 607 l 1,144,-1
 2013 635 l 1,145,-1
 1956 634 l 2,146,147
 1898 634 1898 634 1836 632 c 0,148,149
 1716 630 1716 630 1487 638 c 1,150,-1
 1458 641 l 1,151,152
 1469 642 1469 642 1481.5 647 c 128,-1,153
 1494 652 1494 652 1494 655 c 0,154,155
 1494 659 1494 659 1484.5 668.5 c 128,-1,156
 1475 678 1475 678 1468 681 c 0,157,158
 1460 683 1460 683 1455.5 693.5 c 128,-1,159
 1451 704 1451 704 1439.5 704.5 c 128,-1,160
 1428 705 1428 705 1415.5 710 c 128,-1,161
 1403 715 1403 715 1394.5 709 c 128,-1,162
 1386 703 1386 703 1267 703 c 0,163,164
 1187 703 1187 703 1168 704.5 c 128,-1,165
 1149 706 1149 706 1149 711 c 0,166,167
 1149 719 1149 719 1142.5 724 c 128,-1,168
 1136 729 1136 729 1127 729 c 0,169,170
 1116 729 1116 729 1116 736 c 0,171,172
 1116 742 1116 742 1133 743.5 c 128,-1,173
 1150 745 1150 745 1156 739 c 0,174,175
 1160 735 1160 735 1175 737 c 2,176,-1
 1190 740 l 1,177,-1
 1190 788 l 1,178,-1
 1190 835 l 1,179,-1
 1177 836 l 2,180,181
 1165 837 1165 837 1156 836 c 128,-1,182
 1147 835 1147 835 1136 842 c 0,183,184
 1128 848 1128 848 1115.5 848 c 128,-1,185
 1103 848 1103 848 1046 844 c 0,0,1
1033 464 m 1,186,-1
 1033 490 l 1,187,-1
 1079 490 l 1,188,-1
 1125 490 l 1,189,-1
 1132 476 l 1,190,-1
 1139 462 l 1,191,-1
 1085 384 l 2,192,193
 1047 328 1047 328 1036 315.5 c 128,-1,194
 1025 303 1025 303 1009 298 c 0,195,196
 981 288 981 288 915 298 c 0,197,198
 904 300 904 300 903 303 c 128,-1,199
 902 306 902 306 904 320 c 0,200,201
 908 337 908 337 922 365 c 128,-1,202
 936 393 936 393 951 412 c 0,203,204
 965 430 965 430 980.5 430 c 128,-1,205
 996 430 996 430 996 434.5 c 128,-1,206
 996 439 996 439 1015 439 c 2,207,-1
 1033 439 l 1,208,-1
 1033 464 l 1,186,-1
EndSplineSet
Validated: 41
EndChar

StartChar: uniE009
Encoding: 57353 57353 12
Width: 3482
GlyphClass: 2
Flags: W
LayerCount: 2
Fore
SplineSet
1154 717 m 0,0,1
 1148 716 1148 716 1146 712 c 128,-1,2
 1144 708 1144 708 1144 697 c 0,3,4
 1144 679 1144 679 1137.5 679 c 128,-1,5
 1131 679 1131 679 1125 672 c 0,6,7
 1122 668 1122 668 1115.5 666 c 128,-1,8
 1109 664 1109 664 1103.5 665 c 128,-1,9
 1098 666 1098 666 1098 669 c 256,10,11
 1098 672 1098 672 1088 673.5 c 128,-1,12
 1078 675 1078 675 1067 673.5 c 128,-1,13
 1056 672 1056 672 1053 669 c 0,14,15
 1047 663 1047 663 993 671 c 128,-1,16
 939 679 939 679 879 678 c 2,17,-1
 819 676 l 1,18,-1
 819 635 l 1,19,-1
 819 593 l 1,20,-1
 897 594 l 2,21,22
 976 594 976 594 1016 598 c 2,23,-1
 1056 602 l 1,24,-1
 1056 577 l 1,25,-1
 1056 552 l 1,26,-1
 1016 551 l 2,27,28
 976 551 976 551 974 545.5 c 128,-1,29
 972 540 972 540 934 540 c 2,30,-1
 895 540 l 1,31,-1
 895 516 l 2,32,33
 895 499 895 499 893 494 c 128,-1,34
 891 489 891 489 883 486 c 0,35,36
 871 480 871 480 737 480 c 2,37,-1
 603 480 l 1,38,-1
 590 494 l 1,39,-1
 577 508 l 1,40,-1
 445 508 l 2,41,42
 313 508 313 508 304 503 c 128,-1,43
 295 498 295 498 289.5 502 c 128,-1,44
 284 506 284 506 228 506 c 2,45,-1
 173 506 l 1,46,-1
 170 485 l 2,47,48
 167 463 167 463 164 338 c 128,-1,49
 161 213 161 213 163 209 c 0,50,51
 166 204 166 204 200.5 213 c 128,-1,52
 235 222 235 222 323 225 c 2,53,-1
 412 229 l 1,54,-1
 417 252 l 2,55,56
 423 275 423 275 426.5 281 c 128,-1,57
 430 287 430 287 484 287 c 2,58,-1
 539 287 l 1,59,-1
 555 266 l 2,60,61
 572 246 572 246 595 229 c 0,62,63
 610 218 610 218 617 215.5 c 128,-1,64
 624 213 624 213 636 215 c 0,65,66
 655 218 655 218 692 212.5 c 128,-1,67
 729 207 729 207 756 196 c 0,68,69
 786 185 786 185 821 184 c 2,70,-1
 856 183 l 1,71,-1
 860 220 l 2,72,73
 865 257 865 257 876 288 c 2,74,-1
 886 319 l 1,75,-1
 898 310 l 2,76,77
 906 304 906 304 917 302 c 128,-1,78
 928 300 928 300 963 300 c 2,79,-1
 1015 300 l 1,80,-1
 1034 319 l 2,81,82
 1052 337 1052 337 1068 337 c 2,83,-1
 1084 337 l 1,84,-1
 1084 310 l 1,85,86
 1084 310 1084 310 1084 302 c 2,87,88
 1083 285 1083 285 1091.5 283 c 128,-1,89
 1100 281 1100 281 1150 285 c 0,90,91
 1164 286 1164 286 1172 287 c 0,92,93
 1178 287 1178 287 1189 288 c 0,94,95
 1239 292 1239 292 1247 295.5 c 128,-1,96
 1255 299 1255 299 1255 317 c 2,97,98
 1255 317 1255 317 1255 324 c 1,99,-1
 1255 351 l 1,100,-1
 1275 351 l 2,101,102
 1295 351 1295 351 1357 374 c 2,103,-1
 1418 396 l 1,104,-1
 1578 399 l 1,105,-1
 1737 403 l 1,106,-1
 1746 385 l 2,107,108
 1755 368 1755 368 1770 359 c 0,109,110
 1781 353 1781 353 1786 352.5 c 128,-1,111
 1791 352 1791 352 1806 358 c 0,112,113
 1819 363 1819 363 1845 364 c 128,-1,114
 1871 365 1871 365 1958 363 c 0,115,116
 2090 362 2090 362 2090 366 c 0,117,118
 2090 368 2090 368 2134 368 c 128,-1,119
 2178 368 2178 368 2229.5 366.5 c 128,-1,120
 2281 365 2281 365 2298 363 c 0,121,122
 2321 359 2321 359 2329 367 c 0,123,124
 2335 373 2335 373 2335.5 376 c 128,-1,125
 2336 379 2336 379 2332 385 c 0,126,127
 2325 394 2325 394 2301 395.5 c 128,-1,128
 2277 397 2277 397 2271 392 c 0,129,130
 2267 389 2267 389 2181 390 c 128,-1,131
 2095 391 2095 391 2065 395 c 0,132,133
 2043 398 2043 398 2037.5 393 c 128,-1,134
 2032 388 2032 388 2015.5 388 c 128,-1,135
 1999 388 1999 388 1993 394 c 0,136,137
 1988 399 1988 399 1979 393.5 c 128,-1,138
 1970 388 1970 388 1909 389 c 2,139,-1
 1859 391 l 1,140,-1
 1860 391 l 2,141,142
 1873 393 1873 393 1873 397.5 c 128,-1,143
 1873 402 1873 402 1880 402 c 128,-1,144
 1887 402 1887 402 1887 441 c 2,145,-1
 1887 480 l 1,146,-1
 2371 480 l 2,147,148
 2730 480 2730 480 2794 479 c 128,-1,149
 2858 478 2858 478 2865 471 c 0,150,151
 2876 462 2876 462 2894.5 462 c 128,-1,152
 2913 462 2913 462 2923 471 c 0,153,154
 2930 477 2930 477 2941 478.5 c 128,-1,155
 2952 480 2952 480 2988 480 c 0,156,157
 3033 480 3033 480 3041 483.5 c 128,-1,158
 3049 487 3049 487 3049 505.5 c 128,-1,159
 3049 524 3049 524 3040.5 527.5 c 128,-1,160
 3032 531 3032 531 2986 531 c 0,161,162
 2929 531 2929 531 2929 535.5 c 128,-1,163
 2929 540 2929 540 2894.5 540 c 128,-1,164
 2860 540 2860 540 2860 536 c 256,165,166
 2860 532 2860 532 2147 531 c 128,-1,167
 1434 530 1434 530 1385 534 c 0,168,169
 1347 537 1347 537 1347 543 c 128,-1,170
 1347 549 1347 549 1330 550 c 0,171,172
 1307 551 1307 551 1287 553 c 0,173,174
 1280 554 1280 554 1280 577 c 2,175,-1
 1280 600 l 1,176,-1
 1302 600 l 2,177,178
 1324 600 1324 600 1388.5 584 c 128,-1,179
 1453 568 1453 568 1494 568 c 128,-1,180
 1535 568 1535 568 1538 575 c 256,181,182
 1541 582 1541 582 1540.5 631.5 c 128,-1,183
 1540 681 1540 681 1538 691 c 0,184,185
 1536 699 1536 699 1530 700.5 c 128,-1,186
 1524 702 1524 702 1498 702 c 0,187,188
 1462 702 1462 702 1388 683 c 0,189,190
 1287 658 1287 658 1280 669 c 0,191,192
 1277 674 1277 674 1259 674 c 128,-1,193
 1241 674 1241 674 1238 669 c 256,194,195
 1235 664 1235 664 1222 665.5 c 128,-1,196
 1209 667 1209 667 1200 674 c 0,197,198
 1190 682 1190 682 1190 699 c 128,-1,199
 1190 716 1190 716 1183.5 716 c 128,-1,200
 1177 716 1177 716 1171 717.5 c 128,-1,201
 1165 719 1165 719 1154 717 c 0,0,1
1098 578 m 0,202,203
 1098 594 1098 594 1099.5 597 c 128,-1,204
 1101 600 1101 600 1111 600 c 0,205,206
 1125 600 1125 600 1128 595.5 c 128,-1,207
 1131 591 1131 591 1167 591 c 128,-1,208
 1203 591 1203 591 1206 595.5 c 128,-1,209
 1209 600 1209 600 1224 600 c 0,210,211
 1235 600 1235 600 1236.5 597 c 128,-1,212
 1238 594 1238 594 1238 577 c 0,213,214
 1238 554 1238 554 1234 554 c 0,215,216
 1224 552 1224 552 1165.5 552 c 128,-1,217
 1107 552 1107 552 1104 553 c 0,218,219
 1098 555 1098 555 1098 578 c 0,202,203
2952 510.5 m 128,-1,221
 2952 522 2952 522 2956.5 522 c 128,-1,222
 2961 522 2961 522 2961 510.5 c 128,-1,223
 2961 499 2961 499 2956.5 499 c 128,-1,220
 2952 499 2952 499 2952 510.5 c 128,-1,221
715 394 m 0,224,225
 751 406 751 406 778 394.5 c 128,-1,226
 805 383 805 383 803 358 c 0,227,228
 802 335 802 335 788 317 c 128,-1,229
 774 299 774 299 755 290.5 c 128,-1,230
 736 282 736 282 714.5 284 c 128,-1,231
 693 286 693 286 677 301 c 0,232,233
 668 310 668 310 666 316 c 128,-1,234
 664 322 664 322 665 338 c 0,235,236
 669 381 669 381 715 394 c 0,224,225
905 391 m 0,237,238
 910 397 910 397 922 397 c 0,239,240
 931 397 931 397 933 393.5 c 128,-1,241
 935 390 935 390 935 374 c 0,242,243
 936 353 936 353 945 340.5 c 128,-1,244
 954 328 954 328 968 328 c 0,245,246
 977 328 977 328 977 329 c 128,-1,247
 977 330 977 330 965 337 c 0,248,249
 955 344 955 344 952.5 349 c 128,-1,250
 950 354 950 354 950 372 c 2,251,-1
 950 397 l 1,252,-1
 982 397 l 2,253,254
 1006 397 1006 397 1011 395 c 128,-1,255
 1016 393 1016 393 1022 384 c 0,256,257
 1031 366 1031 366 1028 343.5 c 128,-1,258
 1025 321 1025 321 1013 313 c 0,259,260
 1008 310 1008 310 969 310 c 128,-1,261
 930 310 930 310 919 313 c 0,262,263
 907 316 907 316 901 330.5 c 128,-1,264
 895 345 895 345 897 364 c 0,265,266
 901 386 901 386 905 391 c 0,237,238
EndSplineSet
Validated: 41
EndChar

StartChar: uniE00A
Encoding: 57354 57354 13
Width: 2330
GlyphClass: 2
Flags: W
LayerCount: 2
Fore
SplineSet
1001 840 m 0,0,1
 983 833 983 833 975 813.5 c 128,-1,2
 967 794 967 794 963 748 c 0,3,4
 959 691 959 691 961 682 c 0,5,6
 962 677 962 677 961.5 676 c 128,-1,7
 961 675 961 675 958 678 c 0,8,9
 953 683 953 683 940.5 683 c 128,-1,10
 928 683 928 683 925 678.5 c 128,-1,11
 922 674 922 674 912 681 c 0,12,13
 906 685 906 685 873 686.5 c 128,-1,14
 840 688 840 688 730 688 c 0,15,16
 606 688 606 688 581 686.5 c 128,-1,17
 556 685 556 685 549 679 c 0,18,19
 540 669 540 669 509 669 c 2,20,-1
 478 669 l 1,21,-1
 451 699 l 1,22,-1
 424 729 l 1,23,-1
 295 729 l 1,24,-1
 167 729 l 1,25,-1
 164 717 l 2,26,27
 161 704 161 704 154 652 c 0,28,29
 150 617 150 617 150 598 c 128,-1,30
 150 579 150 579 154 535 c 0,31,32
 167 417 167 417 176 389 c 2,33,-1
 181 374 l 1,34,-1
 231 374 l 2,35,36
 265 374 265 374 274 375.5 c 128,-1,37
 283 377 283 377 287 383 c 0,38,39
 293 393 293 393 300 393 c 128,-1,40
 307 393 307 393 350.5 406.5 c 128,-1,41
 394 420 394 420 397.5 420 c 128,-1,42
 401 420 401 420 404 411 c 256,43,44
 407 402 407 402 421.5 402 c 128,-1,45
 436 402 436 402 442 411 c 256,46,47
 448 420 448 420 458 420 c 0,48,49
 467 420 467 420 473.5 425.5 c 128,-1,50
 480 431 480 431 480 439 c 0,51,52
 480 449 480 449 510 455.5 c 128,-1,53
 540 462 540 462 583 461 c 2,54,-1
 634 460 l 1,55,-1
 637 381 l 2,56,57
 639 321 639 321 643 294 c 128,-1,58
 647 267 647 267 660 220 c 0,59,60
 667 195 667 195 691 125 c 128,-1,61
 715 55 715 55 717.5 52.5 c 128,-1,62
 720 50 720 50 809.5 82 c 128,-1,63
 899 114 899 114 899 118 c 0,64,65
 899 123 899 123 876.5 188 c 128,-1,66
 854 253 854 253 845 294 c 0,67,68
 828 367 828 367 832 388 c 0,69,70
 833 391 833 391 834 389 c 0,71,72
 838 383 838 383 854 390 c 0,73,74
 865 395 865 395 869.5 401 c 128,-1,75
 874 407 874 407 880 425 c 0,76,77
 890 455 890 455 910.5 479.5 c 128,-1,78
 931 504 931 504 955 514 c 0,79,80
 971 520 971 520 985.5 522 c 128,-1,81
 1000 524 1000 524 1035 524 c 0,82,83
 1071 524 1071 524 1081 522.5 c 128,-1,84
 1091 521 1091 521 1096 515 c 0,85,86
 1104 504 1104 504 1101 492 c 128,-1,87
 1098 480 1098 480 1081 460 c 0,88,89
 1033 399 1033 399 1022 325 c 0,90,91
 1016 288 1016 288 1020 278 c 0,92,93
 1029 253 1029 253 1088 231 c 0,94,95
 1114 222 1114 222 1129 219.5 c 128,-1,96
 1144 217 1144 217 1183 217 c 0,97,98
 1225 217 1225 217 1241 220 c 128,-1,99
 1257 223 1257 223 1306 241 c 0,100,101
 1372 264 1372 264 1379.5 272 c 128,-1,102
 1387 280 1387 280 1441 370 c 0,103,104
 1446 379 1446 379 1455 395 c 0,105,106
 1476 431 1476 431 1484.5 445.5 c 128,-1,107
 1493 460 1493 460 1506.5 478 c 128,-1,108
 1520 496 1520 496 1525 499.5 c 128,-1,109
 1530 503 1530 503 1544.5 509 c 128,-1,110
 1559 515 1559 515 1568 515.5 c 128,-1,111
 1577 516 1577 516 1600 517 c 0,112,113
 1611 517 1611 517 1616 518 c 0,114,115
 1659 520 1659 520 1726.5 517.5 c 128,-1,116
 1794 515 1794 515 1796 511 c 0,117,118
 1811 485 1811 485 1824 485 c 0,119,120
 1833 485 1833 485 1837 493 c 128,-1,121
 1841 501 1841 501 1847 533 c 0,122,123
 1849 543 1849 543 1850.5 547.5 c 128,-1,124
 1852 552 1852 552 1853.5 555 c 128,-1,125
 1855 558 1855 558 1856 557.5 c 128,-1,126
 1857 557 1857 557 1860 556 c 0,127,128
 1866 552 1866 552 1879.5 552.5 c 128,-1,129
 1893 553 1893 553 1897 558 c 0,130,131
 1902 563 1902 563 1912.5 563 c 128,-1,132
 1923 563 1923 563 1923 569 c 0,133,134
 1923 572 1923 572 1968 572 c 128,-1,135
 2013 572 2013 572 2059.5 569.5 c 128,-1,136
 2106 567 2106 567 2109 564 c 0,137,138
 2114 559 2114 559 2169 559 c 0,139,140
 2213 559 2213 559 2223 563.5 c 128,-1,141
 2233 568 2233 568 2232 590 c 0,142,143
 2232 609 2232 609 2222 612 c 128,-1,144
 2212 615 2212 615 2156 612 c 0,145,146
 2084 609 2084 609 2041 607.5 c 128,-1,147
 1998 606 1998 606 1970.5 605.5 c 128,-1,148
 1943 605 1943 605 1933 606 c 128,-1,149
 1923 607 1923 607 1923 609 c 0,150,151
 1923 614 1923 614 1911.5 614 c 128,-1,152
 1900 614 1900 614 1897.5 621 c 128,-1,153
 1895 628 1895 628 1886 628 c 0,154,155
 1879 628 1879 628 1878.5 631 c 128,-1,156
 1878 634 1878 634 1880 647 c 0,157,158
 1885 670 1885 670 1882.5 729 c 128,-1,159
 1880 788 1880 788 1875 799 c 0,160,161
 1865 818 1865 818 1817 822.5 c 128,-1,162
 1769 827 1769 827 1506 833 c 0,163,164
 1183 840 1183 840 1097.5 842.5 c 128,-1,165
 1012 845 1012 845 1001 840 c 0,0,1
1485 766 m 0,166,167
 1510 766 1510 766 1552 767 c 0,168,169
 1703 771 1703 771 1729 770 c 128,-1,170
 1755 769 1755 769 1763 761 c 2,171,172
 1763 761 1763 761 1766 758 c 2,173,174
 1776 748 1776 748 1778 741.5 c 128,-1,175
 1780 735 1780 735 1780 717 c 2,176,-1
 1780 689 l 1,177,-1
 1763 684 l 2,178,179
 1749 680 1749 680 1701 680 c 128,-1,180
 1653 680 1653 680 1649 684.5 c 128,-1,181
 1645 689 1645 689 1632.5 688 c 128,-1,182
 1620 687 1620 687 1615 682 c 0,183,184
 1611 679 1611 679 1610.5 679.5 c 128,-1,185
 1610 680 1610 680 1611 686 c 256,186,187
 1612 692 1612 692 1624 693.5 c 128,-1,188
 1636 695 1636 695 1693 697 c 2,189,-1
 1774 699 l 1,190,-1
 1775 710 l 1,191,-1
 1777 722 l 1,192,-1
 1689 718 l 2,193,194
 1601 715 1601 715 1598 720 c 128,-1,195
 1595 725 1595 725 1584.5 724.5 c 128,-1,196
 1574 724 1574 724 1569 719 c 0,197,198
 1564 713 1564 713 1563 695 c 2,199,-1
 1561 676 l 1,200,-1
 1499 674 l 2,201,202
 1437 671 1437 671 1429 677.5 c 128,-1,203
 1421 684 1421 684 1414 682 c 0,204,205
 1408 679 1408 679 1400.5 688.5 c 128,-1,206
 1393 698 1393 698 1393 709 c 0,207,208
 1393 719 1393 719 1402 727 c 0,209,210
 1417 742 1417 742 1407 743 c 0,211,212
 1398 743 1398 743 1385.5 727 c 128,-1,213
 1373 711 1373 711 1369 694 c 2,214,-1
 1363 671 l 1,215,-1
 1257 668 l 2,216,217
 1135 665 1135 665 1126 672 c 0,218,219
 1123 675 1123 675 1124 681 c 0,220,221
 1127 693 1127 693 1119 693 c 0,222,223
 1111 692 1111 692 1099 679 c 0,224,225
 1084 660 1084 660 1075 667.5 c 128,-1,226
 1066 675 1066 675 1066 706 c 0,227,228
 1066 720 1066 720 1068.5 727 c 128,-1,229
 1071 734 1071 734 1079 742 c 2,230,-1
 1093 756 l 1,231,-1
 1205 759 l 2,232,233
 1317 762 1317 762 1485 766 c 0,166,167
1235 496 m 0,234,235
 1241 510 1241 510 1248 506 c 0,236,237
 1252 504 1252 504 1251 496 c 0,238,239
 1245 458 1245 458 1257 440 c 0,240,241
 1266 426 1266 426 1267 433 c 0,242,243
 1267 437 1267 437 1263 447 c 0,244,245
 1260 457 1260 457 1261 463.5 c 128,-1,246
 1262 470 1262 470 1269 484 c 0,247,248
 1277 499 1277 499 1282 502.5 c 128,-1,249
 1287 506 1287 506 1301 507 c 0,250,251
 1324 509 1324 509 1333 502 c 128,-1,252
 1342 495 1342 495 1342 477 c 0,253,254
 1342 457 1342 457 1346.5 457 c 128,-1,255
 1351 457 1351 457 1352 477 c 0,256,257
 1352 489 1352 489 1354 493.5 c 128,-1,258
 1356 498 1356 498 1364 502 c 0,259,260
 1385 509 1385 509 1410.5 507 c 128,-1,261
 1436 505 1436 505 1457 493.5 c 128,-1,262
 1478 482 1478 482 1475 470 c 0,263,264
 1474 463 1474 463 1421 371 c 2,265,-1
 1369 278 l 1,266,-1
 1310 256 l 2,267,268
 1271 241 1271 241 1254 237.5 c 128,-1,269
 1237 234 1237 234 1205 232 c 0,270,271
 1165 231 1165 231 1154.5 235 c 128,-1,272
 1144 239 1144 239 1144 257 c 0,273,274
 1144 272 1144 272 1158 288 c 128,-1,275
 1172 304 1172 304 1172 321 c 0,276,277
 1172 332 1172 332 1175.5 338.5 c 128,-1,278
 1179 345 1179 345 1189 356 c 0,279,280
 1201 366 1201 366 1203.5 372 c 128,-1,281
 1206 378 1206 378 1205 387 c 0,282,283
 1203 402 1203 402 1215.5 420 c 128,-1,284
 1228 438 1228 438 1229 460.5 c 128,-1,285
 1230 483 1230 483 1235 496 c 0,234,235
EndSplineSet
Validated: 41
EndChar

StartChar: uniE00B
Encoding: 57355 57355 14
Width: 2893
GlyphClass: 2
Flags: W
LayerCount: 2
Fore
SplineSet
1227 804 m 2,0,1
 1227 785 1227 785 1215 773 c 0,2,3
 1207 765 1207 765 1197.5 763.5 c 128,-1,4
 1188 762 1188 762 1146 762 c 0,5,6
 1105 762 1105 762 1097 763 c 128,-1,7
 1089 764 1089 764 1088 772 c 0,8,9
 1087 779 1087 779 1083 781 c 128,-1,10
 1079 783 1079 783 1067 784 c 0,11,12
 1054 785 1054 785 1050.5 783.5 c 128,-1,13
 1047 782 1047 782 1047 776 c 0,14,15
 1047 767 1047 767 1039 766.5 c 128,-1,16
 1031 766 1031 766 1010 773 c 0,17,18
 989 779 989 779 854.5 781.5 c 128,-1,19
 720 784 720 784 706 792 c 0,20,21
 691 799 691 799 688 789 c 0,22,23
 686 781 686 781 684 746 c 0,24,25
 680 665 680 665 699 669 c 0,26,27
 749 678 749 678 895 681 c 0,28,29
 994 683 994 683 1018 690 c 128,-1,30
 1042 697 1042 697 1045 697 c 128,-1,31
 1048 697 1048 697 1047 653 c 128,-1,32
 1046 609 1046 609 1043 609 c 0,33,34
 1037 609 1037 609 1033.5 620 c 128,-1,35
 1030 631 1030 631 1033 639 c 0,36,37
 1038 651 1038 651 1030 654 c 128,-1,38
 1022 657 1022 657 1006 663.5 c 128,-1,39
 990 670 990 670 988 665 c 128,-1,40
 986 660 986 660 971 660 c 256,41,42
 956 660 956 660 948.5 653 c 128,-1,43
 941 646 941 646 940 630 c 2,44,-1
 939 612 l 1,45,-1
 876 609 l 2,46,47
 814 606 814 606 801.5 602 c 128,-1,48
 789 598 789 598 752 569 c 0,49,50
 728 550 728 550 717 544.5 c 128,-1,51
 706 539 706 539 690 537 c 0,52,53
 673 535 673 535 665 537.5 c 128,-1,54
 657 540 657 540 639 551 c 2,55,-1
 613 568 l 1,56,-1
 459 568 l 1,57,-1
 304 568 l 1,58,-1
 282 555 l 2,59,60
 261 543 261 543 259.5 539.5 c 128,-1,61
 258 536 258 536 238.5 535.5 c 128,-1,62
 219 535 219 535 166 527 c 0,63,64
 127 521 127 521 119.5 518.5 c 128,-1,65
 112 516 112 516 109 505 c 0,66,67
 105 491 105 491 117 416.5 c 128,-1,68
 129 342 129 342 128 278.5 c 128,-1,69
 127 215 127 215 130.5 209.5 c 128,-1,70
 134 204 134 204 180 204 c 0,71,72
 210 204 210 204 224 206 c 128,-1,73
 238 208 238 208 262 218 c 0,74,75
 716 399 716 399 763 409 c 0,76,77
 794 416 794 416 877 416 c 0,78,79
 905 416 905 416 919.5 415.5 c 128,-1,80
 934 415 934 415 943.5 414.5 c 128,-1,81
 953 414 953 414 955 412.5 c 128,-1,82
 957 411 957 411 957 409 c 0,83,84
 954 402 954 402 965.5 397 c 128,-1,85
 977 392 977 392 985 377 c 0,86,87
 1005 340 1005 340 957 274 c 0,88,89
 930 239 930 239 915 202 c 2,90,-1
 899 164 l 1,91,-1
 911 155 l 2,92,93
 932 138 932 138 963.5 122.5 c 128,-1,94
 995 107 995 107 1010 106 c 0,95,96
 1024 105 1024 105 1027.5 106.5 c 128,-1,97
 1031 108 1031 108 1033 118 c 0,98,99
 1036 132 1036 132 1048 150.5 c 128,-1,100
 1060 169 1060 169 1063 187.5 c 128,-1,101
 1066 206 1066 206 1072.5 217.5 c 128,-1,102
 1079 229 1079 229 1087 255.5 c 128,-1,103
 1095 282 1095 282 1098 284 c 128,-1,104
 1101 286 1101 286 1128 268 c 2,105,-1
 1155 250 l 1,106,-1
 1207 249 l 2,107,108
 1257 249 1257 249 1271 257.5 c 128,-1,109
 1285 266 1285 266 1299 307 c 2,110,-1
 1312 347 l 1,111,-1
 1330 347 l 2,112,113
 1344 347 1344 347 1345 342.5 c 128,-1,114
 1346 338 1346 338 1339 313 c 0,115,116
 1337 305 1337 305 1342 305 c 128,-1,117
 1347 305 1347 305 1350 318 c 0,118,119
 1354 337 1354 337 1356.5 341 c 128,-1,120
 1359 345 1359 345 1367 345 c 0,121,122
 1378 345 1378 345 1381.5 322 c 128,-1,123
 1385 299 1385 299 1390 191 c 0,124,125
 1396 79 1396 79 1398.5 76.5 c 128,-1,126
 1401 74 1401 74 1497.5 88.5 c 128,-1,127
 1594 103 1594 103 1598 107 c 128,-1,128
 1602 111 1602 111 1593.5 255.5 c 128,-1,129
 1585 400 1585 400 1589 421 c 2,130,-1
 1592 443 l 1,131,-1
 1729 443 l 2,132,133
 1866 443 1866 443 2168 454.5 c 128,-1,134
 2470 466 2470 466 2473.5 466 c 128,-1,135
 2477 466 2477 466 2477 446 c 2,136,-1
 2477 425 l 1,137,-1
 2507 425 l 1,138,-1
 2537 425 l 1,139,-1
 2534 453 l 1,140,-1
 2531 480 l 1,141,-1
 2552 480 l 2,142,143
 2573 480 2573 480 2576 485 c 128,-1,144
 2579 490 2579 490 2588 490 c 128,-1,145
 2597 490 2597 490 2597 485 c 128,-1,146
 2597 480 2597 480 2608 480 c 128,-1,147
 2619 480 2619 480 2622 485 c 128,-1,148
 2625 490 2625 490 2712.5 490 c 128,-1,149
 2800 490 2800 490 2800 485 c 128,-1,150
 2800 480 2800 480 2809 480 c 128,-1,151
 2818 480 2818 480 2818 484.5 c 128,-1,152
 2818 489 2818 489 2832 489 c 128,-1,153
 2846 489 2846 489 2848.5 484.5 c 128,-1,154
 2851 480 2851 480 2908 480 c 0,155,156
 2944 480 2944 480 2955 481.5 c 128,-1,157
 2966 483 2966 483 2968 488 c 0,158,159
 2976 508 2976 508 2964 508 c 0,160,161
 2957 508 2957 508 2957 512.5 c 128,-1,162
 2957 517 2957 517 2964 517 c 0,163,164
 2976 517 2976 517 2968 538 c 0,165,166
 2966 542 2966 542 2955 543.5 c 128,-1,167
 2944 545 2944 545 2908 545 c 0,168,169
 2851 545 2851 545 2848.5 540.5 c 128,-1,170
 2846 536 2846 536 2834.5 536 c 128,-1,171
 2823 536 2823 536 2821 540 c 0,172,173
 2817 546 2817 546 2808.5 545 c 128,-1,174
 2800 544 2800 544 2798 538 c 0,175,176
 2795 530 2795 530 2710 530 c 128,-1,177
 2625 530 2625 530 2622 538 c 0,178,179
 2619 545 2619 545 2608.5 545 c 128,-1,180
 2598 545 2598 545 2595.5 538 c 128,-1,181
 2593 531 2593 531 2586.5 531 c 128,-1,182
 2580 531 2580 531 2577 594 c 0,183,184
 2575 654 2575 654 2570 668.5 c 128,-1,185
 2565 683 2565 683 2546 683 c 2,186,-1
 2528 683 l 1,187,-1
 2528 642 l 1,188,-1
 2528 600 l 1,189,-1
 2194 603 l 2,190,191
 1659 608 1659 608 1454 609 c 2,192,-1
 1278 609 l 1,193,-1
 1278 620 l 2,194,195
 1278 645 1278 645 1298 664 c 128,-1,196
 1318 683 1318 683 1344 683 c 0,197,198
 1361 683 1361 683 1361 690 c 128,-1,199
 1361 697 1361 697 1397 697 c 0,200,201
 1421 697 1421 697 1434 694 c 128,-1,202
 1447 691 1447 691 1472 680 c 2,203,-1
 1511 663 l 1,204,-1
 1632 660 l 1,205,-1
 1753 658 l 1,206,-1
 1755 672 l 2,207,208
 1758 686 1758 686 1756 743 c 2,209,-1
 1755 799 l 1,210,-1
 1636 799 l 1,211,-1
 1516 798 l 1,212,-1
 1472 780 l 2,213,214
 1441 767 1441 767 1428.5 764.5 c 128,-1,215
 1416 762 1416 762 1388.5 763 c 128,-1,216
 1361 764 1361 764 1355 765.5 c 128,-1,217
 1349 767 1349 767 1348 774 c 256,218,219
 1347 781 1347 781 1343.5 783 c 128,-1,220
 1340 785 1340 785 1328 785 c 256,221,222
 1316 785 1316 785 1313 783 c 128,-1,223
 1310 781 1310 781 1310 773 c 0,224,225
 1310 755 1310 755 1296 764 c 0,226,227
 1279 776 1279 776 1277 801 c 2,228,-1
 1275 819 l 1,229,-1
 1251 821 l 1,230,-1
 1227 822 l 1,231,-1
 1227 804 l 2,0,1
1089 690 m 0,232,233
 1089 695 1089 695 1106.5 696 c 128,-1,234
 1124 697 1124 697 1189 697 c 0,235,236
 1281 697 1281 697 1281 693 c 0,237,238
 1281 692 1281 692 1278 690 c 0,239,240
 1271 686 1271 686 1247 684 c 128,-1,241
 1223 682 1223 682 1202 683 c 128,-1,242
 1181 684 1181 684 1181 688 c 256,243,244
 1181 692 1181 692 1155.5 692 c 128,-1,245
 1130 692 1130 692 1130 687.5 c 128,-1,246
 1130 683 1130 683 1109.5 683 c 128,-1,247
 1089 683 1089 683 1089 690 c 0,232,233
1089 628 m 1,248,-1
 1089 647 l 1,249,-1
 1117 645 l 1,250,-1
 1146 644 l 1,251,-1
 1148 627 l 1,252,-1
 1149 609 l 1,253,-1
 1119 609 l 1,254,-1
 1089 609 l 1,255,-1
 1089 628 l 1,248,-1
1175 643 m 0,256,257
 1181 649 1181 649 1193 644 c 0,258,259
 1196 642 1196 642 1196 641 c 0,260,261
 1195 637 1195 637 1195 623 c 0,262,263
 1195 615 1195 615 1192.5 612 c 128,-1,264
 1190 609 1190 609 1183 609 c 128,-1,265
 1176 609 1176 609 1174 612 c 128,-1,266
 1172 615 1172 615 1172 625 c 0,267,268
 1172 640 1172 640 1175 643 c 0,256,257
1227 627.5 m 128,-1,270
 1227 646 1227 646 1231.5 646 c 128,-1,271
 1236 646 1236 646 1236 627.5 c 128,-1,272
 1236 609 1236 609 1231.5 609 c 128,-1,269
 1227 609 1227 609 1227 627.5 c 128,-1,270
1119 321 m 2,273,274
 1136 347 1136 347 1145 347 c 128,-1,275
 1154 347 1154 347 1151 338 c 0,276,277
 1146 321 1146 321 1159 292 c 128,-1,278
 1172 263 1172 263 1184 263 c 0,279,280
 1186 263 1186 263 1187 264 c 128,-1,281
 1188 265 1188 265 1188 266.5 c 128,-1,282
 1188 268 1188 268 1186.5 270.5 c 128,-1,283
 1185 273 1185 273 1183 277 c 0,284,285
 1168 306 1168 306 1184 333 c 2,286,-1
 1192 347 l 1,287,-1
 1246 347 l 2,288,289
 1301 347 1301 347 1301 342 c 0,290,291
 1301 336 1301 336 1288 304.5 c 128,-1,292
 1275 273 1275 273 1270 267 c 0,293,294
 1265 262 1265 262 1254 260.5 c 128,-1,295
 1243 259 1243 259 1210 259 c 2,296,-1
 1157 259 l 1,297,-1
 1130 277 l 1,298,-1
 1103 296 l 1,299,-1
 1119 321 l 2,273,274
EndSplineSet
Validated: 37
EndChar

StartChar: uniE00D
Encoding: 57357 57357 15
Width: 3098
GlyphClass: 2
Flags: W
LayerCount: 2
Fore
SplineSet
2169 854.5 m 128,-1,1
 2163 851 2163 851 2152 824 c 2,2,-1
 2141 796 l 1,3,-1
 2047 794 l 2,4,5
 1953 792 1953 792 1869 793 c 0,6,7
 1817 794 1817 794 1801 795.5 c 128,-1,8
 1785 797 1785 797 1785 801 c 0,9,10
 1785 808 1785 808 1775.5 808 c 128,-1,11
 1766 808 1766 808 1756.5 813.5 c 128,-1,12
 1747 819 1747 819 1745 813.5 c 128,-1,13
 1743 808 1743 808 1732 808 c 128,-1,14
 1721 808 1721 808 1719 813.5 c 128,-1,15
 1717 819 1717 819 1707 814 c 0,16,17
 1687 801 1687 801 1682 814 c 0,18,19
 1680 819 1680 819 1670 814 c 0,20,21
 1650 801 1650 801 1645 814 c 0,22,23
 1643 819 1643 819 1634 814 c 0,24,25
 1628 810 1628 810 1622.5 808.5 c 128,-1,26
 1617 807 1617 807 1613.5 808 c 128,-1,27
 1610 809 1610 809 1610 812 c 0,28,29
 1610 817 1610 817 1603 817 c 128,-1,30
 1596 817 1596 817 1596 812.5 c 128,-1,31
 1596 808 1596 808 1584.5 808 c 128,-1,32
 1573 808 1573 808 1573 812.5 c 128,-1,33
 1573 817 1573 817 1566 817 c 128,-1,34
 1559 817 1559 817 1559 812 c 0,35,36
 1559 809 1559 809 1555 808 c 128,-1,37
 1551 807 1551 807 1545.5 808.5 c 128,-1,38
 1540 810 1540 810 1537 813 c 0,39,40
 1533 818 1533 818 1525.5 813 c 128,-1,41
 1518 808 1518 808 1518 801 c 0,42,43
 1518 789 1518 789 1344 789 c 0,44,45
 1276 789 1276 789 1258.5 790.5 c 128,-1,46
 1241 792 1241 792 1241 797 c 0,47,48
 1241 803 1241 803 1234.5 810 c 128,-1,49
 1228 817 1228 817 1223 817 c 0,50,51
 1219 817 1219 817 1216.5 811 c 128,-1,52
 1214 805 1214 805 1213.5 811 c 128,-1,53
 1213 817 1213 817 1206.5 817 c 128,-1,54
 1200 817 1200 817 1197.5 811 c 128,-1,55
 1195 805 1195 805 1195 811 c 128,-1,56
 1195 817 1195 817 1188 817 c 128,-1,57
 1181 817 1181 817 1181 811 c 128,-1,58
 1181 805 1181 805 1177 810 c 0,59,60
 1174 816 1174 816 1049.5 816 c 128,-1,61
 925 816 925 816 922 811 c 128,-1,62
 919 806 919 806 913 820 c 0,63,64
 900 849 900 849 880 849 c 0,65,66
 858 849 858 849 851 812 c 0,67,68
 849 796 849 796 826.5 774 c 128,-1,69
 804 752 804 752 791 752 c 0,70,71
 775 752 775 752 771 732 c 0,72,73
 770 723 770 723 765.5 720 c 128,-1,74
 761 717 761 717 762 710 c 0,75,76
 763 706 763 706 729.5 703.5 c 128,-1,77
 696 701 696 701 661 702.5 c 128,-1,78
 626 704 626 704 624.5 708.5 c 128,-1,79
 623 713 623 713 582.5 714.5 c 128,-1,80
 542 716 542 716 387 716 c 0,81,82
 241 716 241 716 196.5 717 c 128,-1,83
 152 718 152 718 151 722 c 0,84,85
 148 728 148 728 133 725 c 0,86,87
 122 723 122 723 119.5 719 c 128,-1,88
 117 715 117 715 114 696 c 0,89,90
 111 675 111 675 119 523 c 128,-1,91
 127 371 127 371 132 359 c 0,92,93
 135 350 135 350 148.5 350.5 c 128,-1,94
 162 351 162 351 164.5 360.5 c 128,-1,95
 167 370 167 370 204 395 c 2,96,-1
 241 421 l 1,97,-1
 256 408 l 2,98,99
 270 395 270 395 280 386 c 2,100,-1
 291 377 l 1,101,-1
 354 440 l 1,102,-1
 418 503 l 1,103,-1
 441 504 l 2,104,105
 465 504 465 504 485 512.5 c 128,-1,106
 505 521 505 521 555 553 c 0,107,108
 614 591 614 591 620.5 591 c 128,-1,109
 627 591 627 591 627 595.5 c 128,-1,110
 627 600 627 600 694 600 c 0,111,112
 739 600 739 600 750 599 c 128,-1,113
 761 598 761 598 762 592 c 0,114,115
 764 583 764 583 797.5 577.5 c 128,-1,116
 831 572 831 572 833 566 c 0,117,118
 840 543 840 543 835 528.5 c 128,-1,119
 830 514 830 514 799 464 c 0,120,121
 773 422 773 422 764.5 403.5 c 128,-1,122
 756 385 756 385 749 357 c 2,123,-1
 739 314 l 1,124,-1
 761 301 l 2,125,126
 784 287 784 287 814.5 277.5 c 128,-1,127
 845 268 845 268 869 268 c 2,128,-1
 896 268 l 1,129,-1
 893 290 l 2,130,131
 890 312 890 312 908.5 367.5 c 128,-1,132
 927 423 927 423 931 440.5 c 128,-1,133
 935 458 935 458 949 475 c 2,134,-1
 963 492 l 1,135,-1
 1070 495 l 2,136,137
 1177 498 1177 498 1183.5 500.5 c 128,-1,138
 1190 503 1190 503 1190 498 c 128,-1,139
 1190 493 1190 493 1196 498 c 128,-1,140
 1202 503 1202 503 1222 504 c 2,141,-1
 1243 506 l 1,142,-1
 1246 455 l 2,143,144
 1253 331 1253 331 1298 182 c 0,145,146
 1323 100 1323 100 1334.5 67.5 c 128,-1,147
 1346 35 1346 35 1350 36 c 0,148,149
 1355 37 1355 37 1429.5 81.5 c 128,-1,150
 1504 126 1504 126 1504 128 c 256,151,152
 1504 130 1504 130 1489 161 c 0,153,154
 1412 330 1412 330 1404 512 c 2,155,-1
 1401 576 l 1,156,-1
 1421 579 l 2,157,158
 1442 581 1442 581 1456 584 c 0,159,160
 1467 587 1467 587 1469 585.5 c 128,-1,161
 1471 584 1471 584 1471 575 c 0,162,163
 1471 563 1471 563 1479 564 c 0,164,165
 1487 564 1487 564 1489 578 c 0,166,167
 1490 590 1490 590 1501.5 595 c 128,-1,168
 1513 600 1513 600 1716 600 c 2,169,-1
 1918 600 l 1,170,-1
 1920 586 l 2,171,172
 1923 573 1923 573 1932 573 c 0,173,174
 1940 573 1940 573 1943 584.5 c 128,-1,175
 1946 596 1946 596 1948 630 c 2,176,-1
 1949 658 l 1,177,-1
 2024 659 l 1,178,-1
 2099 660 l 1,179,-1
 2099 635 l 2,180,181
 2099 609 2099 609 2102 610 c 0,182,183
 2108 610 2108 610 2125 616.5 c 128,-1,184
 2142 623 2142 623 2146 627 c 0,185,186
 2151 632 2151 632 2152 643 c 2,187,-1
 2153 653 l 1,188,-1
 2296 657 l 2,189,190
 2440 661 2440 661 2454 655 c 128,-1,191
 2468 649 2468 649 2468 645 c 0,192,193
 2468 643 2468 643 2476 642 c 128,-1,194
 2484 641 2484 641 2492.5 642.5 c 128,-1,195
 2501 644 2501 644 2502 646 c 0,196,197
 2505 651 2505 651 2567 651 c 2,198,-1
 2628 651 l 1,199,-1
 2631 669 l 2,200,201
 2634 687 2634 687 2631 701 c 2,202,-1
 2628 716 l 1,203,-1
 2567 716 l 2,204,205
 2505 716 2505 716 2502 720 c 0,206,207
 2499 725 2499 725 2484 724 c 128,-1,208
 2469 723 2469 723 2461 718 c 0,209,210
 2454 712 2454 712 2403 711 c 128,-1,211
 2352 710 2352 710 2294 714 c 2,212,-1
 2252 717 l 1,213,-1
 2242 748 l 2,214,215
 2232 780 2232 780 2225 805 c 0,216,217
 2217 837 2217 837 2210 848 c 128,-1,218
 2203 859 2203 859 2190 858 c 0,219,0
 2175 858 2175 858 2169 854.5 c 128,-1,1
2175 833 m 0,220,221
 2177 837 2177 837 2181 839 c 128,-1,222
 2185 841 2185 841 2188 839.5 c 128,-1,223
 2191 838 2191 838 2191 833 c 0,224,225
 2191 826 2191 826 2195.5 826 c 128,-1,226
 2200 826 2200 826 2200 821.5 c 128,-1,227
 2200 817 2200 817 2193 820 c 128,-1,228
 2186 823 2186 823 2186 817.5 c 128,-1,229
 2186 812 2186 812 2179 812 c 0,230,231
 2168 812 2168 812 2175 833 c 0,220,221
2219 761 m 2,232,-1
 2220 787 l 1,233,-1
 2228 760 l 2,234,235
 2238 731 2238 731 2233 730 c 0,236,237
 2231 730 2231 730 2226 732 c 0,238,239
 2219 735 2219 735 2219 761 c 2,232,-1
1947 722 m 1,240,-1
 1947 734 l 1,241,-1
 2043 734 l 2,242,243
 2112 734 2112 734 2126 732.5 c 128,-1,244
 2140 731 2140 731 2140 725 c 0,245,246
 2140 720 2140 720 2134.5 718 c 128,-1,247
 2129 716 2129 716 2109 714 c 0,248,249
 2078 711 2078 711 2012 711 c 2,250,-1
 1947 711 l 1,251,-1
 1947 722 l 1,240,-1
2540 703 m 0,252,253
 2531 704 2531 704 2540 704 c 0,254,255
 2547 705 2547 705 2560 705 c 2,256,-1
 2582 703 l 1,257,258
 2582 703 2582 703 2580 703 c 2,259,260
 2560 701 2560 701 2540 703 c 0,252,253
2540 661 m 0,261,262
 2531 662 2531 662 2540 663 c 2,263,264
 2540 663 2540 663 2560 663 c 1,265,-1
 2582 662 l 1,266,267
 2581 662 2581 662 2580 661 c 0,268,269
 2560 660 2560 660 2540 661 c 0,261,262
984 576 m 0,270,271
 999 586 999 586 1002 586 c 0,272,273
 1011 586 1011 586 1017 554 c 0,274,275
 1024 517 1024 517 1037 517 c 0,276,277
 1044 517 1044 517 1039 523 c 0,278,279
 1034 528 1034 528 1033.5 552.5 c 128,-1,280
 1033 577 1033 577 1038 580 c 256,281,282
 1043 583 1043 583 1079.5 582.5 c 128,-1,283
 1116 582 1116 582 1120.5 579.5 c 128,-1,284
 1125 577 1125 577 1125 543 c 128,-1,285
 1125 509 1125 509 1118 506 c 0,286,287
 1109 503 1109 503 1047 503.5 c 128,-1,288
 985 504 985 504 978 508 c 0,289,290
 969 513 969 513 969 539 c 0,291,292
 969 558 969 558 971 563.5 c 128,-1,293
 973 569 973 569 984 576 c 0,270,271
1179 488 m 0,294,295
 1182 498 1182 498 1193 487 c 0,296,297
 1201 479 1201 479 1194.5 458 c 128,-1,298
 1188 437 1188 437 1177 435 c 0,299,300
 1167 434 1167 434 1167 440 c 0,301,302
 1167 453 1167 453 1179 488 c 0,294,295
EndSplineSet
Validated: 41
EndChar

StartChar: uniE00E
Encoding: 57358 57358 16
Width: 2739
GlyphClass: 2
Flags: W
LayerCount: 2
Fore
SplineSet
1131 848.5 m 128,-1,1
 1125 843 1125 843 1125 833 c 128,-1,2
 1125 823 1125 823 1120.5 818.5 c 128,-1,3
 1116 814 1116 814 1130 797 c 0,4,5
 1142 784 1142 784 1142 774 c 128,-1,6
 1142 764 1142 764 1131 751 c 0,7,8
 1124 743 1124 743 1073 742.5 c 128,-1,9
 1022 742 1022 742 1010.5 738.5 c 128,-1,10
 999 735 999 735 997 719 c 0,11,12
 996 706 996 706 993.5 704 c 128,-1,13
 991 702 991 702 978 702 c 0,14,15
 960 702 960 702 953 695 c 128,-1,16
 946 688 946 688 851 688 c 0,17,18
 790 688 790 688 773 689 c 128,-1,19
 756 690 756 690 756 694.5 c 128,-1,20
 756 699 756 699 705 700.5 c 128,-1,21
 654 702 654 702 455 702 c 0,22,23
 243 702 243 702 196 700.5 c 128,-1,24
 149 699 149 699 136 693 c 0,25,26
 124 688 124 688 119.5 683 c 128,-1,27
 115 678 115 678 114 669 c 0,28,29
 110 650 110 650 111 460.5 c 128,-1,30
 112 271 112 271 115 263 c 0,31,32
 119 257 119 257 134 248.5 c 128,-1,33
 149 240 149 240 157 240 c 0,34,35
 160 240 160 240 163 251 c 0,36,37
 165 257 165 257 220 295.5 c 128,-1,38
 275 334 275 334 330 368 c 128,-1,39
 385 402 385 402 386 398 c 0,40,41
 388 393 388 393 393 393 c 128,-1,42
 398 393 398 393 455 432 c 2,43,-1
 512 471 l 1,44,-1
 570 471 l 2,45,46
 606 471 606 471 616.5 472.5 c 128,-1,47
 627 474 627 474 627 478 c 0,48,49
 627 485 627 485 648 485 c 0,50,51
 662 485 662 485 667 487.5 c 128,-1,52
 672 490 672 490 678 500 c 0,53,54
 687 515 687 515 710 552 c 2,55,-1
 734 590 l 1,56,-1
 799 593 l 2,57,58
 865 596 865 596 900 601 c 0,59,60
 923 604 923 604 932 604 c 128,-1,61
 941 604 941 604 952 598 c 2,62,-1
 969 591 l 1,63,-1
 969 553 l 2,64,65
 969 520 969 520 974.5 512.5 c 128,-1,66
 980 505 980 505 1008 501 c 0,67,68
 1022 499 1022 499 1027 495 c 128,-1,69
 1032 491 1032 491 1039 478 c 2,70,-1
 1049 458 l 1,71,-1
 964 305 l 2,72,73
 879 152 879 152 879 149 c 0,74,75
 879 145 879 145 967.5 125 c 128,-1,76
 1056 105 1056 105 1059 108 c 256,77,78
 1062 111 1062 111 1134 287 c 0,79,80
 1149 323 1149 323 1156 335.5 c 128,-1,81
 1163 348 1163 348 1171 351 c 0,82,83
 1183 356 1183 356 1281 357 c 2,84,-1
 1378 358 l 1,85,-1
 1381 342 l 2,86,87
 1384 326 1384 326 1384 309 c 0,88,89
 1384 290 1384 290 1399 220.5 c 128,-1,90
 1414 151 1414 151 1427 106 c 0,91,92
 1444 52 1444 52 1444 44.5 c 128,-1,93
 1444 37 1444 37 1447 38 c 0,94,95
 1451 38 1451 38 1549.5 65.5 c 128,-1,96
 1648 93 1648 93 1650 94 c 0,97,98
 1651 96 1651 96 1633 153 c 0,99,100
 1610 226 1610 226 1596.5 311.5 c 128,-1,101
 1583 397 1583 397 1594 400 c 0,102,103
 1598 402 1598 402 1597 486 c 0,104,105
 1596 541 1596 541 1597 558 c 128,-1,106
 1598 575 1598 575 1603.5 585 c 128,-1,107
 1609 595 1609 595 1609.5 598.5 c 128,-1,108
 1610 602 1610 602 1605 605 c 0,109,110
 1598 609 1598 609 1603 609 c 128,-1,111
 1608 609 1608 609 1626 584 c 0,112,113
 1638 566 1638 566 1643.5 562.5 c 128,-1,114
 1649 559 1649 559 1663 559 c 0,115,116
 1684 559 1684 559 1684 554 c 0,117,118
 1684 551 1684 551 1833.5 549.5 c 128,-1,119
 1983 548 1983 548 2133 550 c 128,-1,120
 2283 552 2283 552 2284 555 c 0,121,122
 2287 602 2287 602 2292 614 c 0,123,124
 2295 619 2295 619 2297 620 c 1,125,126
 2297 615 2297 615 2310.5 614.5 c 128,-1,127
 2324 614 2324 614 2327 619 c 0,128,129
 2330 623 2330 623 2369 623 c 128,-1,130
 2408 623 2408 623 2408 618.5 c 128,-1,131
 2408 614 2408 614 2421.5 614 c 128,-1,132
 2435 614 2435 614 2435 618.5 c 128,-1,133
 2435 623 2435 623 2553 620 c 2,134,-1
 2671 617 l 1,135,-1
 2671 647 l 2,136,137
 2671 676 2671 676 2666.5 682.5 c 128,-1,138
 2662 689 2662 689 2575.5 685.5 c 128,-1,139
 2489 682 2489 682 2463 682 c 2,140,-1
 2438 681 l 1,141,-1
 2436 750 l 1,142,-1
 2435 819 l 1,143,-1
 2421 834 l 2,144,145
 2406 849 2406 849 2402 849 c 0,146,147
 2394 849 2394 849 2372.5 827 c 128,-1,148
 2351 805 2351 805 2329 775 c 0,149,150
 2309 746 2309 746 2303 734.5 c 128,-1,151
 2297 723 2297 723 2297 711 c 0,152,153
 2297 691 2297 691 2291 693 c 0,154,155
 2288 693 2288 693 2287 705 c 0,156,157
 2286 727 2286 727 2284 742 c 0,158,159
 2284 746 2284 746 2135 747.5 c 128,-1,160
 1986 749 1986 749 1837 748 c 128,-1,161
 1688 747 1688 747 1688 743 c 256,162,163
 1688 739 1688 739 1665 739 c 0,164,165
 1649 739 1649 739 1644 736 c 128,-1,166
 1639 733 1639 733 1630 717 c 2,167,-1
 1617 695 l 1,168,-1
 1615 719 l 1,169,-1
 1614 743 l 1,170,-1
 1428 743 l 1,171,-1
 1242 743 l 1,172,-1
 1238 757 l 2,173,174
 1236 766 1236 766 1233 768.5 c 128,-1,175
 1230 771 1230 771 1218 771 c 0,176,177
 1200 771 1200 771 1195 762 c 128,-1,178
 1190 753 1190 753 1182 755 c 0,179,180
 1177 757 1177 757 1175.5 764.5 c 128,-1,181
 1174 772 1174 772 1174 799 c 256,182,183
 1174 826 1174 826 1172 834.5 c 128,-1,184
 1170 843 1170 843 1165 848 c 0,185,186
 1157 853 1157 853 1147 853.5 c 128,-1,0
 1137 854 1137 854 1131 848.5 c 128,-1,1
2334 759 m 0,187,188
 2349 781 2349 781 2354 785 c 128,-1,189
 2359 789 2359 789 2374 789 c 0,190,191
 2387 789 2387 789 2391 787 c 128,-1,192
 2395 785 2395 785 2398 774 c 0,193,194
 2404 758 2404 758 2413 755.5 c 128,-1,195
 2422 753 2422 753 2422 734 c 2,196,-1
 2422 716 l 1,197,-1
 2366 716 l 1,198,199
 2366 716 2366 716 2354 716 c 2,200,201
 2318 715 2318 715 2315 719.5 c 128,-1,202
 2312 724 2312 724 2329 750 c 0,203,204
 2332 756 2332 756 2334 759 c 0,187,188
2347 680 m 0,205,206
 2337 681 2337 681 2347 681 c 0,207,208
 2353 682 2353 682 2366 682 c 2,209,-1
 2389 680 l 1,210,211
 2389 680 2389 680 2386 680 c 2,212,213
 2366 678 2366 678 2347 680 c 0,205,206
1268 462 m 0,214,215
 1308 469 1308 469 1331 460 c 2,216,-1
 1347 453 l 1,217,-1
 1347 419 l 1,218,219
 1347 419 1347 419 1347 398 c 2,220,221
 1347 392 1347 392 1343.5 384.5 c 128,-1,222
 1340 377 1340 377 1337.5 375.5 c 128,-1,223
 1335 374 1335 374 1324 371.5 c 128,-1,224
 1313 369 1313 369 1304 369.5 c 128,-1,225
 1295 370 1295 370 1272 370 c 2,226,-1
 1210 370 l 1,227,-1
 1202 386 l 2,228,229
 1188 415 1188 415 1193 434.5 c 128,-1,230
 1198 454 1198 454 1220 458 c 2,231,-1
 1234 461 l 1,232,-1
 1234 437 l 2,233,234
 1234 413 1234 413 1243 398 c 256,235,236
 1252 383 1252 383 1254.5 384.5 c 128,-1,237
 1257 386 1257 386 1251 405 c 0,238,239
 1244 426 1244 426 1248 443 c 0,240,241
 1251 454 1251 454 1254.5 457.5 c 128,-1,242
 1258 461 1258 461 1268 462 c 0,214,215
EndSplineSet
Validated: 41
EndChar

StartChar: uniE010
Encoding: 57360 57360 17
Width: 3482
GlyphClass: 2
Flags: W
LayerCount: 2
Fore
SplineSet
947.5 801.5 m 128,-1,1
 938 795 938 795 902 735 c 2,2,-1
 865 674 l 1,3,-1
 845 674 l 2,4,5
 826 674 826 674 826 668 c 128,-1,6
 826 662 826 662 798.5 662 c 128,-1,7
 771 662 771 662 764 656.5 c 128,-1,8
 757 651 757 651 636 653 c 0,9,10
 514 655 514 655 364 658 c 0,11,12
 256 659 256 659 234.5 660.5 c 128,-1,13
 213 662 213 662 208 669 c 0,14,15
 204 676 204 676 193.5 677.5 c 128,-1,16
 183 679 183 679 140 679 c 0,17,18
 98 679 98 679 87.5 677.5 c 128,-1,19
 77 676 77 676 74 670 c 0,20,21
 68 658 68 658 66 588.5 c 128,-1,22
 64 519 64 519 69 461 c 0,23,24
 74 388 74 388 77 381 c 0,25,26
 79 375 79 375 83.5 374.5 c 128,-1,27
 88 374 88 374 91.5 378.5 c 128,-1,28
 95 383 95 383 96 390 c 0,29,30
 97 398 97 398 106.5 404.5 c 128,-1,31
 116 411 116 411 155 430 c 0,32,33
 213 457 213 457 217 457 c 128,-1,34
 221 457 221 457 221 434 c 128,-1,35
 221 411 221 411 226.5 411 c 128,-1,36
 232 411 232 411 275 441 c 0,37,38
 327 477 327 477 331 473 c 0,39,40
 332 472 332 472 332 467 c 0,41,42
 332 449 332 449 353 455 c 0,43,44
 364 457 364 457 364 467 c 0,45,46
 364 473 364 473 369.5 474.5 c 128,-1,47
 375 476 375 476 396 476 c 0,48,49
 424 476 424 476 429 481.5 c 128,-1,50
 434 487 434 487 431 513 c 2,51,-1
 428 536 l 1,52,-1
 475 536 l 2,53,54
 503 536 503 536 512 537 c 128,-1,55
 521 538 521 538 521 542.5 c 128,-1,56
 521 547 521 547 531.5 548 c 128,-1,57
 542 549 542 549 575 550 c 0,58,59
 610 550 610 550 622.5 551.5 c 128,-1,60
 635 553 635 553 643.5 559 c 128,-1,61
 652 565 652 565 664 566.5 c 128,-1,62
 676 568 676 568 709 568 c 0,63,64
 761 568 761 568 761 563.5 c 128,-1,65
 761 559 761 559 775 559 c 2,66,-1
 789 559 l 1,67,-1
 789 529 l 1,68,-1
 789 499 l 1,69,-1
 814 502 l 2,70,71
 832 504 832 504 838 502 c 128,-1,72
 844 500 844 500 855 488 c 0,73,74
 875 468 875 468 867.5 445 c 128,-1,75
 860 422 860 422 798 314 c 2,76,-1
 725 185 l 1,77,-1
 742 180 l 2,78,79
 781 169 781 169 831 160 c 128,-1,80
 881 151 881 151 885 154 c 0,81,82
 891 159 891 159 886 164 c 0,83,84
 879 170 879 170 882.5 183 c 128,-1,85
 886 196 886 196 904 231 c 0,86,87
 927 277 927 277 939.5 285 c 128,-1,88
 952 293 952 293 954 294 c 128,-1,89
 956 295 956 295 951 303.5 c 128,-1,90
 946 312 946 312 958 334 c 0,91,92
 967 352 967 352 977 358.5 c 128,-1,93
 987 365 987 365 1007.5 367 c 128,-1,94
 1028 369 1028 369 1078 369 c 2,95,-1
 1155 367 l 1,96,-1
 1159 326 l 2,97,98
 1162 284 1162 284 1169 248 c 0,99,100
 1175 222 1175 222 1193.5 157.5 c 128,-1,101
 1212 93 1212 93 1215 89 c 0,102,103
 1217 88 1217 88 1297 109 c 128,-1,104
 1377 130 1377 130 1383 134 c 0,105,106
 1388 137 1388 137 1374 175 c 0,107,108
 1346 255 1346 255 1338 329 c 0,109,110
 1332 379 1332 379 1333 392.5 c 128,-1,111
 1334 406 1334 406 1343 408 c 0,112,113
 1353 411 1353 411 1347.5 417.5 c 128,-1,114
 1342 424 1342 424 1343 474 c 0,115,116
 1344 511 1344 511 1346 518.5 c 128,-1,117
 1348 526 1348 526 1357 530 c 0,118,119
 1370 536 1370 536 1370 547 c 0,120,121
 1370 555 1370 555 1374.5 558 c 128,-1,122
 1379 561 1379 561 1383.5 557.5 c 128,-1,123
 1388 554 1388 554 1389 546 c 2,124,125
 1389 546 1389 546 1389 545 c 2,126,127
 1390 535 1390 535 1414 533 c 128,-1,128
 1438 531 1438 531 1581 531 c 2,129,130
 1581 531 1581 531 1605 531 c 2,131,132
 1761 531 1761 531 1803.5 533.5 c 128,-1,133
 1846 536 1846 536 1848 546 c 0,134,135
 1851 554 1851 554 1857.5 554 c 128,-1,136
 1864 554 1864 554 1866 568 c 0,137,138
 1869 581 1869 581 1876 582 c 0,139,140
 1882 582 1882 582 1882 573 c 128,-1,141
 1882 564 1882 564 1888 559.5 c 128,-1,142
 1894 555 1894 555 1899.5 560 c 128,-1,143
 1905 565 1905 565 1905 573 c 0,144,145
 1905 579 1905 579 1911 580.5 c 128,-1,146
 1917 582 1917 582 1939 582 c 2,147,-1
 1972 582 l 1,148,-1
 1970 563 l 2,149,150
 1969 550 1969 550 1970.5 547.5 c 128,-1,151
 1972 545 1972 545 1981 545 c 0,152,153
 1993 545 1993 545 1993 549.5 c 128,-1,154
 1993 554 1993 554 2008 555 c 0,155,156
 2017 556 2017 556 2020 558.5 c 128,-1,157
 2023 561 2023 561 2022 569 c 2,158,-1
 2022 582 l 1,159,-1
 2073 583 l 2,160,161
 2166 584 2166 584 2263 582.5 c 128,-1,162
 2360 581 2360 581 2361 577 c 0,163,164
 2362 575 2362 575 2359.5 574 c 128,-1,165
 2357 573 2357 573 2353 573 c 0,166,167
 2343 573 2343 573 2343 562 c 2,168,-1
 2343 552 l 1,169,-1
 2630 552 l 1,170,-1
 2916 552 l 1,171,-1
 2921 563 l 2,172,173
 2925 575 2925 575 2925 610.5 c 128,-1,174
 2925 646 2925 646 2921 654 c 0,175,176
 2917 661 2917 661 2880 662.5 c 128,-1,177
 2843 664 2843 664 2645 667 c 0,178,179
 2452 669 2452 669 2412 668.5 c 128,-1,180
 2372 668 2372 668 2368 662 c 0,181,182
 2362 654 2362 654 2362 646 c 0,183,184
 2362 641 2362 641 2345.5 639.5 c 128,-1,185
 2329 638 2329 638 2261 636 c 0,186,187
 2160 634 2160 634 2081 636 c 2,188,-1
 2002 638 l 1,189,-1
 2001 699 l 2,190,191
 2001 753 2001 753 1998 767.5 c 128,-1,192
 1995 782 1995 782 1982 787 c 0,193,194
 1969 791 1969 791 1955.5 779.5 c 128,-1,195
 1942 768 1942 768 1912 726 c 0,196,197
 1889 694 1889 694 1883 682 c 128,-1,198
 1877 670 1877 670 1877 657 c 0,199,200
 1877 637 1877 637 1872.5 637 c 128,-1,201
 1868 637 1868 637 1868 649 c 128,-1,202
 1868 661 1868 661 1854 674 c 2,203,-1
 1840 688 l 1,204,-1
 1631 689 l 2,205,206
 1423 690 1423 690 1407 688 c 0,207,208
 1396 686 1396 686 1393 683 c 128,-1,209
 1390 680 1390 680 1388 667 c 256,210,211
 1386 654 1386 654 1385 673 c 0,212,213
 1385 680 1385 680 1384 692 c 0,214,215
 1384 726 1384 726 1380 737.5 c 128,-1,216
 1376 749 1376 749 1360 761 c 0,217,218
 1356 764 1356 764 1172.5 786 c 128,-1,219
 989 808 989 808 964 808 c 0,220,0
 957 808 957 808 947.5 801.5 c 128,-1,1
960 766 m 0,221,222
 960 768 960 768 961.5 769.5 c 128,-1,223
 963 771 963 771 966.5 771 c 128,-1,224
 970 771 970 771 971.5 769.5 c 128,-1,225
 973 768 973 768 972 766 c 0,226,227
 971 761 971 761 966.5 761 c 128,-1,228
 962 761 962 761 960 766 c 0,221,222
1009 739 m 0,229,230
 1017 745 1017 745 1042 746.5 c 128,-1,231
 1067 748 1067 748 1182 748 c 2,232,-1
 1343 748 l 1,233,-1
 1355 736 l 2,234,235
 1366 724 1366 724 1364 709 c 0,236,237
 1363 709 1363 709 1363 708 c 0,238,239
 1359 686 1359 686 1335 682.5 c 128,-1,240
 1311 679 1311 679 1173 679 c 2,241,242
 1173 679 1173 679 1163 679 c 2,243,244
 984 679 984 679 981 681 c 0,245,246
 978 685 978 685 989 708.5 c 128,-1,247
 1000 732 1000 732 1009 739 c 0,229,230
1917 706 m 0,248,249
 1929 725 1929 725 1934.5 729.5 c 128,-1,250
 1940 734 1940 734 1949 733 c 0,251,252
 1963 732 1963 732 1964.5 721.5 c 128,-1,253
 1966 711 1966 711 1974.5 705 c 128,-1,254
 1983 699 1983 699 1983 687 c 0,255,256
 1983 679 1983 679 1978 677 c 128,-1,257
 1973 675 1973 675 1946 672 c 0,258,259
 1908 670 1908 670 1903.5 674 c 128,-1,260
 1899 678 1899 678 1917 706 c 0,248,249
98 664 m 0,261,262
 97 666 97 666 103 668 c 0,263,264
 112 669 112 669 145 669 c 0,265,266
 194 669 194 669 194 663.5 c 128,-1,267
 194 658 194 658 147 658 c 128,-1,268
 100 658 100 658 98 664 c 0,261,262
1905 641.5 m 128,-1,270
 1905 646 1905 646 1939.5 646 c 128,-1,271
 1974 646 1974 646 1974 641.5 c 128,-1,272
 1974 637 1974 637 1939.5 637 c 128,-1,269
 1905 637 1905 637 1905 641.5 c 128,-1,270
106 531 m 128,-1,274
 106 536 106 536 147.5 536 c 128,-1,275
 189 536 189 536 189 531 c 128,-1,276
 189 526 189 526 147.5 526 c 128,-1,273
 106 526 106 526 106 531 c 128,-1,274
1017 451 m 0,277,278
 1035 469 1035 469 1035 459 c 0,279,280
 1035 456 1035 456 1033 451 c 0,281,282
 1027 438 1027 438 1031 422 c 128,-1,283
 1035 406 1035 406 1046 397 c 0,284,285
 1062 384 1062 384 1063 390 c 0,286,287
 1063 393 1063 393 1057 400 c 0,288,289
 1039 423 1039 423 1057 448 c 0,290,291
 1063 457 1063 457 1068.5 459.5 c 128,-1,292
 1074 462 1074 462 1088 462 c 0,293,294
 1148 462 1148 462 1133 402 c 2,295,-1
 1128 379 l 1,296,-1
 1080 379 l 2,297,298
 1045 379 1045 379 1036.5 380.5 c 128,-1,299
 1028 382 1028 382 1018 391 c 0,300,301
 1006 404 1006 404 1005.5 421 c 128,-1,302
 1005 438 1005 438 1017 451 c 0,277,278
EndSplineSet
Validated: 41
EndChar

StartChar: uniE011
Encoding: 57361 57361 18
Width: 1357
GlyphClass: 2
Flags: W
LayerCount: 2
Fore
SplineSet
97.4375 1225 m 4,0,1
 67.75 1217.1875 67.75 1217.1875 61.5 1192.1875 c 132,-1,2
 55.25 1167.1875 55.25 1167.1875 50.5625 1045.3125 c 4,3,4
 44.3125 893.75 44.3125 893.75 33.375 868.75 c 4,5,6
 11.5 817.1875 11.5 817.1875 41.1875 793.75 c 4,7,8
 59.9375 779.6875 59.9375 779.6875 95.875 779.6875 c 6,9,-1
 130.25 779.6875 l 5,10,-1
 130.25 832.8125 l 6,11,12
 130.25 887.5 130.25 887.5 135.71875 887.5 c 132,-1,13
 141.1875 887.5 141.1875 887.5 155.25 876.5625 c 132,-1,14
 169.3125 865.625 169.3125 865.625 252.125 865.625 c 6,15,-1
 334.9375 865.625 l 5,16,-1
 361.5 837.5 l 6,17,18
 391.1875 806.25 391.1875 806.25 391.96875 772.65625 c 132,-1,19
 392.75 739.0625 392.75 739.0625 364.625 654.6875 c 4,20,21
 339.625 582.8125 339.625 582.8125 339.625 532.8125 c 6,22,-1
 339.625 484.375 l 5,23,-1
 405.25 484.375 l 5,24,-1
 470.875 484.375 l 5,25,-1
 466.1875 250 l 5,26,-1
 459.9375 15.625 l 5,27,-1
 544.3125 15.625 l 5,28,-1
 627.125 15.625 l 5,29,-1
 627.125 250 l 6,30,31
 627.125 484.375 627.125 484.375 634.9375 484.375 c 132,-1,32
 642.75 484.375 642.75 484.375 642.75 615.625 c 6,33,-1
 642.75 745.3125 l 5,34,-1
 659.9375 729.6875 l 6,35,36
 670.875 718.75 670.875 718.75 688.0625 714.0625 c 132,-1,37
 705.25 709.375 705.25 709.375 755.25 706.25 c 4,38,39
 825.5625 701.5625 825.5625 701.5625 849 705.46875 c 132,-1,40
 872.4375 709.375 872.4375 709.375 891.1875 729.6875 c 4,41,42
 908.375 751.5625 908.375 751.5625 908.375 790.625 c 4,43,44
 908.375 817.1875 908.375 817.1875 912.28125 827.34375 c 132,-1,45
 916.1875 837.5 916.1875 837.5 928.6875 848.4375 c 4,46,47
 942.75 860.9375 942.75 860.9375 963.84375 863.28125 c 132,-1,48
 984.9375 865.625 984.9375 865.625 1084.9375 865.625 c 6,49,-1
 1222.4375 865.625 l 5,50,-1
 1222.4375 825 l 6,51,52
 1220.875 785.9375 1220.875 785.9375 1209.15625 778.90625 c 132,-1,53
 1197.4375 771.875 1197.4375 771.875 1201.34375 747.65625 c 132,-1,54
 1205.25 723.4375 1205.25 723.4375 1198.21875 710.15625 c 132,-1,55
 1191.1875 696.875 1191.1875 696.875 1195.875 574.21875 c 132,-1,56
 1200.5625 451.5625 1200.5625 451.5625 1195.875 376.5625 c 4,57,58
 1191.1875 312.5 1191.1875 312.5 1194.3125 294.53125 c 132,-1,59
 1197.4375 276.5625 1197.4375 276.5625 1211.5 271.875 c 4,60,61
 1231.8125 264.0625 1231.8125 264.0625 1236.5 282.8125 c 4,62,63
 1244.3125 309.375 1244.3125 309.375 1244.3125 525 c 4,64,65
 1242.75 768.75 1242.75 768.75 1247.4375 776.5625 c 4,66,67
 1256.8125 789.0625 1256.8125 789.0625 1257.59375 821.09375 c 132,-1,68
 1258.375 853.125 1258.375 853.125 1250.5625 862.5 c 4,69,70
 1239.625 876.5625 1239.625 876.5625 1239.625 910.15625 c 132,-1,71
 1239.625 943.75 1239.625 943.75 1250.5625 947.65625 c 132,-1,72
 1261.5 951.5625 1261.5 951.5625 1261.5 960.9375 c 132,-1,73
 1261.5 970.3125 1261.5 970.3125 1288.0625 970.3125 c 4,74,75
 1316.1875 970.3125 1316.1875 970.3125 1375.5625 971.875 c 6,76,-1
 1434.9375 973.4375 l 5,77,-1
 1434.9375 1017.1875 l 5,78,-1
 1434.9375 1060.9375 l 5,79,-1
 1375.5625 1062.5 l 6,80,81
 1316.1875 1064.0625 1316.1875 1064.0625 1288.0625 1064.0625 c 4,82,83
 1261.5 1064.0625 1261.5 1064.0625 1261.5 1076.5625 c 132,-1,84
 1261.5 1089.0625 1261.5 1089.0625 1245.875 1090.625 c 4,85,86
 1233.375 1092.1875 1233.375 1092.1875 1231.03125 1101.5625 c 132,-1,87
 1228.6875 1110.9375 1228.6875 1110.9375 1228.6875 1154.6875 c 4,88,89
 1228.6875 1196.875 1228.6875 1196.875 1226.34375 1206.25 c 132,-1,90
 1224 1215.625 1224 1215.625 1214.625 1217.1875 c 4,91,92
 1194.3125 1220.3125 1194.3125 1220.3125 1163.84375 1204.6875 c 132,-1,93
 1133.375 1189.0625 1133.375 1189.0625 1130.25 1175 c 4,94,95
 1128.6875 1162.5 1128.6875 1162.5 1120.875 1160.15625 c 132,-1,96
 1113.0625 1157.8125 1113.0625 1157.8125 1078.6875 1154.6875 c 4,97,98
 1027.125 1153.125 1027.125 1153.125 875.5625 1157.8125 c 6,99,-1
 722.4375 1162.5 l 5,100,-1
 719.3125 1184.375 l 6,101,102
 716.1875 1198.4375 716.1875 1198.4375 709.9375 1201.5625 c 132,-1,103
 703.6875 1204.6875 703.6875 1204.6875 681.8125 1204.6875 c 4,104,105
 658.375 1204.6875 658.375 1204.6875 653.6875 1201.5625 c 132,-1,106
 649 1198.4375 649 1198.4375 649 1182.8125 c 6,107,-1
 649 1160.9375 l 5,108,-1
 549 1160.9375 l 6,109,110
 447.4375 1160.9375 447.4375 1160.9375 447.4375 1171.09375 c 132,-1,111
 447.4375 1181.25 447.4375 1181.25 372.4375 1185.9375 c 4,112,113
 284.9375 1190.625 284.9375 1190.625 130.25 1229.6875 c 4,114,115
 119.3125 1232.8125 119.3125 1232.8125 97.4375 1225 c 4,0,1
95.875 1187.5 m 4,116,117
 100.5625 1193.75 100.5625 1193.75 109.9375 1195.3125 c 132,-1,118
 119.3125 1196.875 119.3125 1196.875 126.34375 1193.75 c 132,-1,119
 133.375 1190.625 133.375 1190.625 133.375 1184.375 c 4,120,121
 131.8125 1176.5625 131.8125 1176.5625 131.8125 1064.0625 c 6,122,-1
 130.25 951.5625 l 5,123,-1
 109.9375 953.125 l 5,124,-1
 91.1875 956.25 l 5,125,-1
 88.0625 1067.1875 l 6,126,127
 86.5 1178.125 86.5 1178.125 95.875 1187.5 c 4,116,117
152.125 1182.8125 m 4,128,129
 152.125 1195.3125 152.125 1195.3125 188.0625 1182.8125 c 6,130,-1
 199 1178.125 l 5,131,132
 197.4375 1176.5625 197.4375 1176.5625 178.6875 1176.5625 c 4,133,134
 152.125 1176.5625 152.125 1176.5625 152.125 1182.8125 c 4,128,129
656.8125 809.375 m 4,135,136
 656.8125 851.5625 656.8125 851.5625 659.15625 858.59375 c 132,-1,137
 661.5 865.625 661.5 865.625 674 865.625 c 260,138,139
 686.5 865.625 686.5 865.625 689.625 861.71875 c 132,-1,140
 692.75 857.8125 692.75 857.8125 692.75 840.625 c 4,141,142
 692.75 817.1875 692.75 817.1875 702.125 792.96875 c 132,-1,143
 711.5 768.75 711.5 768.75 725.5625 757.8125 c 4,144,145
 734.9375 750 734.9375 750 735.71875 750.78125 c 132,-1,146
 736.5 751.5625 736.5 751.5625 731.8125 760.9375 c 4,147,148
 725.5625 776.5625 725.5625 776.5625 722.4375 820.3125 c 6,149,-1
 719.3125 865.625 l 5,150,-1
 786.5 865.625 l 6,151,152
 833.375 865.625 833.375 865.625 847.4375 862.5 c 132,-1,153
 861.5 859.375 861.5 859.375 875.5625 846.875 c 132,-1,154
 889.625 834.375 889.625 834.375 891.96875 825.78125 c 132,-1,155
 894.3125 817.1875 894.3125 817.1875 892.75 790.625 c 4,156,157
 889.625 751.5625 889.625 751.5625 875.5625 735.9375 c 4,158,159
 866.1875 725 866.1875 725 851.34375 723.4375 c 132,-1,160
 836.5 721.875 836.5 721.875 772.4375 723.4375 c 4,161,162
 688.0625 728.125 688.0625 728.125 672.4375 739.0625 c 132,-1,163
 656.8125 750 656.8125 750 656.8125 809.375 c 4,135,136
EndSplineSet
Validated: 41
EndChar

StartChar: uniE013
Encoding: 57363 57363 19
Width: 1280
GlyphClass: 2
Flags: W
LayerCount: 2
Fore
SplineSet
341 812 m 0,0,1
 338 799 338 799 318 795 c 128,-1,2
 298 791 298 791 284 771 c 0,3,4
 267 746 267 746 250 701.5 c 128,-1,5
 233 657 233 657 233 636 c 0,6,7
 233 618 233 618 239 611 c 128,-1,8
 245 604 245 604 272 590 c 0,9,10
 345 552 345 552 337 504 c 0,11,12
 333 479 333 479 298 404 c 0,13,14
 236 269 236 269 232 187 c 2,15,-1
 230 144 l 1,16,-1
 253 144 l 2,17,18
 276 144 276 144 282 135 c 0,19,20
 286 129 286 129 403 103.5 c 128,-1,21
 520 78 520 78 546 77 c 0,22,23
 551 77 551 77 554.5 80 c 128,-1,24
 558 83 558 83 558 88 c 0,25,26
 558 98 558 98 551 98 c 0,27,28
 526 98 526 98 522.5 152 c 128,-1,29
 519 206 519 206 541 257 c 0,30,31
 559 300 559 300 564.5 324.5 c 128,-1,32
 570 349 570 349 583 388 c 2,33,-1
 596 427 l 1,34,-1
 709 425 l 2,35,36
 823 423 823 423 865 428 c 2,37,-1
 907 434 l 1,38,-1
 905 489 l 2,39,40
 902 544 902 544 914 561 c 2,41,-1
 925 579 l 1,42,-1
 1062 579 l 1,43,-1
 1199 579 l 1,44,-1
 1202 669 l 2,45,46
 1204 748 1204 748 1201.5 770 c 128,-1,47
 1199 792 1199 792 1185.5 795.5 c 128,-1,48
 1172 799 1172 799 1172 809 c 128,-1,49
 1172 819 1172 819 1153 819 c 128,-1,50
 1134 819 1134 819 1123 809 c 0,51,52
 1114 801 1114 801 947.5 797 c 128,-1,53
 781 793 781 793 546 796 c 0,54,55
 429 797 429 797 405.5 799.5 c 128,-1,56
 382 802 382 802 379 812 c 0,57,58
 376 826 376 826 360.5 826 c 128,-1,59
 345 826 345 826 341 812 c 0,0,1
666 559 m 0,60,61
 695 584 695 584 713 578 c 0,62,63
 721 575 721 575 719 566 c 0,64,65
 716 545 716 545 725 521 c 128,-1,66
 734 497 734 497 749 484 c 0,67,68
 771 465 771 465 795 465 c 0,69,70
 806 465 806 465 802 473 c 0,71,72
 797 480 797 480 784 480 c 0,73,74
 767 480 767 480 754 501 c 128,-1,75
 741 522 741 522 743 546 c 2,76,-1
 745 575 l 1,77,-1
 802 577 l 2,78,79
 843 579 843 579 853 576.5 c 128,-1,80
 863 574 863 574 871 561 c 0,81,82
 883 543 883 543 881 495 c 2,83,-1
 879 448 l 1,84,-1
 787 446 l 2,85,86
 696 444 696 444 673 448 c 0,87,88
 652 452 652 452 642.5 471.5 c 128,-1,89
 633 491 633 491 639.5 516 c 128,-1,90
 646 541 646 541 666 559 c 0,60,61
EndSplineSet
Validated: 41
EndChar

StartChar: uniE018
Encoding: 57368 57368 20
Width: 2483
GlyphClass: 2
Flags: W
LayerCount: 2
Fore
SplineSet
1614 833 m 0,0,1
 1610 821 1610 821 1610 817.5 c 128,-1,2
 1610 814 1610 814 1596 795 c 2,3,-1
 1582 775 l 1,4,-1
 1441 775 l 2,5,6
 1341 775 1341 775 1320 776.5 c 128,-1,7
 1299 778 1299 778 1297.5 784 c 128,-1,8
 1296 790 1296 790 1274.5 791 c 128,-1,9
 1253 792 1253 792 1149 791 c 0,10,11
 1003 790 1003 790 966 792 c 2,12,-1
 929 795 l 1,13,-1
 929 816 l 1,14,-1
 929 837 l 1,15,-1
 904 836 l 2,16,17
 879 835 879 835 842 816.5 c 128,-1,18
 805 798 805 798 803 786 c 0,19,20
 802 779 802 779 797.5 777 c 128,-1,21
 793 775 793 775 775 775 c 256,22,23
 757 775 757 775 742.5 771 c 128,-1,24
 728 767 728 767 696 752 c 2,25,-1
 645 729 l 1,26,-1
 575 732 l 2,27,28
 528 734 528 734 374.5 747 c 128,-1,29
 221 760 221 760 198 764 c 0,30,31
 186 766 186 766 176 753 c 0,32,33
 169 743 169 743 167.5 725.5 c 128,-1,34
 166 708 166 708 166 632 c 0,35,36
 166 554 166 554 167 538 c 128,-1,37
 168 522 168 522 176 514 c 256,38,39
 184 506 184 506 193 503.5 c 128,-1,40
 202 501 202 501 234 507 c 128,-1,41
 266 513 266 513 311 524.5 c 128,-1,42
 356 536 356 536 452 562 c 2,43,-1
 667 621 l 1,44,-1
 752 622 l 1,45,-1
 837 623 l 1,46,-1
 859 607 l 2,47,48
 881 591 881 591 888.5 579 c 128,-1,49
 896 567 896 567 893 553 c 0,50,51
 890 538 890 538 842 461 c 0,52,53
 806 403 806 403 801.5 392.5 c 128,-1,54
 797 382 797 382 804 377 c 0,55,56
 826 363 826 363 865 344 c 128,-1,57
 904 325 904 325 906 327 c 0,58,59
 909 330 909 330 909 339 c 0,60,61
 909 347 909 347 940.5 420.5 c 128,-1,62
 972 494 972 494 979 502 c 0,63,64
 983 508 983 508 1002 496 c 0,65,66
 1015 487 1015 487 1026 485.5 c 128,-1,67
 1037 484 1037 484 1077 485 c 2,68,-1
 1132 485 l 1,69,-1
 1148 503 l 2,70,71
 1158 516 1158 516 1164 519 c 128,-1,72
 1170 522 1170 522 1185.5 522 c 128,-1,73
 1201 522 1201 522 1205 520 c 128,-1,74
 1209 518 1209 518 1211 509 c 0,75,76
 1219 473 1219 473 1221 502 c 0,77,78
 1224 538 1224 538 1234 507 c 0,79,80
 1242 480 1242 480 1263 380 c 0,81,82
 1330 53 1330 53 1334 49 c 0,83,84
 1337 46 1337 46 1386 59 c 0,85,86
 1406 64 1406 64 1416 67.5 c 128,-1,87
 1426 71 1426 71 1431 75 c 128,-1,88
 1436 79 1436 79 1434 83.5 c 128,-1,89
 1432 88 1432 88 1426 95 c 0,90,91
 1417 105 1417 105 1373 316.5 c 128,-1,92
 1329 528 1329 528 1335 533 c 0,93,94
 1340 538 1340 538 1337 559 c 0,95,96
 1331 594 1331 594 1335.5 599.5 c 128,-1,97
 1340 605 1340 605 1377 612 c 0,98,99
 1421 620 1421 620 1425 614.5 c 128,-1,100
 1429 609 1429 609 1447 610 c 0,101,102
 1473 611 1473 611 1479 609 c 128,-1,103
 1485 607 1485 607 1485 596 c 0,104,105
 1485 582 1485 582 1489.5 579.5 c 128,-1,106
 1494 577 1494 577 1495 504.5 c 128,-1,107
 1496 432 1496 432 1499 418 c 0,108,109
 1501 408 1501 408 1504.5 406 c 128,-1,110
 1508 404 1508 404 1523 403 c 128,-1,111
 1538 402 1538 402 1542.5 403.5 c 128,-1,112
 1547 405 1547 405 1550 413 c 0,113,114
 1554 426 1554 426 1554.5 500.5 c 128,-1,115
 1555 575 1555 575 1561.5 584 c 128,-1,116
 1568 593 1568 593 1568 602 c 0,117,118
 1568 609 1568 609 1573.5 610.5 c 128,-1,119
 1579 612 1579 612 1603 612 c 0,120,121
 1626 612 1626 612 1631.5 611 c 128,-1,122
 1637 610 1637 610 1637 604 c 0,123,124
 1637 596 1637 596 1653 596 c 0,125,126
 1662 596 1662 596 1666 598.5 c 128,-1,127
 1670 601 1670 601 1673 611 c 0,128,129
 1679 626 1679 626 1679 638 c 0,130,131
 1679 647 1679 647 1684 649 c 128,-1,132
 1689 651 1689 651 1717 652 c 2,133,-1
 1755 653 l 1,134,-1
 1755 669 l 1,135,-1
 1755 686 l 1,136,-1
 1718 686 l 1,137,-1
 1681 686 l 1,138,-1
 1679 736 l 2,139,140
 1676 787 1676 787 1665 816 c 0,141,142
 1658 837 1658 837 1654 841 c 128,-1,143
 1650 845 1650 845 1637 845 c 0,144,145
 1626 845 1626 845 1621.5 842.5 c 128,-1,146
 1617 840 1617 840 1614 833 c 0,0,1
235 654 m 2,147,-1
 235 729 l 1,148,-1
 250 729 l 2,149,150
 271 729 271 729 300.5 724 c 128,-1,151
 330 719 330 719 338 714 c 0,152,153
 348 707 348 707 395 704 c 0,154,155
 440 701 440 701 448.5 694 c 128,-1,156
 457 687 457 687 452 659 c 0,157,158
 447 633 447 633 436 608 c 2,159,-1
 425 584 l 1,160,-1
 361 567 l 2,161,162
 297 549 297 549 290 549 c 128,-1,163
 283 549 283 549 274.5 558.5 c 128,-1,164
 266 568 266 568 256 568 c 0,165,166
 242 568 242 568 238.5 581.5 c 128,-1,167
 235 595 235 595 235 654 c 2,147,-1
1433 703 m 0,168,169
 1424 704 1424 704 1433 704 c 0,170,171
 1440 705 1440 705 1453 705 c 2,172,-1
 1475 703 l 1,173,174
 1475 703 1475 703 1473 703 c 2,175,176
 1453 701 1453 701 1433 703 c 0,168,169
1565 703 m 0,177,178
 1553 704 1553 704 1566 704 c 0,179,180
 1572 705 1572 705 1584 705 c 2,181,-1
 1609 703 l 1,182,183
 1609 703 1609 703 1606 703 c 2,184,185
 1587 701 1587 701 1565 703 c 0,177,178
504 689 m 0,186,187
 513 697 513 697 544 697 c 0,188,189
 570 697 570 697 579 691 c 128,-1,190
 588 685 588 685 592 666 c 0,191,192
 596 643 596 643 585 630.5 c 128,-1,193
 574 618 574 618 544 614 c 0,194,195
 503 607 503 607 495 638 c 0,196,197
 487 675 487 675 504 689 c 0,186,187
609 671.5 m 128,-1,199
 609 679 609 679 613.5 679 c 128,-1,200
 618 679 618 679 618 674.5 c 128,-1,201
 618 670 618 670 613.5 667 c 128,-1,198
 609 664 609 664 609 671.5 c 128,-1,199
997 542 m 0,202,203
 1008 565 1008 565 1017 563 c 128,-1,204
 1026 561 1026 561 1026 535 c 0,205,206
 1027 518 1027 518 1035 506 c 0,207,208
 1045 491 1045 491 1050 495 c 0,209,210
 1052 496 1052 496 1049 502 c 0,211,212
 1039 526 1039 526 1038 532.5 c 128,-1,213
 1037 539 1037 539 1042.5 548.5 c 128,-1,214
 1048 558 1048 558 1055.5 559.5 c 128,-1,215
 1063 561 1063 561 1103 561 c 0,216,217
 1141 561 1141 561 1148.5 559.5 c 128,-1,218
 1156 558 1156 558 1157 551 c 0,219,220
 1158 541 1158 541 1144 515 c 2,221,-1
 1129 490 l 1,222,-1
 1077 490 l 2,223,224
 1040 490 1040 490 1029 491.5 c 128,-1,225
 1018 493 1018 493 1005 502 c 0,226,227
 987 514 987 514 987 518 c 128,-1,228
 987 522 987 522 997 542 c 0,202,203
EndSplineSet
Validated: 41
EndChar

StartChar: uniE019
Encoding: 57369 57369 21
Width: 2790
GlyphClass: 2
Flags: W
LayerCount: 2
Fore
SplineSet
1145 724.5 m 128,-1,1
 1135 721 1135 721 1125.5 705.5 c 128,-1,2
 1116 690 1116 690 1116 678 c 0,3,4
 1116 669 1116 669 1108.5 663.5 c 128,-1,5
 1101 658 1101 658 1071 642 c 0,6,7
 1026 619 1026 619 995 608 c 0,8,9
 972 601 972 601 966 596 c 128,-1,10
 960 591 960 591 951 575 c 2,11,-1
 940 551 l 1,12,-1
 796 516 l 2,13,14
 653 480 653 480 645.5 482.5 c 128,-1,15
 638 485 638 485 601 476 c 0,16,17
 566 467 566 467 560 467.5 c 128,-1,18
 554 468 554 468 554 478 c 0,19,20
 554 490 554 490 560 490 c 0,21,22
 576 490 576 490 654.5 528.5 c 128,-1,23
 733 567 733 567 740 578 c 0,24,25
 748 592 748 592 731.5 593 c 128,-1,26
 715 594 715 594 646 587 c 0,27,28
 557 577 557 577 545 577.5 c 128,-1,29
 533 578 533 578 526 576 c 0,30,31
 516 572 516 572 481.5 568 c 128,-1,32
 447 564 447 564 439 566 c 0,33,34
 429 569 429 569 423 564 c 128,-1,35
 417 559 417 559 373.5 556.5 c 128,-1,36
 330 554 330 554 311.5 549.5 c 128,-1,37
 293 545 293 545 208 540 c 0,38,39
 153 538 153 538 136.5 535.5 c 128,-1,40
 120 533 120 533 116 528 c 0,41,42
 110 519 110 519 111.5 350 c 128,-1,43
 113 181 113 181 118 177 c 0,44,45
 121 174 121 174 169 190 c 128,-1,46
 217 206 217 206 230 214 c 0,47,48
 236 218 236 218 245 240 c 0,49,50
 258 269 258 269 274 289.5 c 128,-1,51
 290 310 290 310 304 314 c 0,52,53
 320 318 320 318 491 361 c 0,54,55
 662 403 662 403 667 408 c 0,56,57
 670 412 670 412 771.5 439 c 128,-1,58
 873 466 873 466 876 464 c 0,59,60
 877 463 877 463 872 453 c 0,61,62
 868 445 868 445 872 443 c 0,63,64
 875 442 875 442 879 448 c 0,65,66
 882 453 882 453 898 453 c 0,67,68
 911 453 911 453 923.5 442.5 c 128,-1,69
 936 432 936 432 937 421 c 0,70,71
 937 413 937 413 894 330 c 0,72,73
 864 270 864 270 858.5 256 c 128,-1,74
 853 242 853 242 858 232 c 1,75,76
 858 232 858 232 858 230 c 1,77,78
 862 220 862 220 873 216.5 c 128,-1,79
 884 213 884 213 947 201 c 0,80,81
 955 200 955 200 960 199 c 0,82,83
 1014 188 1014 188 1022 191 c 0,84,85
 1027 193 1027 193 1027 195.5 c 128,-1,86
 1027 198 1027 198 1023 205 c 0,87,88
 1010 225 1010 225 1014 243 c 128,-1,89
 1018 261 1018 261 1051 327 c 0,90,91
 1093 411 1093 411 1103 416 c 128,-1,92
 1113 421 1113 421 1168 421 c 0,93,94
 1216 420 1216 420 1231.5 426 c 128,-1,95
 1247 432 1247 432 1276 462 c 0,96,97
 1294 480 1294 480 1302 485 c 128,-1,98
 1310 490 1310 490 1321 490 c 0,99,100
 1338 490 1338 490 1338 485 c 128,-1,101
 1338 480 1338 480 1415 482 c 0,102,103
 1661 490 1661 490 1668 486 c 0,104,105
 1670 485 1670 485 1670 482 c 0,106,107
 1670 477 1670 477 1714 476.5 c 128,-1,108
 1758 476 1758 476 1957 477 c 0,109,110
 2244 480 2244 480 2261 483 c 0,111,112
 2274 485 2274 485 2276.5 483.5 c 128,-1,113
 2279 482 2279 482 2279 471 c 0,114,115
 2279 462 2279 462 2280.5 459.5 c 128,-1,116
 2282 457 2282 457 2289 458 c 0,117,118
 2299 460 2299 460 2298 471 c 128,-1,119
 2297 482 2297 482 2302 485 c 128,-1,120
 2307 488 2307 488 2594 487 c 128,-1,121
 2881 486 2881 486 2889 483 c 0,122,123
 2899 479 2899 479 2920 482.5 c 128,-1,124
 2941 486 2941 486 2952 494 c 0,125,126
 2966 504 2966 504 2966 515 c 128,-1,127
 2966 526 2966 526 2968.5 533 c 128,-1,128
 2971 540 2971 540 2954 557 c 0,129,130
 2941 569 2941 569 2934.5 571 c 128,-1,131
 2928 573 2928 573 2905 572 c 0,132,133
 2877 571 2877 571 2878 575 c 0,134,135
 2883 579 2883 579 2923 582 c 2,136,-1
 2963 584 l 1,137,-1
 2966 602 l 2,138,139
 2969 619 2969 619 2966 634 c 0,140,141
 2964 645 2964 645 2959.5 647 c 128,-1,142
 2955 649 2955 649 2930 650 c 0,143,144
 2908 651 2908 651 2901 653 c 128,-1,145
 2894 655 2894 655 2888 664 c 0,146,147
 2878 676 2878 676 2873.5 681.5 c 128,-1,148
 2869 687 2869 687 2869 691.5 c 128,-1,149
 2869 696 2869 696 2852 701 c 0,150,151
 2840 704 2840 704 2831.5 703 c 128,-1,152
 2823 702 2823 702 2823 697 c 0,153,154
 2823 693 2823 693 2817 687 c 128,-1,155
 2811 681 2811 681 2804 667 c 2,156,-1
 2796 653 l 1,157,-1
 2700 650 l 2,158,159
 2604 648 2604 648 2137 650 c 2,160,-1
 1670 652 l 1,161,-1
 1667 670 l 2,162,163
 1662 697 1662 697 1648 683 c 0,164,165
 1643 678 1643 678 1632.5 684 c 128,-1,166
 1622 690 1622 690 1620 684.5 c 128,-1,167
 1618 679 1618 679 1612 679 c 128,-1,168
 1606 679 1606 679 1604 684.5 c 128,-1,169
 1602 690 1602 690 1591.5 684 c 128,-1,170
 1581 678 1581 678 1577 684 c 128,-1,171
 1573 690 1573 690 1563 684 c 128,-1,172
 1553 678 1553 678 1549.5 684 c 128,-1,173
 1546 690 1546 690 1536 684 c 128,-1,174
 1526 678 1526 678 1519.5 683.5 c 128,-1,175
 1513 689 1513 689 1506.5 683.5 c 128,-1,176
 1500 678 1500 678 1490 684 c 128,-1,177
 1480 690 1480 690 1476.5 684 c 128,-1,178
 1473 678 1473 678 1463 684 c 128,-1,179
 1453 690 1453 690 1448 684.5 c 128,-1,180
 1443 679 1443 679 1434 684.5 c 128,-1,181
 1425 690 1425 690 1421 684 c 128,-1,182
 1417 678 1417 678 1407 684 c 128,-1,183
 1397 690 1397 690 1393.5 684 c 128,-1,184
 1390 678 1390 678 1380 684 c 128,-1,185
 1370 690 1370 690 1365.5 683.5 c 128,-1,186
 1361 677 1361 677 1353.5 683.5 c 128,-1,187
 1346 690 1346 690 1336.5 684 c 128,-1,188
 1327 678 1327 678 1323 684 c 128,-1,189
 1319 690 1319 690 1310 684.5 c 128,-1,190
 1301 679 1301 679 1298 683 c 0,191,192
 1294 690 1294 690 1288 687.5 c 128,-1,193
 1282 685 1282 685 1282 676 c 0,194,195
 1282 664 1282 664 1276 665 c 0,196,197
 1269 666 1269 666 1265 679 c 0,198,199
 1261 689 1261 689 1256.5 690.5 c 128,-1,200
 1252 692 1252 692 1233 692 c 0,201,202
 1215 692 1215 692 1207 695 c 128,-1,203
 1199 698 1199 698 1187 708 c 0,204,205
 1171 722 1171 722 1163 725 c 128,-1,0
 1155 728 1155 728 1145 724.5 c 128,-1,1
2817 666 m 0,206,207
 2825 674 2825 674 2829 662 c 0,208,209
 2832 656 2832 656 2823 656 c 0,210,211
 2816 656 2816 656 2814 659 c 128,-1,212
 2812 662 2812 662 2817 666 c 0,206,207
2842 663 m 0,213,214
 2847 669 2847 669 2858.5 668.5 c 128,-1,215
 2870 668 2870 668 2873 661 c 0,216,217
 2874 658 2874 658 2869.5 657 c 128,-1,218
 2865 656 2865 656 2855 656 c 0,219,220
 2839 656 2839 656 2839 658 c 256,221,222
 2839 660 2839 660 2842 663 c 0,213,214
2306 580 m 0,223,224
 2306 584 2306 584 2348.5 585 c 128,-1,225
 2391 586 2391 586 2544 586 c 0,226,227
 2781 586 2781 586 2784 581.5 c 128,-1,228
 2787 577 2787 577 2800.5 577 c 128,-1,229
 2814 577 2814 577 2814 573.5 c 128,-1,230
 2814 570 2814 570 2554 570 c 2,231,232
 2554 570 2554 570 2425 570 c 2,233,234
 2366 570 2366 570 2332.5 570.5 c 128,-1,235
 2299 571 2299 571 2301 571 c 0,236,237
 2306 573 2306 573 2306 580 c 0,223,224
259 470 m 0,238,239
 258 500 258 500 263 501 c 0,240,241
 266 501 266 501 269 482 c 0,242,243
 272 462 272 462 285.5 443.5 c 128,-1,244
 299 425 299 425 315 417 c 2,245,-1
 334 408 l 1,246,-1
 314 402 l 2,247,248
 293 396 293 396 279 396 c 0,249,250
 270 395 270 395 267 398 c 128,-1,251
 264 401 264 401 262 416 c 0,252,253
 259 436 259 436 259 470 c 0,238,239
1151 478 m 1,254,255
 1156 487 1156 487 1163 488 c 128,-1,256
 1170 489 1170 489 1198 489 c 2,257,-1
 1238 487 l 1,258,-1
 1240 468 l 2,259,260
 1241 450 1241 450 1232 438 c 0,261,262
 1226 431 1226 431 1218.5 429 c 128,-1,263
 1211 427 1211 427 1184 427 c 0,264,265
 1144 427 1144 427 1137 434 c 0,266,267
 1133 439 1133 439 1130 447 c 128,-1,268
 1127 455 1127 455 1127 460.5 c 128,-1,269
 1127 466 1127 466 1130 466 c 0,270,271
 1135 466 1135 466 1135 460 c 128,-1,272
 1135 454 1135 454 1142 445 c 0,273,274
 1147 439 1147 439 1147.5 440 c 128,-1,275
 1148 441 1148 441 1146 452 c 0,276,277
 1143 467 1143 467 1151 478 c 1,254,255
EndSplineSet
Validated: 41
EndChar

StartChar: uniE01A
Encoding: 57370 57370 22
Width: 2714
GlyphClass: 2
Flags: W
LayerCount: 2
Fore
SplineSet
2422 777 m 128,-1,1
 2412 765 2412 765 2410 748 c 2,2,-1
 2407 730 l 1,3,-1
 2158 730 l 1,4,-1
 1910 729 l 1,5,-1
 1910 749 l 2,6,7
 1909 762 1909 762 1907 766.5 c 128,-1,8
 1905 771 1905 771 1894.5 775.5 c 128,-1,9
 1884 780 1884 780 1877.5 780 c 128,-1,10
 1871 780 1871 780 1853 774 c 256,11,12
 1835 768 1835 768 1822.5 767.5 c 128,-1,13
 1810 767 1810 767 1780 770 c 0,14,15
 1734 775 1734 775 1727.5 772.5 c 128,-1,16
 1721 770 1721 770 1721 777.5 c 128,-1,17
 1721 785 1721 785 1716 785 c 128,-1,18
 1711 785 1711 785 1712.5 772 c 128,-1,19
 1714 759 1714 759 1720.5 759 c 128,-1,20
 1727 759 1727 759 1729 749 c 2,21,-1
 1730 739 l 1,22,-1
 1400 739 l 1,23,-1
 1070 739 l 1,24,-1
 1052 722 l 2,25,26
 1039 710 1039 710 1034 708.5 c 128,-1,27
 1029 707 1029 707 1021 710 c 0,28,29
 1009 716 1009 716 1005 714.5 c 128,-1,30
 1001 713 1001 713 996 701 c 0,31,32
 990 687 990 687 996.5 683 c 128,-1,33
 1003 679 1003 679 990.5 666 c 128,-1,34
 978 653 978 653 978 643 c 0,35,36
 978 636 978 636 973 634.5 c 128,-1,37
 968 633 968 633 946 633 c 0,38,39
 913 633 913 633 904 627 c 0,40,41
 897 623 897 623 894.5 624 c 128,-1,42
 892 625 892 625 887 631 c 0,43,44
 880 641 880 641 867 641.5 c 128,-1,45
 854 642 854 642 847 632 c 0,46,47
 842 625 842 625 796.5 624 c 128,-1,48
 751 623 751 623 487 624 c 2,49,-1
 133 626 l 1,50,-1
 137 582 l 2,51,52
 141 527 141 527 137 314 c 2,53,-1
 136 284 l 1,54,-1
 168 285 l 2,55,56
 201 286 201 286 224 293 c 0,57,58
 435 352 435 352 669 415 c 128,-1,59
 903 478 903 478 904 475 c 0,60,61
 906 472 906 472 936 478.5 c 128,-1,62
 966 485 966 485 995 485 c 2,63,-1
 1023 485 l 1,64,-1
 1027 463 l 2,65,66
 1030 441 1030 441 1036 431 c 0,67,68
 1041 425 1041 425 1035.5 402.5 c 128,-1,69
 1030 380 1030 380 1003 295 c 0,70,71
 964 168 964 168 967 155 c 0,72,73
 968 146 968 146 976 140.5 c 128,-1,74
 984 135 984 135 1013 123.5 c 128,-1,75
 1042 112 1042 112 1053.5 109.5 c 128,-1,76
 1065 107 1065 107 1082 109 c 0,77,78
 1105 112 1105 112 1111.5 118.5 c 128,-1,79
 1118 125 1118 125 1113 142 c 0,80,81
 1109 152 1109 152 1114 172.5 c 128,-1,82
 1119 193 1119 193 1144 266 c 0,83,84
 1180 375 1180 375 1186 382 c 0,85,86
 1193 390 1193 390 1208 388 c 128,-1,87
 1223 386 1223 386 1230 377 c 0,88,89
 1239 363 1239 363 1259.5 359 c 128,-1,90
 1280 355 1280 355 1335 358 c 0,91,92
 1389 361 1389 361 1404.5 364.5 c 128,-1,93
 1420 368 1420 368 1423 379 c 0,94,95
 1426 387 1426 387 1435.5 388 c 128,-1,96
 1445 389 1445 389 1455 382 c 0,97,98
 1461 378 1461 378 1461 374.5 c 128,-1,99
 1461 371 1461 371 1456 358 c 0,100,101
 1448 340 1448 340 1451 338 c 0,102,103
 1454 334 1454 334 1462 348 c 0,104,105
 1465 355 1465 355 1469 365 c 0,106,107
 1478 386 1478 386 1486 395.5 c 128,-1,108
 1494 405 1494 405 1494 426 c 2,109,-1
 1494 447 l 1,110,-1
 1509 443 l 2,111,112
 1524 440 1524 440 1537 437 c 0,113,114
 1546 435 1546 435 1548 431 c 128,-1,115
 1550 427 1550 427 1550 412 c 0,116,117
 1550 389 1550 389 1553 361 c 2,118,-1
 1556 333 l 1,119,-1
 1571 333 l 2,120,121
 1581 333 1581 333 1584 335 c 128,-1,122
 1587 337 1587 337 1587 344 c 2,123,-1
 1587 356 l 1,124,-1
 1949 356 l 2,125,126
 2218 356 2218 356 2264.5 354.5 c 128,-1,127
 2311 353 2311 353 2311 347 c 0,128,129
 2311 340 2311 340 2318 338.5 c 128,-1,130
 2325 337 2325 337 2357 337 c 2,131,-1
 2402 337 l 1,132,-1
 2409 355 l 2,133,134
 2414 369 2414 369 2414.5 437 c 128,-1,135
 2415 505 2415 505 2411 523 c 0,136,137
 2409 531 2409 531 2405.5 533.5 c 128,-1,138
 2402 536 2402 536 2394 536 c 0,139,140
 2382 536 2382 536 2380.5 541.5 c 128,-1,141
 2379 547 2379 547 2387 556 c 0,142,143
 2394 563 2394 563 2405.5 563 c 128,-1,144
 2417 563 2417 563 2420.5 556.5 c 128,-1,145
 2424 550 2424 550 2444 547 c 0,146,147
 2457 545 2457 545 2460 546 c 128,-1,148
 2463 547 2463 547 2463 554 c 0,149,150
 2463 562 2463 562 2475 563 c 128,-1,151
 2487 564 2487 564 2546 559 c 0,152,153
 2594 555 2594 555 2602.5 560 c 128,-1,154
 2611 565 2611 565 2610 597 c 2,155,-1
 2608 630 l 1,156,-1
 2560 629 l 2,157,158
 2512 629 2512 629 2488 626 c 2,159,-1
 2463 623 l 1,160,-1
 2466 699 l 2,161,162
 2469 762 2469 762 2465.5 775.5 c 128,-1,163
 2462 789 2462 789 2444 789 c 0,164,0
 2432 789 2432 789 2422 777 c 128,-1,1
1752 758.5 m 128,-1,166
 1746 761 1746 761 1755 761 c 0,167,168
 1761 761 1761 761 1761 759 c 0,169,165
 1758 756 1758 756 1752 758.5 c 128,-1,166
1786 758 m 0,170,171
 1782 760 1782 760 1787 760 c 0,172,173
 1789 761 1789 761 1794 761 c 0,174,175
 1803 760 1803 760 1802 758 c 0,176,177
 1794 756 1794 756 1786 758 c 0,170,171
2412 674 m 128,-1,179
 2412 679 2412 679 2417 679 c 128,-1,180
 2422 679 2422 679 2422 674 c 128,-1,181
 2422 669 2422 669 2417 669 c 128,-1,178
 2412 669 2412 669 2412 674 c 128,-1,179
2435 674 m 128,-1,183
 2435 679 2435 679 2437.5 679 c 128,-1,184
 2440 679 2440 679 2442.5 674 c 128,-1,185
 2445 669 2445 669 2440 669 c 128,-1,182
 2435 669 2435 669 2435 674 c 128,-1,183
2036 649 m 0,186,187
 2039 656 2039 656 2065 655 c 0,188,189
 2083 654 2083 654 2087.5 652 c 128,-1,190
 2092 650 2092 650 2092 644 c 128,-1,191
 2092 638 2092 638 2087.5 636 c 128,-1,192
 2083 634 2083 634 2067 632 c 0,193,194
 2028 628 2028 628 2036 649 c 0,186,187
2165 648 m 0,195,196
 2168 656 2168 656 2190 656 c 0,197,198
 2219 656 2219 656 2222 645 c 0,199,200
 2223 639 2223 639 2212 635 c 0,201,202
 2205 633 2205 633 2194 632 c 0,203,204
 2177 631 2177 631 2169 635 c 128,-1,205
 2161 639 2161 639 2165 648 c 0,195,196
2288 649 m 0,206,207
 2293 655 2293 655 2315 655.5 c 128,-1,208
 2337 656 2337 656 2342 650 c 0,209,210
 2353 636 2353 636 2328 633 c 0,211,212
 2324 632 2324 632 2319 632 c 0,213,214
 2288 630 2288 630 2286 643 c 0,215,216
 2285 646 2285 646 2288 649 c 0,206,207
858 630 m 0,217,218
 864 637 864 637 867.5 637 c 128,-1,219
 871 637 871 637 876 630 c 1,220,221
 875 624 875 624 867 623 c 0,222,223
 855 623 855 623 855 626 c 0,224,225
 855 627 855 627 858 630 c 0,217,218
2523 614 m 128,-1,227
 2523 619 2523 619 2550.5 619 c 128,-1,228
 2578 619 2578 619 2578 614 c 128,-1,229
 2578 609 2578 609 2550.5 609 c 128,-1,226
 2523 609 2523 609 2523 614 c 128,-1,227
271 578 m 2,230,231
 362 580 362 580 587 581 c 2,232,-1
 813 582 l 1,233,-1
 796 559 l 2,234,235
 782 540 782 540 780.5 532 c 128,-1,236
 779 524 779 524 789 515 c 0,237,238
 795 509 795 509 799 508.5 c 128,-1,239
 803 508 803 508 813 512 c 0,240,241
 856 529 856 529 863 517 c 0,242,243
 864 514 864 514 856 511 c 0,244,245
 833 501 833 501 525 423 c 0,246,247
 182 338 182 338 181 339 c 128,-1,248
 180 340 180 340 185 393 c 0,249,250
 192 481 192 481 182 560 c 2,251,-1
 180 577 l 1,252,-1
 271 578 l 2,230,231
805 557 m 0,253,254
 817 574 817 574 822.5 578 c 128,-1,255
 828 582 828 582 840 582 c 0,256,257
 859 582 859 582 858 575 c 0,258,259
 858 573 858 573 853 570 c 0,260,261
 849 567 849 567 849 550 c 0,262,263
 849 539 849 539 846 535 c 128,-1,264
 843 531 843 531 831 527 c 0,265,266
 807 519 807 519 800 518.5 c 128,-1,267
 793 518 793 518 791 524 c 0,268,269
 788 532 788 532 805 557 c 0,253,254
2523 578 m 0,270,271
 2523 581 2523 581 2547.5 581.5 c 128,-1,272
 2572 582 2572 582 2575 579 c 0,273,274
 2581 573 2581 573 2568 572 c 0,275,276
 2562 571 2562 571 2549 572 c 0,277,278
 2523 573 2523 573 2523 578 c 0,270,271
2302 559 m 0,279,280
 2302 563 2302 563 2324 563 c 0,281,282
 2340 563 2340 563 2343 561.5 c 128,-1,283
 2346 560 2346 560 2344 550 c 0,284,285
 2342 536 2342 536 2330 532 c 0,286,287
 2317 527 2317 527 1993.5 530 c 128,-1,288
 1670 533 1670 533 1665 538.5 c 128,-1,289
 1660 544 1660 544 1687 547 c 0,290,291
 1713 550 1713 550 1761 550 c 0,292,293
 2302 552 2302 552 2302 559 c 0,279,280
1544 542 m 0,294,295
 1553 551 1553 551 1553 536 c 0,296,297
 1553 534 1553 534 1552 532 c 0,298,299
 1551 518 1551 518 1545 518 c 0,300,301
 1541 518 1541 518 1541 528 c 0,302,303
 1541 539 1541 539 1544 542 c 0,294,295
1317 490 m 0,304,305
 1320 494 1320 494 1371 494 c 2,306,-1
 1423 494 l 1,307,-1
 1422 445 l 2,308,309
 1420 399 1420 399 1418 387 c 128,-1,310
 1416 375 1416 375 1408 372 c 0,311,312
 1400 368 1400 368 1333 365 c 0,313,314
 1277 362 1277 362 1258.5 366 c 128,-1,315
 1240 370 1240 370 1232 386 c 0,316,317
 1229 393 1229 393 1227.5 408 c 128,-1,318
 1226 423 1226 423 1227 435.5 c 128,-1,319
 1228 448 1228 448 1232 448 c 256,320,321
 1236 448 1236 448 1237 470 c 0,322,323
 1237 487 1237 487 1239 486 c 0,324,325
 1242 480 1242 480 1254 480 c 0,326,327
 1263 480 1263 480 1266 475.5 c 128,-1,328
 1269 471 1269 471 1275 452 c 0,329,330
 1281 429 1281 429 1293.5 414 c 128,-1,331
 1306 399 1306 399 1321 396 c 0,332,333
 1332 394 1332 394 1332 395.5 c 128,-1,334
 1332 397 1332 397 1317 406 c 0,335,336
 1301 415 1301 415 1296 434.5 c 128,-1,337
 1291 454 1291 454 1294 469.5 c 128,-1,338
 1297 485 1297 485 1305.5 485 c 128,-1,339
 1314 485 1314 485 1317 490 c 0,304,305
EndSplineSet
Validated: 41
EndChar

StartChar: uniE01B
Encoding: 57371 57371 23
Width: 2022
GlyphClass: 2
Flags: W
LayerCount: 2
Fore
SplineSet
215 800 m 128,-1,1
 212 797 212 797 212 767 c 2,2,-1
 212 738 l 1,3,-1
 198 740 l 2,4,5
 190 741 190 741 187 739.5 c 128,-1,6
 184 738 184 738 184 732 c 0,7,8
 184 722 184 722 175 702 c 128,-1,9
 166 682 166 682 166 669.5 c 128,-1,10
 166 657 166 657 145 637 c 0,11,12
 128 620 128 620 126 613.5 c 128,-1,13
 124 607 124 607 134 598 c 0,14,15
 143 590 143 590 157 593 c 128,-1,16
 171 596 171 596 195 584 c 0,17,18
 228 570 228 570 359.5 527.5 c 128,-1,19
 491 485 491 485 505 485 c 0,20,21
 517 485 517 485 530 466 c 2,22,-1
 544 447 l 1,23,-1
 532 421 l 2,24,25
 521 395 521 395 479 327 c 2,26,-1
 438 259 l 1,27,-1
 438 226 l 2,28,29
 438 205 438 205 439.5 199.5 c 128,-1,30
 441 194 441 194 447 194 c 0,31,32
 454 194 454 194 449 180 c 0,33,34
 446 171 446 171 436 145 c 0,35,36
 415 97 415 97 415 90 c 0,37,38
 415 86 415 86 432.5 85 c 128,-1,39
 450 84 450 84 509 85 c 2,40,-1
 602 86 l 1,41,-1
 623 138 l 2,42,43
 640 178 640 178 647 188.5 c 128,-1,44
 654 199 654 199 667 199 c 0,45,46
 676 199 676 199 681.5 212 c 128,-1,47
 687 225 687 225 685 240 c 0,48,49
 682 252 682 252 710.5 316.5 c 128,-1,50
 739 381 739 381 743.5 387 c 128,-1,51
 748 393 748 393 805.5 393 c 128,-1,52
 863 393 863 393 878.5 399.5 c 128,-1,53
 894 406 894 406 909 437 c 0,54,55
 924 469 924 469 940 485 c 2,56,-1
 957 502 l 1,57,-1
 1044 512 l 2,58,59
 1131 523 1131 523 1132 521 c 128,-1,60
 1133 519 1133 519 1138 467 c 128,-1,61
 1143 415 1143 415 1145 413 c 128,-1,62
 1147 411 1147 411 1176.5 416 c 128,-1,63
 1206 421 1206 421 1210 428.5 c 128,-1,64
 1214 436 1214 436 1239 460 c 0,65,66
 1289 507 1289 507 1419 517 c 0,67,68
 1483 522 1483 522 1509 522 c 0,69,70
 1532 522 1532 522 1536.5 528 c 128,-1,71
 1541 534 1541 534 1541 566 c 2,72,-1
 1541 596 l 1,73,-1
 1558 596 l 2,74,75
 1575 596 1575 596 1584 602.5 c 128,-1,76
 1593 609 1593 609 1661.5 609 c 128,-1,77
 1730 609 1730 609 1732.5 616 c 128,-1,78
 1735 623 1735 623 1808 623 c 2,79,80
 1808 623 1808 623 1813 623 c 2,81,82
 1868 623 1868 623 1877.5 626.5 c 128,-1,83
 1887 630 1887 630 1887 651 c 2,84,85
 1887 651 1887 651 1887 653.5 c 1,86,-1
 1887 655 l 2,87,88
 1887 676 1887 676 1877.5 679.5 c 128,-1,89
 1868 683 1868 683 1813 683 c 2,90,91
 1813 683 1813 683 1808 683 c 2,92,93
 1735 683 1735 683 1733.5 687 c 128,-1,94
 1732 691 1732 691 1660.5 694.5 c 128,-1,95
 1589 698 1589 698 1579 704.5 c 128,-1,96
 1569 711 1569 711 1553 711 c 0,97,98
 1542 711 1542 711 1539 713.5 c 128,-1,99
 1536 716 1536 716 1534 727 c 0,100,101
 1529 753 1529 753 1523 759.5 c 128,-1,102
 1517 766 1517 766 1498 766 c 0,103,104
 1475 766 1475 766 1462 757 c 128,-1,105
 1449 748 1449 748 1413 738 c 0,106,107
 1388 732 1388 732 1323 730.5 c 128,-1,108
 1258 729 1258 729 951 729 c 0,109,110
 673 729 673 729 598 730.5 c 128,-1,111
 523 732 523 732 519 736 c 0,112,113
 514 743 514 743 468 752 c 128,-1,114
 422 761 422 761 365 782 c 0,115,116
 325 797 325 797 309.5 800 c 128,-1,117
 294 803 294 803 263 803 c 0,118,0
 218 803 218 803 215 800 c 128,-1,1
244 763.5 m 128,-1,120
 244 775 244 775 253 775 c 128,-1,121
 262 775 262 775 259.5 763.5 c 128,-1,122
 257 752 257 752 250.5 752 c 128,-1,119
 244 752 244 752 244 763.5 c 128,-1,120
282 765 m 2,123,-1
 271 777 l 1,124,-1
 301 775 l 2,125,126
 330 773 330 773 351 763 c 2,127,-1
 371 753 l 1,128,-1
 332 753 l 2,129,130
 304 753 304 753 296.5 754.5 c 128,-1,131
 289 756 289 756 282 765 c 2,123,-1
1296 687.5 m 128,-1,133
 1296 692 1296 692 1358.5 692 c 128,-1,134
 1421 692 1421 692 1421 687.5 c 128,-1,135
 1421 683 1421 683 1358.5 683 c 128,-1,132
 1296 683 1296 683 1296 687.5 c 128,-1,133
1430 687.5 m 128,-1,137
 1430 692 1430 692 1441 692 c 128,-1,138
 1452 692 1452 692 1455 688 c 0,139,140
 1457 686 1457 686 1453 684 c 0,141,142
 1449 683 1449 683 1444 683 c 0,143,136
 1430 683 1430 683 1430 687.5 c 128,-1,137
148 631 m 2,144,-1
 164 647 l 1,145,-1
 165 628 l 2,146,147
 166 611 166 611 160.5 602.5 c 128,-1,148
 155 594 155 594 146 597 c 0,149,150
 124 606 124 606 148 631 c 2,144,-1
785 467 m 0,151,152
 812 493 812 493 811 482 c 0,153,154
 811 480 811 480 809 477 c 0,155,156
 800 455 800 455 805 434 c 128,-1,157
 810 413 810 413 827 407 c 0,158,159
 834 404 834 404 824 403 c 0,160,161
 818 402 818 402 804 402 c 0,162,163
 780 402 780 402 774.5 403.5 c 128,-1,164
 769 405 769 405 765 413 c 0,165,166
 754 438 754 438 785 467 c 0,151,152
829 477 m 0,167,168
 836 484 836 484 855 484.5 c 128,-1,169
 874 485 874 485 885 478 c 0,170,171
 895 471 895 471 895 450 c 0,172,173
 895 430 895 430 890 421 c 128,-1,174
 885 412 885 412 872 406 c 0,175,176
 863 403 863 403 857.5 403.5 c 128,-1,177
 852 404 852 404 842 409 c 0,178,179
 826 417 826 417 821 428 c 0,180,181
 816 437 816 437 818.5 452.5 c 128,-1,182
 821 468 821 468 829 477 c 0,167,168
EndSplineSet
Validated: 41
EndChar

StartChar: uniE01C
Encoding: 57372 57372 24
Width: 2406
GlyphClass: 2
Flags: W
LayerCount: 2
Fore
SplineSet
1830 784 m 0,0,1
 1822 780 1822 780 1822 751 c 2,2,-1
 1822 722 l 1,3,-1
 1949 723 l 2,4,5
 2076 723 2076 723 2076 722 c 0,6,7
 2076 719 2076 719 2040.5 703.5 c 128,-1,8
 2005 688 2005 688 2000 688 c 0,9,10
 1993 688 1993 688 1989 681 c 0,11,12
 1986 676 1986 676 1979 676.5 c 128,-1,13
 1972 677 1972 677 1946 685 c 0,14,15
 1921 693 1921 693 1903 695 c 128,-1,16
 1885 697 1885 697 1847 697 c 0,17,18
 1787 697 1787 697 1782 702 c 128,-1,19
 1777 707 1777 707 1716.5 709.5 c 128,-1,20
 1656 712 1656 712 1651 719 c 0,21,22
 1646 725 1646 725 1639 724.5 c 128,-1,23
 1632 724 1632 724 1630 718 c 256,24,25
 1628 712 1628 712 1592 709 c 0,26,27
 1569 707 1569 707 1562 704.5 c 128,-1,28
 1555 702 1555 702 1553 697 c 0,29,30
 1551 688 1551 688 1541 688 c 128,-1,31
 1531 688 1531 688 1531 678.5 c 128,-1,32
 1531 669 1531 669 1541.5 670.5 c 128,-1,33
 1552 672 1552 672 1554 664 c 0,34,35
 1555 655 1555 655 1546 656 c 0,36,37
 1536 656 1536 656 1530 665 c 0,38,39
 1525 672 1525 672 1515.5 673 c 128,-1,40
 1506 674 1506 674 1464 672 c 0,41,42
 1391 669 1391 669 1316 672 c 2,43,-1
 1255 675 l 1,44,-1
 1255 692 l 2,45,46
 1255 710 1255 710 1246 720 c 0,47,48
 1240 728 1240 728 1229.5 729.5 c 128,-1,49
 1219 731 1219 731 1177 733 c 2,50,-1
 1116 735 l 1,51,-1
 1092 753 l 2,52,53
 1072 768 1072 768 1062 770 c 128,-1,54
 1052 772 1052 772 1042 762 c 0,55,56
 1037 756 1037 756 1035 746.5 c 128,-1,57
 1033 737 1033 737 1033 710 c 0,58,59
 1033 668 1033 668 1040 663 c 0,60,61
 1044 660 1044 660 1035 660 c 0,62,63
 1025 658 1025 658 987 659 c 0,64,65
 944 660 944 660 935.5 659 c 128,-1,66
 927 658 927 658 927 651 c 0,67,68
 927 645 927 645 923.5 643.5 c 128,-1,69
 920 642 920 642 909 642 c 0,70,71
 890 642 890 642 890 646.5 c 128,-1,72
 890 651 890 651 860 651 c 0,73,74
 841 651 841 651 835 649 c 128,-1,75
 829 647 829 647 825 641 c 0,76,77
 819 630 819 630 821.5 627.5 c 128,-1,78
 824 625 824 625 807 624 c 0,79,80
 765 620 765 620 542 619 c 2,81,-1
 311 619 l 1,82,-1
 300 630 l 2,83,84
 283 648 283 648 225 654 c 0,85,86
 205 656 205 656 198.5 654.5 c 128,-1,87
 192 653 192 653 185 647 c 0,88,89
 175 637 175 637 178 624 c 0,90,91
 185 591 185 591 185 483 c 128,-1,92
 185 375 185 375 178 305 c 2,93,-1
 174 271 l 1,94,-1
 217 274 l 2,95,96
 260 277 260 277 278.5 283.5 c 128,-1,97
 297 290 297 290 309 306 c 256,98,99
 321 322 321 322 462.5 413.5 c 128,-1,100
 604 505 604 505 619 511 c 0,101,102
 630 516 630 516 691 517 c 128,-1,103
 752 518 752 518 794 514 c 0,104,105
 813 512 813 512 818.5 510 c 128,-1,106
 824 508 824 508 824 502 c 0,107,108
 825 492 825 492 830 490 c 128,-1,109
 835 488 835 488 858 486 c 0,110,111
 886 485 886 485 888.5 492 c 128,-1,112
 891 499 891 499 908.5 499 c 128,-1,113
 926 499 926 499 928 490 c 0,114,115
 930 483 930 483 938.5 481.5 c 128,-1,116
 947 480 947 480 985 480 c 0,117,118
 1021 480 1021 480 1031 478.5 c 128,-1,119
 1041 477 1041 477 1046 471 c 0,120,121
 1054 462 1054 462 1083 461 c 128,-1,122
 1112 460 1112 460 1115 463 c 0,123,124
 1128 477 1128 477 1154 437 c 0,125,126
 1172 407 1172 407 1183 400 c 0,127,128
 1199 389 1199 389 1197.5 358.5 c 128,-1,129
 1196 328 1196 328 1179 322 c 0,130,131
 1171 319 1171 319 1150.5 287 c 128,-1,132
 1130 255 1130 255 1120 229 c 0,133,134
 1108 196 1108 196 1102 169.5 c 128,-1,135
 1096 143 1096 143 1100.5 138.5 c 128,-1,136
 1105 134 1105 134 1173 126 c 128,-1,137
 1241 118 1241 118 1246 121 c 128,-1,138
 1251 124 1251 124 1248 150 c 2,139,-1
 1244 176 l 1,140,-1
 1285 250 l 1,141,-1
 1325 324 l 1,142,-1
 1372 321 l 2,143,144
 1454 315 1454 315 1474 345 c 0,145,146
 1481 356 1481 356 1494 361 c 0,147,148
 1503 364 1503 364 1506 369 c 128,-1,149
 1509 374 1509 374 1511 387 c 0,150,151
 1514 401 1514 401 1517 405 c 128,-1,152
 1520 409 1520 409 1528 410 c 0,153,154
 1535 411 1535 411 1538 414.5 c 128,-1,155
 1541 418 1541 418 1543 430 c 2,156,-1
 1546 448 l 1,157,-1
 1571 448 l 1,158,-1
 1596 448 l 1,159,-1
 1596 428 l 2,160,161
 1596 393 1596 393 1584 393 c 0,162,163
 1573 393 1573 393 1570 368 c 128,-1,164
 1567 343 1567 343 1568 266 c 0,165,166
 1568 164 1568 164 1572 137 c 2,167,-1
 1575 109 l 1,168,-1
 1673 108 l 1,169,-1
 1771 106 l 1,170,-1
 1774 122 l 2,171,172
 1777 138 1777 138 1774.5 255 c 128,-1,173
 1772 372 1772 372 1769 382 c 256,174,175
 1766 392 1766 392 1757 394 c 0,176,177
 1751 396 1751 396 1749.5 403.5 c 128,-1,178
 1748 411 1748 411 1748 441 c 2,179,-1
 1748 486 l 1,180,-1
 1777 483 l 2,181,182
 1805 480 1805 480 2021 480 c 2,183,-1
 2236 480 l 1,184,-1
 2240 470 l 2,185,186
 2243 461 2243 461 2238 458 c 128,-1,187
 2233 455 2233 455 2237.5 434 c 128,-1,188
 2242 413 2242 413 2236.5 383 c 128,-1,189
 2231 353 2231 353 2236 325.5 c 128,-1,190
 2241 298 2241 298 2234 291 c 0,191,192
 2222 277 2222 277 2231 263.5 c 128,-1,193
 2240 250 2240 250 2261 250 c 0,194,195
 2278 250 2278 250 2286 256.5 c 128,-1,196
 2294 263 2294 263 2291 275 c 0,197,198
 2287 291 2287 291 2287.5 299.5 c 128,-1,199
 2288 308 2288 308 2295 332 c 0,200,201
 2303 362 2303 362 2300 389 c 2,202,-1
 2297 416 l 1,203,-1
 2319 416 l 2,204,205
 2333 416 2333 416 2340 418.5 c 128,-1,206
 2347 421 2347 421 2356 431 c 0,207,208
 2371 446 2371 446 2371 462 c 0,209,210
 2371 487 2371 487 2376 493 c 128,-1,211
 2381 499 2381 499 2401 499 c 2,212,-1
 2426 499 l 1,213,-1
 2426 471 l 2,214,215
 2426 454 2426 454 2428 447.5 c 128,-1,216
 2430 441 2430 441 2438 435 c 0,217,218
 2450 425 2450 425 2471.5 425.5 c 128,-1,219
 2493 426 2493 426 2503 435 c 0,220,221
 2510 442 2510 442 2512 449.5 c 128,-1,222
 2514 457 2514 457 2514 481 c 2,223,-1
 2514 517 l 1,224,-1
 2497 517 l 2,225,226
 2489 517 2489 517 2485.5 518.5 c 128,-1,227
 2482 520 2482 520 2483 523 c 0,228,229
 2485 529 2485 529 2491.5 529 c 128,-1,230
 2498 529 2498 529 2499.5 541.5 c 128,-1,231
 2501 554 2501 554 2494 554 c 0,232,233
 2490 554 2490 554 2486 565 c 128,-1,234
 2482 576 2482 576 2482 587 c 0,235,236
 2482 591 2482 591 2569 591 c 128,-1,237
 2656 591 2656 591 2659 595.5 c 128,-1,238
 2662 600 2662 600 2745 600 c 128,-1,239
 2828 600 2828 600 2828 595.5 c 128,-1,240
 2828 591 2828 591 2919 592 c 2,241,-1
 3010 593 l 1,242,-1
 3011 614 l 2,243,244
 3011 616 3011 616 3012 620 c 0,245,246
 3014 645 3014 645 3004 649 c 128,-1,247
 2994 653 2994 653 2934 652 c 2,248,249
 2934 652 2934 652 2919 652 c 2,250,251
 2830 650 2830 650 2825.5 646 c 128,-1,252
 2821 642 2821 642 2741.5 642 c 128,-1,253
 2662 642 2662 642 2659 646 c 0,254,255
 2656 651 2656 651 2563 651 c 2,256,-1
 2469 651 l 1,257,-1
 2455 696 l 2,258,259
 2440 741 2440 741 2440 746.5 c 128,-1,260
 2440 752 2440 752 2417 752 c 0,261,262
 2400 752 2400 752 2396.5 750 c 128,-1,263
 2393 748 2393 748 2390 735 c 0,264,265
 2388 729 2388 729 2381 699 c 0,266,267
 2376 681 2376 681 2365.5 676.5 c 128,-1,268
 2355 672 2355 672 2353 661 c 2,269,-1
 2352 651 l 1,270,-1
 2207 651 l 1,271,-1
 2062 651 l 1,272,-1
 2062 662 l 2,273,274
 2062 669 2062 669 2065 672 c 128,-1,275
 2068 675 2068 675 2079 676 c 0,276,277
 2108 681 2108 681 2116 684 c 128,-1,278
 2124 687 2124 687 2129 695 c 0,279,280
 2137 707 2137 707 2137 742 c 128,-1,281
 2137 777 2137 777 2128 783 c 0,282,283
 2120 789 2120 789 1980 789.5 c 128,-1,284
 1840 790 1840 790 1830 784 c 0,0,1
1245 660.5 m 128,-1,286
 1245 665 1245 665 1250 665 c 128,-1,287
 1255 665 1255 665 1255 660.5 c 128,-1,288
 1255 656 1255 656 1250 656 c 128,-1,285
 1245 656 1245 656 1245 660.5 c 128,-1,286
2927 628 m 0,289,290
 2925 630 2925 630 2932 631 c 0,291,292
 2938 633 2938 633 2949 633 c 0,293,294
 2975 633 2975 633 2975 628 c 128,-1,295
 2975 623 2975 623 2952.5 623 c 128,-1,296
 2930 623 2930 623 2927 628 c 0,289,290
890 611 m 0,297,298
 893 619 893 619 897 621 c 128,-1,299
 901 623 901 623 911 623 c 2,300,-1
 927 623 l 1,301,-1
 927 570 l 1,302,-1
 927 517 l 1,303,-1
 909 517 l 2,304,305
 891 517 891 517 888 524 c 0,306,307
 885 533 885 533 885.5 567.5 c 128,-1,308
 886 602 886 602 890 611 c 0,297,298
2939 602 m 0,309,310
 2935 603 2935 603 2940 603 c 0,311,312
 2943 604 2943 604 2947 604 c 0,313,314
 2956 603 2956 603 2956 602 c 0,315,316
 2947 600 2947 600 2939 602 c 0,309,310
327 578 m 0,317,318
 327 582 327 582 414 582 c 0,319,320
 470 582 470 582 487.5 580.5 c 128,-1,321
 505 579 505 579 512 574 c 0,322,323
 535 558 535 558 535 539 c 0,324,325
 535 519 535 519 517.5 502.5 c 128,-1,326
 500 486 500 486 427 439 c 0,327,328
 331 378 331 378 330 380 c 0,329,330
 329 381 329 381 328 471.5 c 128,-1,331
 327 562 327 562 327 578 c 0,317,318
772 577.5 m 128,-1,333
 774 579 774 579 800 577.5 c 128,-1,334
 826 576 826 576 826 569.5 c 128,-1,335
 826 563 826 563 805.5 563 c 128,-1,336
 785 563 785 563 777.5 560.5 c 128,-1,337
 770 558 770 558 770 567 c 128,-1,332
 770 576 770 576 772 577.5 c 128,-1,333
1396 396 m 0,338,339
 1398 405 1398 405 1400 407.5 c 128,-1,340
 1402 410 1402 410 1405 409 c 0,341,342
 1412 406 1412 406 1451 406 c 2,343,-1
 1490 406 l 1,344,-1
 1485 395 l 2,345,346
 1481 383 1481 383 1481 372 c 0,347,348
 1481 364 1481 364 1469 352 c 128,-1,349
 1457 340 1457 340 1441 333 c 0,350,351
 1428 327 1428 327 1393 328 c 0,352,353
 1339 329 1339 329 1338 339 c 0,354,355
 1338 344 1338 344 1347 355 c 2,356,-1
 1355 367 l 1,357,-1
 1383 352 l 2,358,359
 1427 329 1427 329 1417 343 c 0,360,361
 1415 345 1415 345 1413 348 c 0,362,363
 1392 369 1392 369 1396 396 c 0,338,339
EndSplineSet
Validated: 41
EndChar

StartChar: uniE01D
Encoding: 57373 57373 25
Width: 2662
GlyphClass: 2
Flags: W
LayerCount: 2
Fore
SplineSet
871 735 m 0,0,1
 788 723 788 723 700 690 c 128,-1,2
 612 657 612 657 553 614 c 0,3,4
 517 589 517 589 415 548 c 2,5,-1
 312 507 l 1,6,-1
 279 515 l 2,7,8
 247 523 247 523 215 544 c 0,9,10
 187 564 187 564 178 559.5 c 128,-1,11
 169 555 169 555 161 514 c 0,12,13
 146 445 146 445 150.5 372 c 128,-1,14
 155 299 155 299 176 264 c 0,15,16
 195 231 195 231 251.5 193.5 c 128,-1,17
 308 156 308 156 334 159 c 0,18,19
 342 160 342 160 347 165 c 128,-1,20
 352 170 352 170 356 183 c 0,21,22
 365 204 365 204 391 251 c 0,23,24
 408 280 408 280 423 297.5 c 128,-1,25
 438 315 438 315 474 347 c 0,26,27
 527 394 527 394 555.5 411.5 c 128,-1,28
 584 429 584 429 606 429 c 0,29,30
 637 429 637 429 653 418 c 128,-1,31
 669 407 669 407 690 371 c 256,32,33
 711 335 711 335 727.5 320.5 c 128,-1,34
 744 306 744 306 775 297 c 0,35,36
 822 283 822 283 870.5 293 c 128,-1,37
 919 303 919 303 981 340 c 0,38,39
 1084 402 1084 402 1153 414 c 0,40,41
 1194 421 1194 421 1196 429.5 c 128,-1,42
 1198 438 1198 438 1215.5 444.5 c 128,-1,43
 1233 451 1233 451 1242 456.5 c 128,-1,44
 1251 462 1251 462 1301.5 462 c 128,-1,45
 1352 462 1352 462 1441 467 c 0,46,47
 1505 470 1505 470 1519.5 469.5 c 128,-1,48
 1534 469 1534 469 1542 461 c 0,49,50
 1553 451 1553 451 1581 451 c 0,51,52
 1601 451 1601 451 1607 453.5 c 128,-1,53
 1613 456 1613 456 1621 470 c 2,54,-1
 1632 489 l 1,55,-1
 1879 487 l 1,56,-1
 2127 486 l 1,57,-1
 2128 468 l 2,58,59
 2130 451 2130 451 2147 439 c 2,60,-1
 2164 426 l 1,61,-1
 2511 426 l 1,62,-1
 2858 426 l 1,63,-1
 2878 442 l 2,64,65
 2898 457 2898 457 2901 471 c 0,66,67
 2903 482 2903 482 2907.5 483.5 c 128,-1,68
 2912 485 2912 485 2930 484 c 0,69,70
 2956 483 2956 483 2965 490 c 0,71,72
 2976 498 2976 498 2980.5 521.5 c 128,-1,73
 2985 545 2985 545 2980 565 c 0,74,75
 2975 582 2975 582 2965.5 589.5 c 128,-1,76
 2956 597 2956 597 2937 597 c 0,77,78
 2911 597 2911 597 2918 618 c 0,79,80
 2920 625 2920 625 2927 627.5 c 128,-1,81
 2934 630 2934 630 2957 631 c 2,82,-1
 2993 632 l 1,83,-1
 2995 676 l 2,84,85
 2997 720 2997 720 2989.5 726 c 128,-1,86
 2982 732 2982 732 2321 735 c 0,87,88
 1663 738 1663 738 1292 740 c 0,89,90
 924 742 924 742 871 735 c 0,0,1
807 422 m 0,91,92
 819 430 819 430 831 432 c 128,-1,93
 843 434 843 434 878 434 c 0,94,95
 915 434 915 434 925.5 432 c 128,-1,96
 936 430 936 430 948 420 c 0,97,98
 976 397 976 397 955.5 366 c 128,-1,99
 935 335 935 335 880 318 c 0,100,101
 833 304 833 304 783 318 c 0,102,103
 743 330 743 330 732 356.5 c 128,-1,104
 721 383 721 383 745 407 c 2,105,-1
 761 423 l 1,106,-1
 761 390 l 2,107,108
 761 356 761 356 774 338 c 0,109,110
 789 317 789 317 790 325 c 0,111,112
 791 330 791 330 784 347 c 0,113,114
 775 369 775 369 781 389 c 128,-1,115
 787 409 787 409 807 422 c 0,91,92
EndSplineSet
Validated: 41
EndChar

StartChar: uniE01E
Encoding: 57374 57374 26
Width: 1638
GlyphClass: 2
Flags: W
LayerCount: 2
Fore
SplineSet
1030 785 m 0,0,1
 1015 777 1015 777 962 775.5 c 128,-1,2
 909 774 909 774 642 777 c 0,3,4
 274 780 274 780 266 787 c 0,5,6
 261 791 261 791 259 790.5 c 128,-1,7
 257 790 257 790 257 784 c 0,8,9
 257 774 257 774 240 774 c 0,10,11
 229 774 229 774 225.5 771.5 c 128,-1,12
 222 769 222 769 222 762 c 0,13,14
 222 750 222 750 216 750 c 0,15,16
 201 750 201 750 193.5 698.5 c 128,-1,17
 186 647 186 647 199 630 c 0,18,19
 207 620 207 620 220.5 613.5 c 128,-1,20
 234 607 234 607 247 607 c 256,21,22
 260 607 260 607 269.5 597 c 128,-1,23
 279 587 279 587 283 571 c 0,24,25
 287 556 287 556 255 499 c 0,26,27
 234 462 234 462 215 419.5 c 128,-1,28
 196 377 196 377 187 348 c 128,-1,29
 178 319 178 319 184 319 c 0,30,31
 189 319 189 319 263 307 c 0,32,33
 349 294 349 294 352 298 c 0,34,35
 353 300 353 300 352 307 c 0,36,37
 349 318 349 318 383 403 c 128,-1,38
 417 488 417 488 426 494 c 0,39,40
 434 499 434 499 511 499 c 2,41,-1
 587 499 l 1,42,-1
 583 484 l 2,43,44
 581 475 581 475 582.5 472 c 128,-1,45
 584 469 584 469 590 469 c 128,-1,46
 596 469 596 469 596.5 467.5 c 128,-1,47
 597 466 597 466 593 461 c 0,48,49
 586 452 586 452 592.5 448 c 128,-1,50
 599 444 599 444 605 448 c 128,-1,51
 611 452 611 452 611 461 c 256,52,53
 611 470 611 470 620 468 c 0,54,55
 626 467 626 467 628 434 c 128,-1,56
 630 401 630 401 630 279 c 0,57,58
 632 92 632 92 627.5 92 c 128,-1,59
 623 92 623 92 623 82 c 0,60,61
 623 76 623 76 633 74.5 c 128,-1,62
 643 73 643 73 679 75 c 0,63,64
 742 77 742 77 742 86 c 0,65,66
 742 89 742 89 738 93 c 0,67,68
 731 100 731 100 731 285 c 0,69,70
 731 420 731 420 732.5 444.5 c 128,-1,71
 734 469 734 469 743 469 c 256,72,73
 752 469 752 469 754 477 c 128,-1,74
 756 485 756 485 749 490 c 0,75,76
 743 494 743 494 743 528 c 0,77,78
 743 552 743 552 746 560.5 c 128,-1,79
 749 569 749 569 765 585 c 0,80,81
 788 607 788 607 804 607 c 0,82,83
 815 607 815 607 817.5 610.5 c 128,-1,84
 820 614 820 614 820 631 c 2,85,-1
 820 655 l 1,86,-1
 855 655 l 1,87,88
 855 655 855 655 889 655 c 2,89,90
 1042 657 1042 657 1068 658.5 c 128,-1,91
 1094 660 1094 660 1095 669 c 2,92,93
 1095 669 1095 669 1095 671 c 2,94,95
 1097 684 1097 684 1114 688 c 0,96,97
 1126 690 1126 690 1129 694.5 c 128,-1,98
 1132 699 1132 699 1132 714.5 c 128,-1,99
 1132 730 1132 730 1129 734.5 c 128,-1,100
 1126 739 1126 739 1114 741 c 0,101,102
 1096 745 1096 745 1096 754 c 0,103,104
 1096 762 1096 762 1079 780 c 128,-1,105
 1062 798 1062 798 1056 798 c 0,106,107
 1051 797 1051 797 1030 785 c 0,0,1
850 750 m 128,-1,109
 850 756 850 756 859 756 c 128,-1,110
 868 756 868 756 868 750 c 128,-1,111
 868 744 868 744 859 744 c 128,-1,108
 850 744 850 744 850 750 c 128,-1,109
904 750 m 128,-1,113
 904 756 904 756 913 756 c 128,-1,114
 922 756 922 756 922 750 c 128,-1,115
 922 744 922 744 913 744 c 128,-1,112
 904 744 904 744 904 750 c 128,-1,113
850 679 m 128,-1,117
 850 685 850 685 859 685 c 128,-1,118
 868 685 868 685 868 679 c 128,-1,119
 868 673 868 673 859 673 c 128,-1,116
 850 673 850 673 850 679 c 128,-1,117
904 679 m 128,-1,121
 904 685 904 685 913 685 c 128,-1,122
 922 685 922 685 922 679 c 128,-1,123
 922 673 922 673 913 673 c 128,-1,120
 904 673 904 673 904 679 c 128,-1,121
958 679 m 128,-1,125
 958 685 958 685 967 685 c 128,-1,126
 976 685 976 685 976 679 c 128,-1,127
 976 673 976 673 967 673 c 128,-1,124
 958 673 958 673 958 679 c 128,-1,125
1012 679 m 128,-1,129
 1012 685 1012 685 1021 685 c 128,-1,130
 1030 685 1030 685 1030 679 c 128,-1,131
 1030 673 1030 673 1021 673 c 128,-1,128
 1012 673 1012 673 1012 679 c 128,-1,129
452 573 m 1,132,133
 466 607 466 607 478 607 c 0,134,135
 484 607 484 607 486.5 603 c 128,-1,136
 489 599 489 599 489 588 c 0,137,138
 489 572 489 572 506 553.5 c 128,-1,139
 523 535 523 535 538 535 c 0,140,141
 548 535 548 535 528.5 550.5 c 128,-1,142
 509 566 509 566 509 586 c 2,143,-1
 509 607 l 1,144,-1
 541 607 l 2,145,146
 572 607 572 607 579.5 597.5 c 128,-1,147
 587 588 587 588 586 555 c 2,148,-1
 584 520 l 1,149,-1
 512 520 l 2,150,151
 449 520 449 520 441.5 526.5 c 128,-1,152
 434 533 434 533 452 573 c 1,132,133
EndSplineSet
Validated: 41
EndChar

StartChar: uniE01F
Encoding: 57375 57375 27
Width: 1331
GlyphClass: 2
Flags: W
LayerCount: 2
Fore
SplineSet
416 779 m 0,0,1
 377 776 377 776 374 768 c 128,-1,2
 371 760 371 760 356.5 760 c 128,-1,3
 342 760 342 760 323 745 c 2,4,-1
 303 730 l 1,5,-1
 304 666 l 1,6,-1
 306 603 l 1,7,-1
 336 592 l 2,8,9
 366 581 366 581 389 560 c 0,10,11
 404 545 404 545 408 537.5 c 128,-1,12
 412 530 412 530 412 511 c 0,13,14
 412 494 412 494 404 472 c 128,-1,15
 396 450 396 450 372 398 c 0,16,17
 336 322 336 322 322 282 c 128,-1,18
 308 242 308 242 303 202 c 0,19,20
 299 162 299 162 295 150 c 128,-1,21
 291 138 291 138 301 126 c 0,22,23
 308 118 308 118 325 114.5 c 128,-1,24
 342 111 342 111 400 105 c 0,25,26
 489 96 489 96 511 93 c 0,27,28
 525 91 525 91 529.5 93 c 128,-1,29
 534 95 534 95 539 104 c 0,30,31
 545 119 545 119 535 134 c 0,32,33
 512 169 512 169 554 305 c 2,34,-1
 576 379 l 1,35,-1
 660 381 l 2,36,37
 714 382 714 382 729 380.5 c 128,-1,38
 744 379 744 379 744 373.5 c 128,-1,39
 744 368 744 368 764.5 366.5 c 128,-1,40
 785 365 785 365 865 366 c 2,41,-1
 987 368 l 1,42,-1
 988 425 l 2,43,44
 990 482 990 482 994 486 c 128,-1,45
 998 490 998 490 1089 503 c 0,46,47
 1147 511 1147 511 1164 515.5 c 128,-1,48
 1181 520 1181 520 1183 526 c 0,49,50
 1186 537 1186 537 1193 537 c 0,51,52
 1198 537 1198 537 1199.5 554 c 128,-1,53
 1201 571 1201 571 1201 623 c 2,54,-1
 1201 709 l 1,55,-1
 1182 729 l 2,56,57
 1163 748 1163 748 1143 748 c 0,58,59
 1130 748 1130 748 1123.5 751.5 c 128,-1,60
 1117 755 1117 755 1110 765 c 0,61,62
 1100 780 1100 780 1083.5 782.5 c 128,-1,63
 1067 785 1067 785 1057 774 c 0,64,65
 1043 757 1043 757 1036.5 752.5 c 128,-1,66
 1030 748 1030 748 1021 748 c 0,67,68
 1006 748 1006 748 1003 740 c 0,69,70
 1001 734 1001 734 966 732.5 c 128,-1,71
 931 731 931 731 807 731 c 2,72,-1
 613 731 l 1,73,-1
 610 745 l 2,74,75
 606 760 606 760 599.5 760 c 128,-1,76
 593 760 593 760 584 768 c 0,77,78
 576 774 576 774 521 777.5 c 128,-1,79
 466 781 466 781 416 779 c 0,0,1
615 519 m 0,80,81
 619 526 619 526 677 524 c 2,82,-1
 735 522 l 1,83,-1
 733 495 l 2,84,85
 731 468 731 468 738 459.5 c 128,-1,86
 745 451 745 451 743 438 c 0,87,88
 741 430 741 430 735 427 c 128,-1,89
 729 424 729 424 707 421 c 0,90,91
 660 414 660 414 623.5 412.5 c 128,-1,92
 587 411 587 411 582 415 c 0,93,94
 578 420 578 420 589 423 c 0,95,96
 591 424 591 424 594 424 c 2,97,-1
 611 427 l 1,98,-1
 611 470 l 2,99,100
 610 512 610 512 615 519 c 0,80,81
EndSplineSet
Validated: 41
EndChar

StartChar: uniE020
Encoding: 57376 57376 28
Width: 1280
GlyphClass: 2
Flags: W
LayerCount: 2
Fore
SplineSet
326 768 m 2,0,1
 307 718 307 718 304 680 c 0,2,3
 304 676 304 676 279 641 c 128,-1,4
 254 606 254 606 232 602 c 0,5,6
 198 594 198 594 223 576 c 0,7,8
 232 569 232 569 249 563 c 0,9,10
 281 551 281 551 296 538.5 c 128,-1,11
 311 526 311 526 315 502.5 c 128,-1,12
 319 479 319 479 310.5 448 c 128,-1,13
 302 417 302 417 282 363 c 0,14,15
 255 294 255 294 235 213 c 128,-1,16
 215 132 215 132 221 118 c 0,17,18
 225 107 225 107 249 107 c 128,-1,19
 273 107 273 107 273 100 c 128,-1,20
 273 93 273 93 389 93 c 0,21,22
 466 93 466 93 486.5 95 c 128,-1,23
 507 97 507 97 510 104 c 0,24,25
 514 115 514 115 502 125 c 0,26,27
 492 133 492 133 499 134 c 0,28,29
 510 134 510 134 532 217 c 128,-1,30
 554 300 554 300 560 338 c 128,-1,31
 566 376 566 376 583 390.5 c 128,-1,32
 600 405 600 405 631 399 c 0,33,34
 693 387 693 387 838 398 c 2,35,-1
 900 402 l 1,36,-1
 894 423 l 2,37,38
 888 444 888 444 894 485 c 0,39,40
 901 528 901 528 918.5 542.5 c 128,-1,41
 936 557 936 557 980 557 c 256,42,43
 1024 557 1024 557 1024 564 c 128,-1,44
 1024 571 1024 571 1037.5 571 c 128,-1,45
 1051 571 1051 571 1051 564 c 128,-1,46
 1051 557 1051 557 1065 557 c 128,-1,47
 1079 557 1079 557 1079 564 c 0,48,49
 1079 569 1079 569 1084 570.5 c 128,-1,50
 1089 572 1089 572 1097 569.5 c 128,-1,51
 1105 567 1105 567 1114 562 c 0,52,53
 1128 554 1128 554 1131 562 c 0,54,55
 1133 567 1133 567 1140 569.5 c 128,-1,56
 1147 572 1147 572 1154 570.5 c 128,-1,57
 1161 569 1161 569 1161 564 c 256,58,59
 1161 559 1161 559 1169.5 557.5 c 128,-1,60
 1178 556 1178 556 1187.5 559 c 128,-1,61
 1197 562 1197 562 1199 567 c 0,62,63
 1203 578 1203 578 1212 578 c 0,64,65
 1218 578 1218 578 1220 598 c 128,-1,66
 1222 618 1222 618 1222 679 c 2,67,-1
 1222 781 l 1,68,-1
 1206 784 l 2,69,70
 1189 787 1189 787 989 782 c 0,71,72
 849 778 849 778 635 782 c 128,-1,73
 421 786 421 786 368 793 c 2,74,-1
 337 797 l 1,75,-1
 326 768 l 2,0,1
622 535 m 0,76,77
 643 549 643 549 651.5 546 c 128,-1,78
 660 543 660 543 672 499 c 0,79,80
 682 462 682 462 700.5 441.5 c 128,-1,81
 719 421 719 421 743 421 c 2,82,-1
 760 421 l 1,83,-1
 737 445 l 2,84,85
 722 460 722 460 718 470.5 c 128,-1,86
 714 481 714 481 714 504 c 2,87,-1
 713 540 l 1,88,-1
 786 542 l 2,89,90
 838 543 838 543 850 541.5 c 128,-1,91
 862 540 862 540 867 529 c 0,92,93
 876 513 876 513 872 473 c 128,-1,94
 868 433 868 433 856 425 c 0,95,96
 844 416 844 416 760 412 c 0,97,98
 700 410 700 410 683.5 411.5 c 128,-1,99
 667 413 667 413 646 425 c 0,100,101
 622 438 622 438 606.5 464 c 128,-1,102
 591 490 591 490 597 507 c 0,103,104
 601 520 601 520 622 535 c 0,76,77
EndSplineSet
Validated: 41
EndChar

StartChar: uniE021
Encoding: 57377 57377 29
Width: 1562
GlyphClass: 2
Flags: W
LayerCount: 2
Fore
SplineSet
378 844 m 0,0,1
 378 819 378 819 367 809 c 128,-1,2
 356 799 356 799 349 799 c 128,-1,3
 342 799 342 799 339 794 c 128,-1,4
 336 789 336 789 325.5 789 c 128,-1,5
 315 789 315 789 302 773 c 0,6,7
 292 760 292 760 280 757.5 c 128,-1,8
 268 755 268 755 261 765 c 0,9,10
 255 772 255 772 245 769 c 0,11,12
 239 767 239 767 237 762.5 c 128,-1,13
 235 758 235 758 235 745 c 2,14,-1
 235 725 l 1,15,-1
 205 725 l 1,16,-1
 175 725 l 1,17,-1
 175 561 l 2,18,19
 175 416 175 416 180 404 c 0,20,21
 183 394 183 394 199 399 c 0,22,23
 206 401 206 401 208 402 c 0,24,25
 227 407 227 407 236 425.5 c 128,-1,26
 245 444 245 444 254 498 c 2,27,-1
 265 559 l 1,28,-1
 396 558 l 1,29,-1
 528 556 l 1,30,-1
 533 546 l 2,31,32
 538 535 538 535 530 481 c 0,33,34
 524 441 524 441 522.5 388.5 c 128,-1,35
 521 336 521 336 525 319 c 0,36,37
 527 312 527 312 531.5 309.5 c 128,-1,38
 536 307 536 307 548 306 c 2,39,-1
 567 304 l 1,40,-1
 567 282 l 2,41,42
 567 254 567 254 575.5 198.5 c 128,-1,43
 584 143 584 143 595 98 c 0,44,45
 610 39 610 39 607 38 c 0,46,47
 606 37 606 37 602 37 c 0,48,49
 595 37 595 37 595 31 c 0,50,51
 595 27 595 27 597.5 25.5 c 128,-1,52
 600 24 600 24 610.5 24 c 128,-1,53
 621 24 621 24 636.5 25.5 c 128,-1,54
 652 27 652 27 684 31 c 0,55,56
 747 39 747 39 747 45 c 128,-1,57
 747 51 747 51 741 55 c 0,58,59
 726 64 726 64 705.5 181 c 128,-1,60
 685 298 685 298 697 305 c 0,61,62
 703 309 703 309 697.5 327.5 c 128,-1,63
 692 346 692 346 687 414 c 0,64,65
 684 488 684 488 686 488 c 0,66,67
 688 485 688 485 701 492 c 128,-1,68
 714 499 714 499 759.5 499 c 128,-1,69
 805 499 805 499 820 508 c 0,70,71
 833 516 833 516 838 525 c 128,-1,72
 843 534 843 534 848 560 c 0,73,74
 854 586 854 586 863 591 c 128,-1,75
 872 596 872 596 949 595 c 2,76,-1
 1026 593 l 1,77,-1
 1027 563 l 2,78,79
 1028 533 1028 533 1031.5 524.5 c 128,-1,80
 1035 516 1035 516 1032 422.5 c 128,-1,81
 1029 329 1029 329 1032 311 c 2,82,-1
 1034 293 l 1,83,-1
 1069 285 l 2,84,85
 1105 277 1105 277 1112 274 c 0,86,87
 1116 273 1116 273 1117 279 c 0,88,89
 1120 291 1120 291 1122 410 c 0,90,91
 1123 509 1123 509 1124.5 531 c 128,-1,92
 1126 553 1126 553 1134 569 c 0,93,94
 1141 582 1141 582 1145.5 586.5 c 128,-1,95
 1150 591 1150 591 1159 592 c 0,96,97
 1176 594 1176 594 1185.5 588 c 128,-1,98
 1195 582 1195 582 1205 565 c 0,99,100
 1226 531 1226 531 1229 550 c 0,101,102
 1230 561 1230 561 1225 585 c 0,103,104
 1218 615 1218 615 1220.5 618 c 128,-1,105
 1223 621 1223 621 1280 619 c 2,106,-1
 1338 618 l 1,107,-1
 1338 641 l 1,108,-1
 1338 665 l 1,109,-1
 1288 665 l 2,110,111
 1238 665 1238 665 1233 660 c 128,-1,112
 1228 655 1228 655 1225 660 c 128,-1,113
 1222 665 1222 665 1213.5 665 c 128,-1,114
 1205 665 1205 665 1194 705 c 0,115,116
 1186 734 1186 734 1182.5 740 c 128,-1,117
 1179 746 1179 746 1168 748 c 0,118,119
 1154 751 1154 751 1132 765.5 c 128,-1,120
 1110 780 1110 780 1104 780 c 128,-1,121
 1098 780 1098 780 1098 787.5 c 128,-1,122
 1098 795 1098 795 1088 797 c 0,123,124
 1081 799 1081 799 1081.5 800 c 128,-1,125
 1082 801 1082 801 1089 805 c 0,126,127
 1101 811 1101 811 1101 816 c 128,-1,128
 1101 821 1101 821 1090 822 c 0,129,130
 1082 823 1082 823 1079 826.5 c 128,-1,131
 1076 830 1076 830 1075 842 c 0,132,133
 1073 853 1073 853 1071 857 c 128,-1,134
 1069 861 1069 861 1063 861 c 256,135,136
 1057 861 1057 861 1055.5 855.5 c 128,-1,137
 1054 850 1054 850 1053 830 c 2,138,-1
 1051 799 l 1,139,-1
 1024 799 l 2,140,141
 1005 799 1005 799 1000 797 c 128,-1,142
 995 795 995 795 992 787 c 256,143,144
 989 779 989 779 986.5 778 c 128,-1,145
 984 777 984 777 979 781 c 0,146,147
 972 787 972 787 970 781 c 128,-1,148
 968 775 968 775 962 775 c 128,-1,149
 956 775 956 775 953.5 781 c 128,-1,150
 951 787 951 787 946 780 c 0,151,152
 943 776 943 776 941 776 c 128,-1,153
 939 776 939 776 934 780 c 0,154,155
 926 787 926 787 924 781 c 128,-1,156
 922 775 922 775 915.5 775 c 128,-1,157
 909 775 909 775 907 781 c 128,-1,158
 905 787 905 787 900 780 c 128,-1,159
 895 773 895 773 890.5 779.5 c 128,-1,160
 886 786 886 786 879 780 c 128,-1,161
 872 774 872 774 864.5 780 c 128,-1,162
 857 786 857 786 853 780 c 128,-1,163
 849 774 849 774 843 779.5 c 128,-1,164
 837 785 837 785 831.5 779.5 c 128,-1,165
 826 774 826 774 819.5 779.5 c 128,-1,166
 813 785 813 785 807.5 779 c 128,-1,167
 802 773 802 773 798 779.5 c 128,-1,168
 794 786 794 786 787 780 c 128,-1,169
 780 774 780 774 773.5 779.5 c 128,-1,170
 767 785 767 785 762 779.5 c 128,-1,171
 757 774 757 774 750.5 779.5 c 128,-1,172
 744 785 744 785 738.5 779 c 128,-1,173
 733 773 733 773 729 779.5 c 128,-1,174
 725 786 725 786 717.5 780 c 128,-1,175
 710 774 710 774 705.5 780.5 c 128,-1,176
 701 787 701 787 696.5 780 c 128,-1,177
 692 773 692 773 683.5 778.5 c 128,-1,178
 675 784 675 784 669.5 778.5 c 128,-1,179
 664 773 664 773 659 780 c 0,180,181
 657 785 657 785 655 785 c 128,-1,182
 653 785 653 785 651 780 c 0,183,184
 646 774 646 774 638.5 780 c 128,-1,185
 631 786 631 786 627 780 c 128,-1,186
 623 774 623 774 616.5 779.5 c 128,-1,187
 610 785 610 785 604.5 779 c 128,-1,188
 599 773 599 773 595 779.5 c 128,-1,189
 591 786 591 786 583.5 780 c 128,-1,190
 576 774 576 774 572 780 c 0,191,192
 569 785 569 785 567.5 785 c 128,-1,193
 566 785 566 785 563 780 c 0,194,195
 559 774 559 774 551.5 780 c 128,-1,196
 544 786 544 786 539.5 779.5 c 128,-1,197
 535 773 535 773 529.5 779 c 128,-1,198
 524 785 524 785 518 779.5 c 128,-1,199
 512 774 512 774 504.5 780 c 128,-1,200
 497 786 497 786 493 780 c 0,201,202
 490 775 490 775 488.5 775 c 128,-1,203
 487 775 487 775 485 780 c 0,204,205
 480 786 480 786 473.5 781 c 128,-1,206
 467 776 467 776 462.5 781 c 128,-1,207
 458 786 458 786 455 781 c 0,208,209
 451 774 451 774 447 776 c 128,-1,210
 443 778 443 778 442 786 c 0,211,212
 441 792 441 792 436.5 794.5 c 128,-1,213
 432 797 432 797 416 799 c 0,214,215
 391 802 391 802 388.5 805 c 128,-1,216
 386 808 386 808 387 835 c 128,-1,217
 388 862 388 862 383 865 c 0,218,219
 380 867 380 867 379 855 c 0,220,221
 378 851 378 851 378 844 c 0,0,1
948 738 m 0,222,223
 952 745 952 745 975.5 742.5 c 128,-1,224
 999 740 999 740 999 734 c 0,225,226
 999 727 999 727 976 726 c 0,227,228
 945 724 945 724 946 735 c 0,229,230
 947 736 947 736 948 738 c 0,222,223
1039 735 m 0,231,232
 1038 740 1038 740 1041 741.5 c 128,-1,233
 1044 743 1044 743 1056 743 c 256,234,235
 1068 743 1068 743 1071.5 741.5 c 128,-1,236
 1075 740 1075 740 1075 734 c 128,-1,237
 1075 728 1075 728 1072 726.5 c 128,-1,238
 1069 725 1069 725 1057 726 c 0,239,240
 1040 727 1040 727 1039 735 c 0,231,232
994 692.5 m 128,-1,242
 997 697 997 697 1035.5 697 c 128,-1,243
 1074 697 1074 697 1077 692.5 c 128,-1,244
 1080 688 1080 688 1035.5 688 c 128,-1,241
 991 688 991 688 994 692.5 c 128,-1,242
1277 652 m 0,245,246
 1269 653 1269 653 1277 654 c 2,247,248
 1277 654 1277 654 1292 654 c 1,249,-1
 1309 653 l 1,250,251
 1308 652 1308 652 1307 652 c 0,252,253
 1292 650 1292 650 1277 652 c 0,245,246
1266 628 m 0,254,255
 1269 632 1269 632 1286 632 c 128,-1,256
 1303 632 1303 632 1310 628 c 0,257,258
 1315 625 1315 625 1305 624 c 0,259,260
 1300 623 1300 623 1290 623 c 0,261,262
 1265 624 1265 624 1266 628 c 0,254,255
729 573 m 2,263,-1
 729 586 l 1,264,-1
 781 586 l 2,265,266
 826 586 826 586 833 582 c 128,-1,267
 840 578 840 578 834 553 c 0,268,269
 828 526 828 526 816.5 519.5 c 128,-1,270
 805 513 805 513 762 513 c 0,271,272
 720 513 720 513 709.5 517.5 c 128,-1,273
 699 522 699 522 695 542 c 0,274,275
 691 565 691 565 699.5 567 c 128,-1,276
 708 569 708 569 724 549 c 0,277,278
 739 531 739 531 745 531 c 0,279,280
 760 531 760 531 740 549 c 0,281,282
 729 560 729 560 729 573 c 2,263,-1
EndSplineSet
Validated: 37
EndChar

StartChar: uniE022
Encoding: 57378 57378 30
Width: 2125
GlyphClass: 2
Flags: W
LayerCount: 2
Fore
SplineSet
1083.3125 932.125 m 6,0,-1
 1077.0625 914.625 l 5,1,-1
 1030.8125 918.375 l 6,2,3
 1000.8125 920.875 1000.8125 920.875 990.1875 920.25 c 132,-1,4
 979.5625 919.625 979.5625 919.625 972.0625 912.125 c 4,5,6
 960.8125 902.125 960.8125 902.125 965.8125 895.875 c 132,-1,7
 970.8125 889.625 970.8125 889.625 968.3125 842.125 c 6,8,-1
 965.8125 795.875 l 5,9,-1
 928.3125 793.375 l 6,10,11
 889.5625 789.625 889.5625 789.625 882.0625 779.625 c 4,12,13
 877.0625 772.125 877.0625 772.125 812.6875 771.5 c 132,-1,14
 748.3125 770.875 748.3125 770.875 442.0625 772.125 c 4,15,16
 9.5625 775.875 9.5625 775.875 5.8125 769.625 c 4,17,18
 -0.4375 760.875 -0.4375 760.875 -17.9375 554.625 c 4,19,20
 -30.4375 417.125 -30.4375 417.125 -36.0625 370.875 c 132,-1,21
 -41.6875 324.625 -41.6875 324.625 -35.4375 320.875 c 4,22,23
 -26.6875 314.625 -26.6875 314.625 -6.0625 315.875 c 132,-1,24
 14.5625 317.125 14.5625 317.125 19.5625 323.375 c 4,25,26
 28.3125 335.875 28.3125 335.875 63.3125 463.375 c 132,-1,27
 98.3125 590.875 98.3125 590.875 97.0625 608.375 c 4,28,29
 95.8125 624.625 95.8125 624.625 98.9375 632.125 c 132,-1,30
 102.0625 639.625 102.0625 639.625 114.5625 650.875 c 4,31,32
 159.5625 693.375 159.5625 693.375 192.0625 698.375 c 4,33,34
 215.8125 702.125 215.8125 702.125 567.0625 702.125 c 6,35,-1
 918.3125 702.125 l 5,36,-1
 920.8125 687.125 l 6,37,38
 923.3125 672.125 923.3125 672.125 932.0625 667.125 c 132,-1,39
 940.8125 662.125 940.8125 662.125 1078.3125 653.375 c 132,-1,40
 1215.8125 644.625 1215.8125 644.625 1225.8125 635.875 c 4,41,42
 1240.8125 623.375 1240.8125 623.375 1239.5625 596.5 c 132,-1,43
 1238.3125 569.625 1238.3125 569.625 1220.8125 502.125 c 4,44,45
 1204.5625 444.625 1204.5625 444.625 1201.4375 419 c 132,-1,46
 1198.3125 393.375 1198.3125 393.375 1197.0625 345.875 c 6,47,-1
 1197.0625 275.875 l 5,48,-1
 1224.5625 275.875 l 5,49,-1
 1252.0625 275.875 l 5,50,-1
 1252.0625 109.625 l 5,51,-1
 1252.0625 -56.625 l 5,52,-1
 1327.0625 -56.625 l 5,53,-1
 1402.0625 -56.625 l 5,54,-1
 1403.3125 109.625 l 6,55,56
 1405.8125 275.875 1405.8125 275.875 1410.1875 275.875 c 132,-1,57
 1414.5625 275.875 1414.5625 275.875 1417.6875 375.25 c 132,-1,58
 1420.8125 474.625 1420.8125 474.625 1434.5625 517.125 c 4,59,60
 1443.3125 544.625 1443.3125 544.625 1448.3125 552.125 c 132,-1,61
 1453.3125 559.625 1453.3125 559.625 1460.8125 558.375 c 4,62,63
 1477.0625 554.625 1477.0625 554.625 1527.0625 553.375 c 132,-1,64
 1577.0625 552.125 1577.0625 552.125 1587.0625 554.625 c 4,65,66
 1600.8125 558.375 1600.8125 558.375 1640.8125 595.875 c 4,67,68
 1677.0625 629.625 1677.0625 629.625 1695.8125 635.25 c 132,-1,69
 1714.5625 640.875 1714.5625 640.875 1735.8125 625.875 c 6,70,-1
 1754.5625 610.875 l 5,71,-1
 1755.8125 550.875 l 6,72,73
 1758.3125 487.125 1758.3125 487.125 1771.4375 384.625 c 132,-1,74
 1784.5625 282.125 1784.5625 282.125 1792.0625 278.375 c 4,75,76
 1795.8125 275.875 1795.8125 275.875 1865.8125 288.375 c 4,77,78
 1915.8125 297.125 1915.8125 297.125 1925.8125 300.875 c 132,-1,79
 1935.8125 304.625 1935.8125 304.625 1935.8125 314.625 c 4,80,81
 1935.8125 332.125 1935.8125 332.125 1913.9375 427.125 c 132,-1,82
 1892.0625 522.125 1892.0625 522.125 1875.8125 569.625 c 4,83,84
 1862.0625 612.125 1862.0625 612.125 1860.8125 624 c 132,-1,85
 1859.5625 635.875 1859.5625 635.875 1865.8125 648.375 c 4,86,87
 1870.8125 659.625 1870.8125 659.625 1877.6875 664.625 c 132,-1,88
 1884.5625 669.625 1884.5625 669.625 1902.0625 673.375 c 4,89,90
 1932.0625 680.875 1932.0625 680.875 1947.6875 673.375 c 132,-1,91
 1963.3125 665.875 1963.3125 665.875 1975.8125 638.375 c 4,92,93
 1995.8125 595.875 1995.8125 595.875 2007.0625 614.625 c 4,94,95
 2010.8125 619.625 2010.8125 619.625 2000.1875 650.875 c 132,-1,96
 1989.5625 682.125 1989.5625 682.125 1985.8125 703.375 c 4,97,98
 1983.3125 722.125 1983.3125 722.125 1990.8125 726.5 c 132,-1,99
 1998.3125 730.875 1998.3125 730.875 2042.0625 732.125 c 6,100,-1
 2077.0625 733.375 l 5,101,-1
 2078.3125 778.375 l 5,102,-1
 2079.5625 823.375 l 5,103,-1
 2054.5625 823.375 l 6,104,105
 2029.5625 823.375 2029.5625 823.375 2022.6875 830.25 c 132,-1,106
 2015.8125 837.125 2015.8125 837.125 2010.8125 829 c 132,-1,107
 2005.8125 820.875 2005.8125 820.875 1996.4375 828.375 c 132,-1,108
 1987.0625 835.875 1987.0625 835.875 1980.1875 829.625 c 132,-1,109
 1973.3125 823.375 1973.3125 823.375 1955.8125 823.375 c 4,110,111
 1945.8125 824.625 1945.8125 824.625 1945.8125 825.875 c 6,112,113
 1945.8125 825.875 1945.8125 825.875 1948.3125 827.125 c 6,114,115
 1958.3125 829.625 1958.3125 829.625 1958.3125 837.75 c 132,-1,116
 1958.3125 845.875 1958.3125 845.875 1948.3125 845.875 c 260,117,118
 1938.3125 845.875 1938.3125 845.875 1927.0625 867.125 c 132,-1,119
 1915.8125 888.375 1915.8125 888.375 1892.6875 903.375 c 132,-1,120
 1869.5625 918.375 1869.5625 918.375 1867.6875 922.75 c 132,-1,121
 1865.8125 927.125 1865.8125 927.125 1857.6875 927.125 c 132,-1,122
 1849.5625 927.125 1849.5625 927.125 1849.5625 922.125 c 4,123,124
 1849.5625 915.875 1849.5625 915.875 1822.0625 909 c 132,-1,125
 1794.5625 902.125 1794.5625 902.125 1773.3125 903.375 c 4,126,127
 1745.8125 904.625 1745.8125 904.625 1742.6875 899 c 132,-1,128
 1739.5625 893.375 1739.5625 893.375 1721.4375 900.25 c 132,-1,129
 1703.3125 907.125 1703.3125 907.125 1700.8125 900.25 c 132,-1,130
 1698.3125 893.375 1698.3125 893.375 1687.0625 900.25 c 132,-1,131
 1675.8125 907.125 1675.8125 907.125 1664.5625 899.625 c 132,-1,132
 1653.3125 892.125 1653.3125 892.125 1653.3125 898.375 c 4,133,134
 1653.3125 902.125 1653.3125 902.125 1647.6875 903.375 c 132,-1,135
 1642.0625 904.625 1642.0625 904.625 1635.8125 903.375 c 132,-1,136
 1629.5625 902.125 1629.5625 902.125 1627.0625 898.375 c 4,137,138
 1623.3125 892.125 1623.3125 892.125 1614.5625 899 c 132,-1,139
 1605.8125 905.875 1605.8125 905.875 1594.5625 899 c 132,-1,140
 1583.3125 892.125 1583.3125 892.125 1572.6875 899 c 132,-1,141
 1562.0625 905.875 1562.0625 905.875 1552.0625 897.75 c 132,-1,142
 1542.0625 889.625 1542.0625 889.625 1539.5625 897.125 c 4,143,144
 1537.0625 903.375 1537.0625 903.375 1526.4375 904 c 132,-1,145
 1515.8125 904.625 1515.8125 904.625 1512.0625 898.375 c 260,146,147
 1508.3125 892.125 1508.3125 892.125 1497.0625 899.625 c 132,-1,148
 1485.8125 907.125 1485.8125 907.125 1475.1875 900.25 c 132,-1,149
 1464.5625 893.375 1464.5625 893.375 1457.6875 899.625 c 132,-1,150
 1450.8125 905.875 1450.8125 905.875 1439.5625 899 c 132,-1,151
 1428.3125 892.125 1428.3125 892.125 1417.0625 899 c 132,-1,152
 1405.8125 905.875 1405.8125 905.875 1397.6875 899 c 132,-1,153
 1389.5625 892.125 1389.5625 892.125 1383.3125 899 c 132,-1,154
 1377.0625 905.875 1377.0625 905.875 1367.0625 900.875 c 4,155,156
 1342.0625 889.625 1342.0625 889.625 1342.0625 898.375 c 4,157,158
 1342.0625 902.125 1342.0625 902.125 1336.4375 903.375 c 132,-1,159
 1330.8125 904.625 1330.8125 904.625 1324.5625 903.375 c 132,-1,160
 1318.3125 902.125 1318.3125 902.125 1315.8125 898.375 c 4,161,162
 1312.0625 892.125 1312.0625 892.125 1301.4375 899 c 132,-1,163
 1290.8125 905.875 1290.8125 905.875 1280.8125 897.75 c 132,-1,164
 1270.8125 889.625 1270.8125 889.625 1268.3125 897.125 c 4,165,166
 1267.0625 900.875 1267.0625 900.875 1260.8125 902.75 c 132,-1,167
 1254.5625 904.625 1254.5625 904.625 1248.9375 903.375 c 132,-1,168
 1243.3125 902.125 1243.3125 902.125 1243.3125 897.125 c 4,169,170
 1243.3125 890.875 1243.3125 890.875 1234.5625 898.375 c 132,-1,171
 1225.8125 905.875 1225.8125 905.875 1215.1875 899.625 c 132,-1,172
 1204.5625 893.375 1204.5625 893.375 1196.4375 898.375 c 132,-1,173
 1188.3125 903.375 1188.3125 903.375 1173.3125 903.375 c 132,-1,174
 1158.3125 903.375 1158.3125 903.375 1153.3125 898.375 c 4,175,176
 1147.0625 892.125 1147.0625 892.125 1122.6875 920.875 c 132,-1,177
 1098.3125 949.625 1098.3125 949.625 1094.5625 949.625 c 132,-1,178
 1090.8125 949.625 1090.8125 949.625 1083.3125 932.125 c 6,0,-1
1472.0625 652.125 m 4,179,180
 1480.8125 668.375 1480.8125 668.375 1493.3125 665.875 c 4,181,182
 1502.0625 664.625 1502.0625 664.625 1503.9375 659.625 c 132,-1,183
 1505.8125 654.625 1505.8125 654.625 1504.5625 632.125 c 132,-1,184
 1503.3125 609.625 1503.3125 609.625 1505.1875 602.75 c 132,-1,185
 1507.0625 595.875 1507.0625 595.875 1518.3125 587.125 c 6,186,-1
 1533.3125 574.625 l 5,187,-1
 1504.5625 574.625 l 6,188,189
 1474.5625 574.625 1474.5625 574.625 1465.8125 587.125 c 4,190,191
 1450.8125 609.625 1450.8125 609.625 1472.0625 652.125 c 4,179,180
1533.3125 653.375 m 4,192,193
 1537.0625 663.375 1537.0625 663.375 1543.9375 665.25 c 132,-1,194
 1550.8125 667.125 1550.8125 667.125 1577.0625 667.125 c 4,195,196
 1624.5625 667.125 1624.5625 667.125 1633.9375 649 c 132,-1,197
 1643.3125 630.875 1643.3125 630.875 1610.8125 599.625 c 4,198,199
 1594.5625 583.375 1594.5625 583.375 1585.8125 579 c 132,-1,200
 1577.0625 574.625 1577.0625 574.625 1560.8125 574.625 c 4,201,202
 1547.0625 574.625 1547.0625 574.625 1542.6875 576.5 c 132,-1,203
 1538.3125 578.375 1538.3125 578.375 1539.5625 583.375 c 4,204,205
 1543.3125 592.125 1543.3125 592.125 1534.5625 608.375 c 4,206,207
 1527.0625 623.375 1527.0625 623.375 1526.4375 630.875 c 132,-1,208
 1525.8125 638.375 1525.8125 638.375 1533.3125 653.375 c 4,192,193
EndSplineSet
Validated: 41
EndChar

StartChar: uniE023
Encoding: 57379 57379 31
Width: 2893
GlyphClass: 2
Flags: W
LayerCount: 2
Fore
SplineSet
1204 735 m 0,0,1
 1198 733 1198 733 1187 720.5 c 128,-1,2
 1176 708 1176 708 1169 696 c 0,3,4
 1162 683 1162 683 1156 683 c 128,-1,5
 1150 683 1150 683 1079 649 c 0,6,7
 991 607 991 607 921 580.5 c 128,-1,8
 851 554 851 554 829 554 c 0,9,10
 812 554 812 554 801 568 c 2,11,-1
 790 582 l 1,12,-1
 491 554 l 2,13,14
 257 532 257 532 211 525 c 128,-1,15
 165 518 165 518 154 501 c 0,16,17
 135 473 135 473 143 334 c 0,18,19
 145 302 145 302 146.5 279.5 c 128,-1,20
 148 257 148 257 150.5 237.5 c 128,-1,21
 153 218 153 218 155.5 205.5 c 128,-1,22
 158 193 158 193 162 183 c 128,-1,23
 166 173 166 173 171 168.5 c 128,-1,24
 176 164 176 164 182.5 161.5 c 128,-1,25
 189 159 189 159 196.5 160 c 128,-1,26
 204 161 204 161 214 164 c 0,27,28
 238 170 238 170 491.5 270.5 c 128,-1,29
 745 371 745 371 753.5 373.5 c 128,-1,30
 762 376 762 376 770 366 c 0,31,32
 777 357 777 357 807.5 353 c 128,-1,33
 838 349 838 349 873 353 c 2,34,-1
 904 356 l 1,35,-1
 907 373 l 2,36,37
 917 427 917 427 965 464 c 128,-1,38
 1013 501 1013 501 1068 498 c 2,39,-1
 1094 496 l 1,40,-1
 1103 472 l 2,41,42
 1113 446 1113 446 1126 438 c 128,-1,43
 1139 430 1139 430 1169 430 c 0,44,45
 1207 430 1207 430 1229 437 c 128,-1,46
 1251 444 1251 444 1291 468 c 0,47,48
 1340 497 1340 497 1356 503 c 0,49,50
 1370 508 1370 508 1492 508 c 128,-1,51
 1614 508 1614 508 1617 504 c 0,52,53
 1619 499 1619 499 1649 502 c 0,54,55
 1670 504 1670 504 1674.5 503 c 128,-1,56
 1679 502 1679 502 1679 496 c 0,57,58
 1679 485 1679 485 1701.5 475.5 c 128,-1,59
 1724 466 1724 466 1750 466 c 0,60,61
 1804 466 1804 466 2270 492 c 0,62,63
 2397 499 2397 499 2404.5 496 c 128,-1,64
 2412 493 2412 493 2419.5 505 c 128,-1,65
 2427 517 2427 517 2446.5 517 c 128,-1,66
 2466 517 2466 517 2471 512 c 0,67,68
 2475 508 2475 508 2518 510 c 128,-1,69
 2561 512 2561 512 2568 517 c 0,70,71
 2572 519 2572 519 2580 531 c 0,72,73
 2594 551 2594 551 2584.5 573.5 c 128,-1,74
 2575 596 2575 596 2553 596 c 0,75,76
 2537 596 2537 596 2537 600.5 c 128,-1,77
 2537 605 2537 605 2586.5 605.5 c 128,-1,78
 2636 606 2636 606 2652 607.5 c 128,-1,79
 2668 609 2668 609 2798 609 c 2,80,-1
 2928 609 l 1,81,-1
 2931 623 l 2,82,83
 2934 637 2934 637 2931 651 c 0,84,85
 2929 661 2929 661 2925.5 663 c 128,-1,86
 2922 665 2922 665 2909 665 c 0,87,88
 2889 665 2889 665 2876.5 676 c 128,-1,89
 2864 687 2864 687 2864 692 c 256,90,91
 2864 697 2864 697 2848 704 c 128,-1,92
 2832 711 2832 711 2821 711 c 0,93,94
 2809 711 2809 711 2804.5 699.5 c 128,-1,95
 2800 688 2800 688 2795.5 688 c 128,-1,96
 2791 688 2791 688 2791 683 c 128,-1,97
 2791 678 2791 678 2783 671 c 0,98,99
 2778 666 2778 666 2693 665 c 128,-1,100
 2608 664 2608 664 2250 666 c 0,101,102
 1898 668 1898 668 1810 669.5 c 128,-1,103
 1722 671 1722 671 1719.5 676 c 128,-1,104
 1717 681 1717 681 1683 682 c 128,-1,105
 1649 683 1649 683 1520 683 c 2,106,-1
 1324 683 l 1,107,-1
 1316 695 l 2,108,109
 1312 702 1312 702 1306.5 704 c 128,-1,110
 1301 706 1301 706 1288 706 c 0,111,112
 1267 706 1267 706 1239 721.5 c 128,-1,113
 1211 737 1211 737 1204 735 c 0,0,1
2801 673 m 0,114,115
 2804 677 2804 677 2829.5 677.5 c 128,-1,116
 2855 678 2855 678 2857 674 c 0,117,118
 2860 669 2860 669 2829.5 669 c 128,-1,119
 2799 669 2799 669 2801 673 c 0,114,115
2452 591 m 0,120,121
 2454 596 2454 596 2461 596 c 128,-1,122
 2468 596 2468 596 2468 591 c 128,-1,123
 2468 586 2468 586 2458 586 c 0,124,125
 2454 586 2454 586 2452 587.5 c 128,-1,126
 2450 589 2450 589 2452 591 c 0,120,121
1154 493 m 0,127,128
 1160 499 1160 499 1190 499 c 0,129,130
 1216 499 1216 499 1224 494 c 128,-1,131
 1232 489 1232 489 1232 473 c 256,132,133
 1232 457 1232 457 1220.5 449.5 c 128,-1,134
 1209 442 1209 442 1178 439 c 0,135,136
 1155 437 1155 437 1147 438 c 128,-1,137
 1139 439 1139 439 1132 445 c 0,138,139
 1121 453 1121 453 1121 471 c 256,140,141
 1121 489 1121 489 1125 489 c 256,142,143
 1129 489 1129 489 1132 476 c 0,144,145
 1134 464 1134 464 1143.5 453.5 c 128,-1,146
 1153 443 1153 443 1161 443 c 0,147,148
 1168 443 1168 443 1163 449 c 0,149,150
 1161 450 1161 450 1159 453 c 0,151,152
 1150 460 1150 460 1148.5 473.5 c 128,-1,153
 1147 487 1147 487 1154 493 c 0,127,128
EndSplineSet
Validated: 41
EndChar

StartChar: uniE024
Encoding: 57380 57380 32
Width: 2125
GlyphClass: 2
Flags: W
LayerCount: 2
Fore
SplineSet
1619 829 m 2,0,1
 1619 807 1619 807 1617.5 800.5 c 128,-1,2
 1616 794 1616 794 1612 794 c 0,3,4
 1604 794 1604 794 1591 784 c 128,-1,5
 1578 774 1578 774 1578 769 c 0,6,7
 1578 763 1578 763 1565 761 c 0,8,9
 1557 759 1557 759 1417 759.5 c 128,-1,10
 1277 760 1277 760 1260 761 c 0,11,12
 1255 762 1255 762 1255 773 c 128,-1,13
 1255 784 1255 784 1247 788 c 0,14,15
 1243 791 1243 791 1243 792.5 c 128,-1,16
 1243 794 1243 794 1247 798 c 0,17,18
 1254 803 1254 803 1254.5 816.5 c 128,-1,19
 1255 830 1255 830 1250 833 c 256,20,21
 1245 836 1245 836 1240.5 847.5 c 128,-1,22
 1236 859 1236 859 1227 859 c 256,23,24
 1218 859 1218 859 1211 843.5 c 128,-1,25
 1204 828 1204 828 1204 810 c 0,26,27
 1204 794 1204 794 1192.5 786.5 c 128,-1,28
 1181 779 1181 779 1174 765 c 0,29,30
 1163 741 1163 741 1151 701 c 128,-1,31
 1139 661 1139 661 1139 649 c 2,32,-1
 1139 633 l 1,33,-1
 632 633 l 1,34,-1
 125 633 l 1,35,-1
 122 619 l 2,36,37
 119 605 119 605 124.5 530 c 128,-1,38
 130 455 130 455 128 330 c 2,39,-1
 127 206 l 1,40,-1
 350 206 l 1,41,-1
 573 206 l 1,42,-1
 579 222 l 2,43,44
 584 238 584 238 594 239.5 c 128,-1,45
 604 241 604 241 692 210 c 0,46,47
 750 189 750 189 765 182 c 128,-1,48
 780 175 780 175 780 168 c 0,49,50
 780 158 780 158 784 147 c 0,51,52
 787 139 787 139 795 136.5 c 128,-1,53
 803 134 803 134 838 131 c 0,54,55
 1005 112 1005 112 1113 165 c 0,56,57
 1180 197 1180 197 1216 247 c 0,58,59
 1223 257 1223 257 1230.5 259.5 c 128,-1,60
 1238 262 1238 262 1267 264 c 0,61,62
 1284 266 1284 266 1292 266.5 c 128,-1,63
 1300 267 1300 267 1307.5 264 c 128,-1,64
 1315 261 1315 261 1316.5 257.5 c 128,-1,65
 1318 254 1318 254 1318 242.5 c 128,-1,66
 1318 231 1318 231 1315.5 220 c 128,-1,67
 1313 209 1313 209 1308 185 c 0,68,69
 1297 137 1297 137 1302 134 c 0,70,71
 1308 130 1308 130 1340.5 127.5 c 128,-1,72
 1373 125 1373 125 1395 128 c 0,73,74
 1461 134 1461 134 1507 166 c 0,75,76
 1523 176 1523 176 1531 186 c 128,-1,77
 1539 196 1539 196 1550 218 c 0,78,79
 1578 272 1578 272 1578 327 c 0,80,81
 1578 350 1578 350 1588 357.5 c 128,-1,82
 1598 365 1598 365 1630 365 c 0,83,84
 1664 365 1664 365 1669 359 c 128,-1,85
 1674 353 1674 353 1677 314 c 2,86,-1
 1681 275 l 1,87,-1
 1715 274 l 1,88,-1
 1748 272 l 1,89,-1
 1749 288 l 2,90,91
 1749 303 1749 303 1752 365 c 0,92,93
 1755 408 1755 408 1754 420.5 c 128,-1,94
 1753 433 1753 433 1747 445 c 0,95,96
 1737 462 1737 462 1732 462 c 128,-1,97
 1727 462 1727 462 1734 466.5 c 128,-1,98
 1741 471 1741 471 1754 471 c 128,-1,99
 1767 471 1767 471 1767 466 c 0,100,101
 1767 462 1767 462 1851 463 c 2,102,-1
 1935 464 l 1,103,-1
 1933 487 l 2,104,105
 1932 510 1932 510 1926 526 c 2,106,-1
 1921 543 l 1,107,-1
 1848 544 l 2,108,109
 1774 545 1774 545 1769.5 540.5 c 128,-1,110
 1765 536 1765 536 1748 536 c 2,111,-1
 1737 537 l 2,112,113
 1737 538 1737 538 1744 540 c 0,114,115
 1752 542 1752 542 1753.5 550.5 c 128,-1,116
 1755 559 1755 559 1756 608 c 2,117,-1
 1758 673 l 1,118,-1
 1723 715 l 2,119,120
 1699 743 1699 743 1690.5 750 c 128,-1,121
 1682 757 1682 757 1672 757 c 0,122,123
 1659 757 1659 757 1655 767.5 c 128,-1,124
 1651 778 1651 778 1647 824 c 0,125,126
 1645 851 1645 851 1643 856 c 128,-1,127
 1641 861 1641 861 1632 862 c 2,128,-1
 1619 864 l 1,129,-1
 1619 829 l 2,0,1
1165.5 722 m 128,-1,131
 1169 725 1169 725 1217 725 c 0,132,133
 1251 725 1251 725 1257.5 723.5 c 128,-1,134
 1264 722 1264 722 1263 715 c 128,-1,135
 1262 708 1262 708 1254.5 706.5 c 128,-1,136
 1247 705 1247 705 1212 705 c 0,137,138
 1180 704 1180 704 1171 705.5 c 128,-1,139
 1162 707 1162 707 1162 711 c 0,140,130
 1162 719 1162 719 1165.5 722 c 128,-1,131
1266 667 m 0,141,142
 1268 674 1268 674 1271 675.5 c 128,-1,143
 1274 677 1274 677 1286 676 c 0,144,145
 1319 672 1319 672 1394 668.5 c 128,-1,146
 1469 665 1469 665 1508 665 c 0,147,148
 1561 665 1561 665 1580.5 662 c 128,-1,149
 1600 659 1600 659 1602.5 651 c 128,-1,150
 1605 643 1605 643 1617 638 c 0,151,152
 1625 634 1625 634 1627.5 626 c 128,-1,153
 1630 618 1630 618 1624 612 c 0,154,155
 1620 607 1620 607 1618 579 c 2,156,-1
 1616 566 l 1,157,158
 1616 570 1616 570 1615 594 c 0,159,160
 1615 628 1615 628 1610 635.5 c 128,-1,161
 1605 643 1605 643 1589 637 c 0,162,163
 1577 633 1577 633 1418 633 c 2,164,-1
 1259 633 l 1,165,-1
 1261 644 l 2,166,167
 1265 660 1265 660 1266 667 c 0,141,142
1335 418 m 2,168,169
 1349 431 1349 431 1359.5 433 c 128,-1,170
 1370 435 1370 435 1399 431 c 0,171,172
 1414 429 1414 429 1418.5 426 c 128,-1,173
 1423 423 1423 423 1428 411 c 0,174,175
 1436 394 1436 394 1448 389 c 0,176,177
 1462 384 1462 384 1470 370 c 128,-1,178
 1478 356 1478 356 1478 339 c 0,179,180
 1478 319 1478 319 1463 304 c 0,181,182
 1442 282 1442 282 1415 284.5 c 128,-1,183
 1388 287 1388 287 1376 312 c 0,184,185
 1370 323 1370 323 1365.5 325.5 c 128,-1,186
 1361 328 1361 328 1345 328 c 2,187,-1
 1321 328 l 1,188,-1
 1320 365 l 1,189,-1
 1319 402 l 1,190,-1
 1335 418 l 2,168,169
878 401 m 2,191,-1
 901 425 l 1,192,-1
 976 425 l 2,193,194
 1030 425 1030 425 1041.5 423.5 c 128,-1,195
 1053 422 1053 422 1060 414 c 0,196,197
 1071 403 1071 403 1073 384.5 c 128,-1,198
 1075 366 1075 366 1068 352 c 0,199,200
 1061 337 1061 337 1028.5 316 c 128,-1,201
 996 295 996 295 960 282 c 0,202,203
 933 271 933 271 924.5 270 c 128,-1,204
 916 269 916 269 902 273 c 0,205,206
 875 281 875 281 861 302.5 c 128,-1,207
 847 324 847 324 851 353 c 0,208,209
 853 368 853 368 858 376.5 c 128,-1,210
 863 385 863 385 878 401 c 2,191,-1
EndSplineSet
Validated: 37
EndChar

StartChar: uniE026
Encoding: 57382 57382 33
Width: 2893
GlyphClass: 2
Flags: W
LayerCount: 2
Fore
SplineSet
1305 803 m 0,0,1
 1305 794 1305 794 1301 794 c 128,-1,2
 1297 794 1297 794 1294 782 c 0,3,4
 1290 767 1290 767 1281.5 762 c 128,-1,5
 1273 757 1273 757 1252 757 c 0,6,7
 1236 757 1236 757 1230.5 758.5 c 128,-1,8
 1225 760 1225 760 1224 766 c 0,9,10
 1222 772 1222 772 1215.5 773.5 c 128,-1,11
 1209 775 1209 775 1183 775 c 0,12,13
 1156 775 1156 775 1150 774 c 128,-1,14
 1144 773 1144 773 1144 766 c 0,15,16
 1144 758 1144 758 1133.5 757 c 128,-1,17
 1123 756 1123 756 1111 762 c 0,18,19
 1104 766 1104 766 1002.5 767 c 128,-1,20
 901 768 901 768 895 764 c 0,21,22
 891 761 891 761 890.5 723.5 c 128,-1,23
 890 686 890 686 894 680 c 256,24,25
 898 674 898 674 1001.5 676 c 128,-1,26
 1105 678 1105 678 1124 681 c 2,27,-1
 1144 684 l 1,28,-1
 1144 645 l 1,29,30
 1144 645 1144 645 1144 638 c 2,31,32
 1144 610 1144 610 1138 605.5 c 128,-1,33
 1132 601 1132 601 1094 601 c 2,34,35
 1094 601 1094 601 1085 601 c 1,36,-1
 1043 601 l 1,37,-1
 1042 616 l 2,38,39
 1040 627 1040 627 1036.5 628.5 c 128,-1,40
 1033 630 1033 630 1012 630 c 0,41,42
 985 630 985 630 963 641 c 128,-1,43
 941 652 941 652 931.5 646.5 c 128,-1,44
 922 641 922 641 898 639 c 0,45,46
 886 638 886 638 877.5 635 c 128,-1,47
 869 632 869 632 865.5 628 c 128,-1,48
 862 624 862 624 865 619 c 256,49,50
 868 614 868 614 876.5 614 c 128,-1,51
 885 614 885 614 888 609 c 0,52,53
 890 607 890 607 883 606 c 0,54,55
 878 605 878 605 872 605 c 0,56,57
 859 605 859 605 856 603 c 128,-1,58
 853 601 853 601 853 591 c 0,59,60
 853 577 853 577 841 572.5 c 128,-1,61
 829 568 829 568 793 568 c 2,62,-1
 757 568 l 1,63,-1
 703 508 l 1,64,-1
 650 448 l 1,65,-1
 586 448 l 1,66,-1
 521 448 l 1,67,-1
 521 464 l 1,68,-1
 521 480 l 1,69,-1
 582 480 l 2,70,71
 621 480 621 480 635 482 c 128,-1,72
 649 484 649 484 658 489 c 0,73,74
 672 498 672 498 714 552.5 c 128,-1,75
 756 607 756 607 756 617 c 1,76,77
 740 618 740 618 640.5 617.5 c 128,-1,78
 541 617 541 617 424 615 c 128,-1,79
 307 613 307 613 305 611 c 0,80,81
 302 608 302 608 299 583 c 128,-1,82
 296 558 296 558 295 532 c 0,83,84
 295 505 295 505 297 498.5 c 128,-1,85
 299 492 299 492 309 485 c 0,86,87
 322 476 322 476 362 476 c 2,88,-1
 401 476 l 1,89,-1
 401 462 l 1,90,-1
 401 448 l 1,91,-1
 346 448 l 2,92,93
 306 448 306 448 298.5 446.5 c 128,-1,94
 291 445 291 445 290 438 c 256,95,96
 289 431 289 431 283.5 429 c 128,-1,97
 278 427 278 427 257 426 c 2,98,-1
 226 425 l 1,99,-1
 226 464 l 2,100,101
 226 501 226 501 222.5 509 c 128,-1,102
 219 517 219 517 204 517 c 0,103,104
 188 517 188 517 183 523.5 c 128,-1,105
 178 530 178 530 156 534 c 0,106,107
 138 536 138 536 137 533 c 0,108,109
 133 528 133 528 138 439 c 0,110,111
 143 367 143 367 137.5 280.5 c 128,-1,112
 132 194 132 194 135 191.5 c 128,-1,113
 138 189 138 189 158.5 192 c 128,-1,114
 179 195 179 195 182 203.5 c 128,-1,115
 185 212 185 212 204 214 c 2,116,-1
 224 215 l 1,117,-1
 225 253 l 1,118,-1
 226 291 l 1,119,-1
 257 291 l 2,120,121
 278 291 278 291 284 289.5 c 128,-1,122
 290 288 290 288 293 281 c 2,123,-1
 298 270 l 1,124,-1
 470 270 l 1,125,-1
 643 270 l 1,126,-1
 645 285 l 2,127,128
 646 299 646 299 678 338 c 2,129,-1
 709 377 l 1,130,-1
 759 380 l 2,131,132
 815 384 815 384 834 383 c 128,-1,133
 853 382 853 382 858 377 c 0,134,135
 864 370 864 370 914 370 c 0,136,137
 951 370 951 370 959.5 368 c 128,-1,138
 968 366 968 366 978 356 c 0,139,140
 992 343 992 343 992 336 c 0,141,142
 992 322 992 322 978 297 c 128,-1,143
 964 272 964 272 923 213 c 0,144,145
 863 125 863 125 863 122 c 256,146,147
 863 119 863 119 906 106.5 c 128,-1,148
 949 94 949 94 972 90 c 0,149,150
 988 88 988 88 992.5 92 c 128,-1,151
 997 96 997 96 998 113 c 0,152,153
 999 126 999 126 1020.5 160 c 128,-1,154
 1042 194 1042 194 1049 194 c 256,155,156
 1056 194 1056 194 1056 208 c 128,-1,157
 1056 222 1056 222 1068 241 c 2,158,-1
 1080 259 l 1,159,-1
 1157 258 l 2,160,161
 1234 257 1234 257 1248 260 c 2,162,-1
 1263 264 l 1,163,-1
 1266 176 l 2,164,165
 1267 144 1267 144 1268 128.5 c 128,-1,166
 1269 113 1269 113 1270 103 c 128,-1,167
 1271 93 1271 93 1272.5 91 c 128,-1,168
 1274 89 1274 89 1277 90 c 0,169,170
 1285 92 1285 92 1365.5 107 c 128,-1,171
 1446 122 1446 122 1452 126.5 c 128,-1,172
 1458 131 1458 131 1458 216 c 0,173,174
 1458 276 1458 276 1459 288 c 128,-1,175
 1460 300 1460 300 1467 300 c 0,176,177
 1484 300 1484 300 1475 324 c 0,178,179
 1469 340 1469 340 1471 364 c 0,180,181
 1472 382 1472 382 1475 387 c 128,-1,182
 1478 392 1478 392 1494 403 c 0,183,184
 1516 418 1516 418 1520 434 c 0,185,186
 1525 452 1525 452 1530.5 451.5 c 128,-1,187
 1536 451 1536 451 1536 432 c 0,188,189
 1536 417 1536 417 1538 414 c 128,-1,190
 1540 411 1540 411 1550 411 c 0,191,192
 1563 411 1563 411 1566 415 c 0,193,194
 1568 419 1568 419 1610.5 418.5 c 128,-1,195
 1653 418 1653 418 1659 414 c 0,196,197
 1665 411 1665 411 1667 415 c 0,198,199
 1670 419 1670 419 1712.5 418.5 c 128,-1,200
 1755 418 1755 418 1761 414 c 0,201,202
 1766 411 1766 411 1769 415.5 c 128,-1,203
 1772 420 1772 420 1783 420 c 128,-1,204
 1794 420 1794 420 1796.5 415.5 c 128,-1,205
 1799 411 1799 411 1808 417 c 128,-1,206
 1817 423 1817 423 1826 417 c 128,-1,207
 1835 411 1835 411 1838 416 c 256,208,209
 1841 421 1841 421 1851.5 420.5 c 128,-1,210
 1862 420 1862 420 1867 415 c 0,211,212
 1873 409 1873 409 1873 415 c 0,213,214
 1873 420 1873 420 1884 420.5 c 128,-1,215
 1895 421 1895 421 1898 416 c 256,216,217
 1901 411 1901 411 1910 417 c 128,-1,218
 1919 423 1919 423 1923 416.5 c 128,-1,219
 1927 410 1927 410 1937.5 416.5 c 128,-1,220
 1948 423 1948 423 1950 417 c 128,-1,221
 1952 411 1952 411 1968 411 c 0,222,223
 1979 411 1979 411 1981 413.5 c 128,-1,224
 1983 416 1983 416 1983 431 c 2,225,-1
 1983 451 l 1,226,-1
 2318 454 l 2,227,228
 2653 458 2653 458 2658 454 c 0,229,230
 2665 449 2665 449 2827 452.5 c 128,-1,231
 2989 456 2989 456 2994 460 c 0,232,233
 2999 465 2999 465 2994 468.5 c 128,-1,234
 2989 472 2989 472 2989 481 c 128,-1,235
 2989 490 2989 490 2994 490 c 128,-1,236
 2999 490 2999 490 2994 496 c 0,237,238
 2984 508 2984 508 2761 508 c 0,239,240
 2659 509 2659 509 2657.5 504 c 128,-1,241
 2656 499 2656 499 2525 499 c 2,242,-1
 2394 499 l 1,243,-1
 2394 538 l 2,244,245
 2394 577 2394 577 2389.5 577 c 128,-1,246
 2385 577 2385 577 2390.5 586 c 128,-1,247
 2396 595 2396 595 2392.5 598.5 c 128,-1,248
 2389 602 2389 602 2238 602 c 2,249,-1
 2086 602 l 1,250,-1
 2081 626 l 2,251,252
 2077 644 2077 644 2074 647.5 c 128,-1,253
 2071 651 2071 651 2060 651 c 0,254,255
 2044 651 2044 651 2042.5 646 c 128,-1,256
 2041 641 2041 641 2028 646 c 128,-1,257
 2015 651 2015 651 1976 651 c 2,258,-1
 1937 651 l 1,259,-1
 1937 630 l 1,260,-1
 1937 608 l 1,261,-1
 1988 612 l 2,262,263
 2020 614 2020 614 2029.5 613 c 128,-1,264
 2039 612 2039 612 2039 608 c 128,-1,265
 2039 604 2039 604 1990 603 c 128,-1,266
 1941 602 1941 602 1769 602 c 2,267,-1
 1499 602 l 1,268,-1
 1499 642 l 1,269,-1
 1499 683 l 1,270,-1
 1538 683 l 2,271,272
 1577 683 1577 683 1668 662 c 0,273,274
 1736 647 1736 647 1759 644.5 c 128,-1,275
 1782 642 1782 642 1844 642 c 0,276,277
 1928 642 1928 642 1930 646 c 0,278,279
 1934 652 1934 652 1936 698 c 128,-1,280
 1938 744 1938 744 1935 768 c 2,281,-1
 1932 799 l 1,282,-1
 1842 799 l 2,283,284
 1775 799 1775 799 1752 796 c 128,-1,285
 1729 793 1729 793 1660 778 c 0,286,287
 1499 742 1499 742 1499 766 c 0,288,289
 1499 773 1499 773 1493 774 c 128,-1,290
 1487 775 1487 775 1460 775 c 128,-1,291
 1433 775 1433 775 1427 774 c 128,-1,292
 1421 773 1421 773 1421 766 c 0,293,294
 1421 760 1421 760 1417 758.5 c 128,-1,295
 1413 757 1413 757 1401 757 c 0,296,297
 1385 757 1385 757 1375 764 c 128,-1,298
 1365 771 1365 771 1365 782 c 0,299,300
 1365 790 1365 790 1358 792.5 c 128,-1,301
 1351 795 1351 795 1351 804 c 0,302,303
 1351 809 1351 809 1347 810.5 c 128,-1,304
 1343 812 1343 812 1328 812 c 256,305,306
 1313 812 1313 812 1309 810.5 c 128,-1,307
 1305 809 1305 809 1305 803 c 0,0,1
1225.5 685 m 128,-1,309
 1226 686 1226 686 1251 685 c 0,310,311
 1281 684 1281 684 1304 673 c 0,312,313
 1315 668 1315 668 1331 668.5 c 128,-1,314
 1347 669 1347 669 1354 674 c 0,315,316
 1361 680 1361 680 1367.5 677 c 128,-1,317
 1374 674 1374 674 1377 678.5 c 128,-1,318
 1380 683 1380 683 1400 683 c 2,319,-1
 1421 683 l 1,320,-1
 1421 660 l 1,321,-1
 1421 637 l 1,322,-1
 1324 637 l 1,323,-1
 1228 637 l 1,324,-1
 1226 661 l 2,325,308
 1225 684 1225 684 1225.5 685 c 128,-1,309
897 609 m 0,326,327
 900 614 900 614 904 614 c 128,-1,328
 908 614 908 614 911 609 c 0,329,330
 912 608 912 608 910 606.5 c 128,-1,331
 908 605 908 605 904 605 c 128,-1,332
 900 605 900 605 898 606.5 c 128,-1,333
 896 608 896 608 897 609 c 0,326,327
2053 568 m 128,-1,335
 2053 573 2053 573 2152 573 c 2,336,-1
 2251 573 l 1,337,-1
 2251 555 l 1,338,339
 2251 555 2251 555 2251 550 c 2,340,341
 2251 525 2251 525 2242 521 c 128,-1,342
 2233 517 2233 517 2180 517 c 2,343,344
 2180 517 2180 517 2169 517 c 2,345,346
 2097 518 2097 518 2097 522 c 0,347,348
 2100 527 2100 527 2094.5 530.5 c 128,-1,349
 2089 534 2089 534 2093 543 c 0,350,351
 2099 554 2099 554 2094 558.5 c 128,-1,352
 2089 563 2089 563 2073 563 c 0,353,334
 2053 563 2053 563 2053 568 c 128,-1,335
221 372 m 2,354,-1
 221 402 l 1,355,-1
 256 402 l 1,356,-1
 291 402 l 1,357,-1
 291 358 l 1,358,-1
 291 314 l 1,359,-1
 259 314 l 1,360,-1
 227 314 l 1,361,-1
 224 329 l 2,362,363
 221 343 221 343 221 372 c 2,354,-1
1117 341 m 0,364,365
 1127 351 1127 351 1129 330 c 0,366,367
 1130 325 1130 325 1130 320 c 0,368,369
 1130 305 1130 305 1137 289 c 2,370,-1
 1143 273 l 1,371,-1
 1130 273 l 2,372,373
 1117 273 1117 273 1114 280 c 0,374,375
 1111 290 1111 290 1112 313.5 c 128,-1,376
 1113 337 1113 337 1117 341 c 0,364,365
1161 328 m 0,377,378
 1174 341 1174 341 1180.5 344 c 128,-1,379
 1187 347 1187 347 1204 347 c 0,380,381
 1229 347 1229 347 1237 338.5 c 128,-1,382
 1245 330 1245 330 1245 305 c 0,383,384
 1245 287 1245 287 1243.5 282 c 128,-1,385
 1242 277 1242 277 1233 273 c 0,386,387
 1221 268 1221 268 1189 269 c 0,388,389
 1168 269 1168 269 1162 271 c 128,-1,390
 1156 273 1156 273 1153 279 c 0,391,392
 1145 301 1145 301 1146 307.5 c 128,-1,393
 1147 314 1147 314 1161 328 c 0,377,378
EndSplineSet
Validated: 41
EndChar

StartChar: uniE027
Encoding: 57383 57383 34
Width: 2688
GlyphClass: 2
Flags: W
LayerCount: 2
Fore
SplineSet
856 862 m 128,-1,1
 853 852 853 852 853 839.5 c 128,-1,2
 853 827 853 827 844 822 c 0,3,4
 838 818 838 818 836.5 809.5 c 128,-1,5
 835 801 835 801 835 770 c 0,6,7
 835 706 835 706 845 711 c 2,8,9
 845 711 845 711 848 714 c 2,10,11
 852 720 852 720 896 719 c 2,12,-1
 941 718 l 1,13,-1
 941 699 l 1,14,-1
 941 680 l 1,15,-1
 921 680 l 2,16,17
 900 681 900 681 896.5 684.5 c 128,-1,18
 893 688 893 688 873 688 c 128,-1,19
 853 688 853 688 853 684 c 0,20,21
 853 682 853 682 837 681 c 128,-1,22
 821 680 821 680 802.5 681.5 c 128,-1,23
 784 683 784 683 779 685 c 0,24,25
 771 688 771 688 753 687 c 0,26,27
 741 686 741 686 738.5 684 c 128,-1,28
 736 682 736 682 737 673 c 0,29,30
 737 665 737 665 735.5 662.5 c 128,-1,31
 734 660 734 660 728 660 c 0,32,33
 719 660 719 660 691 635 c 2,34,-1
 663 610 l 1,35,-1
 415 610 l 1,36,-1
 167 609 l 1,37,-1
 162 623 l 2,38,39
 159 633 159 633 154.5 635 c 128,-1,40
 150 637 150 637 134 637 c 0,41,42
 111 637 111 637 106 628 c 128,-1,43
 101 619 101 619 101 531 c 128,-1,44
 101 443 101 443 113 368 c 0,45,46
 121 321 121 321 125 298.5 c 128,-1,47
 129 276 129 276 134.5 261.5 c 128,-1,48
 140 247 140 247 146 243.5 c 128,-1,49
 152 240 152 240 162 240 c 0,50,51
 194 240 194 240 208 279 c 0,52,53
 214 297 214 297 231.5 311 c 128,-1,54
 249 325 249 325 270.5 352 c 128,-1,55
 292 379 292 379 317 390.5 c 128,-1,56
 342 402 342 402 345 402 c 128,-1,57
 348 402 348 402 331 385 c 0,58,59
 309 362 309 362 312 345 c 0,60,61
 313 340 313 340 319 340 c 0,62,63
 327 341 327 341 373 376 c 0,64,65
 435 424 435 424 442 406 c 0,66,67
 443 402 443 402 443 397 c 0,68,69
 443 383 443 383 452 383 c 0,70,71
 458 383 458 383 459.5 386.5 c 128,-1,72
 461 390 461 390 461 400 c 2,73,-1
 461 416 l 1,74,-1
 496 416 l 1,75,-1
 530 416 l 1,76,-1
 530 434 l 1,77,-1
 530 453 l 1,78,-1
 569 453 l 2,79,80
 604 453 604 453 613.5 460 c 128,-1,81
 623 467 623 467 623 493 c 2,82,-1
 623 517 l 1,83,-1
 639 517 l 1,84,-1
 655 517 l 1,85,-1
 655 495 l 2,86,87
 655 478 655 478 657 475 c 128,-1,88
 659 472 659 472 672 469 c 0,89,90
 683 468 683 468 689.5 462.5 c 128,-1,91
 696 457 696 457 707 441 c 0,92,93
 727 412 727 412 721.5 391.5 c 128,-1,94
 716 371 716 371 673 316 c 0,95,96
 632 264 632 264 622 247 c 128,-1,97
 612 230 612 230 619 226 c 0,98,99
 632 218 632 218 697.5 194.5 c 128,-1,100
 763 171 763 171 768 173 c 0,101,102
 776 176 776 176 773.5 188.5 c 128,-1,103
 771 201 771 201 810.5 269.5 c 128,-1,104
 850 338 850 338 859 342.5 c 128,-1,105
 868 347 868 347 964 350 c 0,106,107
 1046 352 1046 352 1060.5 348 c 128,-1,108
 1075 344 1075 344 1075 319 c 0,109,110
 1075 291 1075 291 1089.5 216.5 c 128,-1,111
 1104 142 1104 142 1121 79.5 c 128,-1,112
 1138 17 1138 17 1144 18 c 0,113,114
 1155 21 1155 21 1234 46 c 128,-1,115
 1313 71 1313 71 1314 73 c 0,116,117
 1316 74 1316 74 1290 170 c 0,118,119
 1237 366 1237 366 1264 373 c 0,120,121
 1273 375 1273 375 1268 384 c 256,122,123
 1263 393 1263 393 1263.5 418 c 128,-1,124
 1264 443 1264 443 1270 443 c 256,125,126
 1276 443 1276 443 1310 460 c 2,127,-1
 1345 476 l 1,128,-1
 1416 473 l 2,129,130
 1488 470 1488 470 1502 461 c 0,131,132
 1512 455 1512 455 1554 454 c 128,-1,133
 1596 453 1596 453 1794 453 c 2,134,-1
 2071 453 l 1,135,-1
 2084 478 l 2,136,137
 2096 503 2096 503 2102 503 c 128,-1,138
 2108 503 2108 503 2111 519.5 c 128,-1,139
 2114 536 2114 536 2119 532.5 c 128,-1,140
 2124 529 2124 529 2128.5 529 c 128,-1,141
 2133 529 2133 529 2133 503 c 0,142,143
 2133 484 2133 484 2135 481 c 128,-1,144
 2137 478 2137 478 2149 477 c 2,145,-1
 2164 475 l 1,146,-1
 2163 504 l 2,147,148
 2162 526 2162 526 2163.5 530 c 128,-1,149
 2165 534 2165 534 2174 535 c 0,150,151
 2186 536 2186 536 2186 543 c 0,152,153
 2186 548 2186 548 2206.5 549 c 128,-1,154
 2227 550 2227 550 2307 547 c 0,155,156
 2429 544 2429 544 2495 541 c 0,157,158
 2530 537 2530 537 2546.5 539.5 c 128,-1,159
 2563 542 2563 542 2566 547 c 128,-1,160
 2569 552 2569 552 2569 569 c 0,161,162
 2569 590 2569 590 2559 593 c 128,-1,163
 2549 596 2549 596 2490 594 c 0,164,165
 2419 591 2419 591 2304 588 c 0,166,167
 2195 586 2195 586 2195 590 c 0,168,169
 2195 591 2195 591 2197 593 c 0,170,171
 2205 601 2205 601 2205 610 c 0,172,173
 2205 615 2205 615 2209 617 c 128,-1,174
 2213 619 2213 619 2228 619 c 0,175,176
 2251 619 2251 619 2251 623.5 c 128,-1,177
 2251 628 2251 628 2244 628 c 128,-1,178
 2237 628 2237 628 2237 635 c 128,-1,179
 2237 642 2237 642 2244 642 c 128,-1,180
 2251 642 2251 642 2251 646.5 c 128,-1,181
 2251 651 2251 651 2228 651 c 0,182,183
 2212 651 2212 651 2208.5 653 c 128,-1,184
 2205 655 2205 655 2203 665 c 0,185,186
 2201 674 2201 674 2199 676.5 c 128,-1,187
 2197 679 2197 679 2191 677 c 0,188,189
 2185 676 2185 676 2183.5 678.5 c 128,-1,190
 2182 681 2182 681 2182 693 c 2,191,-1
 2182 711 l 1,192,-1
 2141 711 l 2,193,194
 2100 711 2100 711 2074 706 c 0,195,196
 2056 702 2056 702 2052 699 c 128,-1,197
 2048 696 2048 696 2047 686 c 2,198,-1
 2046 672 l 1,199,-1
 1710 669 l 2,200,201
 1461 668 1461 668 1418 668.5 c 128,-1,202
 1375 669 1375 669 1374 676 c 256,203,204
 1373 683 1373 683 1365.5 684.5 c 128,-1,205
 1358 686 1358 686 1329 687 c 0,206,207
 1285 688 1285 688 1278 685 c 128,-1,208
 1271 682 1271 682 1237 681 c 0,209,210
 1215 680 1215 680 1209.5 681.5 c 128,-1,211
 1204 683 1204 683 1204 688 c 256,212,213
 1204 693 1204 693 1199.5 695 c 128,-1,214
 1195 697 1195 697 1182 698 c 2,215,-1
 1160 699 l 1,216,-1
 1170 708 l 2,217,218
 1180 717 1180 717 1198 770 c 128,-1,219
 1216 823 1216 823 1210 825 c 256,220,221
 1204 827 1204 827 1204 833.5 c 128,-1,222
 1204 840 1204 840 1197 840 c 128,-1,223
 1190 840 1190 840 1190 833 c 128,-1,224
 1190 826 1190 826 1154.5 826 c 128,-1,225
 1119 826 1119 826 1105 817 c 0,226,227
 1096 811 1096 811 1083.5 809.5 c 128,-1,228
 1071 808 1071 808 1034 808 c 2,229,-1
 978 808 l 1,230,-1
 978 819 l 2,231,232
 978 827 978 827 974.5 829 c 128,-1,233
 971 831 971 831 957 831 c 256,234,235
 943 831 943 831 939.5 829 c 128,-1,236
 936 827 936 827 936 821 c 256,237,238
 936 815 936 815 935 814 c 128,-1,239
 934 813 934 813 931 816 c 128,-1,240
 928 819 928 819 921.5 820.5 c 128,-1,241
 915 822 915 822 909.5 821 c 128,-1,242
 904 820 904 820 904 817 c 0,243,244
 904 812 904 812 891 812 c 0,245,246
 881 812 881 812 878.5 815.5 c 128,-1,247
 876 819 876 819 874 834 c 0,248,249
 869 872 869 872 863 872 c 0,250,0
 859 872 859 872 856 862 c 128,-1,1
2014.5 490 m 128,-1,252
 2027 503 2027 503 2040 503 c 0,253,254
 2048 503 2048 503 2050.5 500.5 c 128,-1,255
 2053 498 2053 498 2053 487 c 2,256,-1
 2053 471 l 1,257,-1
 2030 471 l 2,258,259
 2008 471 2008 471 2005 474 c 128,-1,251
 2002 477 2002 477 2014.5 490 c 128,-1,252
530 478 m 1,260,-1
 530 494 l 1,261,-1
 569 494 l 2,262,263
 608 494 608 494 610.5 490.5 c 128,-1,264
 613 487 613 487 610 474 c 0,265,266
 608 465 608 465 603 463.5 c 128,-1,267
 598 462 598 462 569 462 c 2,268,-1
 530 462 l 1,269,-1
 530 478 l 1,260,-1
185 478 m 128,-1,271
 185 485 185 485 228.5 485 c 128,-1,272
 272 485 272 485 272 478 c 128,-1,273
 272 471 272 471 228.5 471 c 128,-1,270
 185 471 185 471 185 478 c 128,-1,271
933.5 436 m 128,-1,275
 936 443 936 443 984 443 c 0,276,277
 1023 443 1023 443 1032 439.5 c 128,-1,278
 1041 436 1041 436 1045 419 c 0,279,280
 1051 393 1051 393 1028 370 c 2,281,-1
 1014 356 l 1,282,-1
 959 356 l 2,283,284
 918 356 918 356 909.5 357.5 c 128,-1,285
 901 359 901 359 892 368 c 0,286,287
 881 381 881 381 881 400 c 0,288,289
 881 413 881 413 883 416 c 128,-1,290
 885 419 885 419 893 419 c 0,291,292
 904 418 904 418 904 413 c 0,293,294
 904 407 904 407 916.5 383.5 c 128,-1,295
 929 360 929 360 931 360 c 0,296,297
 935 360 935 360 933 394.5 c 128,-1,274
 931 429 931 429 933.5 436 c 128,-1,275
888 434 m 0,298,299
 904 441 904 441 904 434 c 0,300,301
 904 430 904 430 891 430 c 0,302,303
 883 430 883 430 882.5 431 c 128,-1,304
 882 432 882 432 888 434 c 0,298,299
EndSplineSet
Validated: 41
EndChar

StartChar: uniE028
Encoding: 57384 57384 35
Width: 3200
GlyphClass: 2
Flags: W
LayerCount: 2
Fore
SplineSet
1318 763 m 1,0,-1
 1317 736 l 1,1,-1
 1232 737 l 2,2,3
 1146 737 1146 737 1051 741 c 2,4,-1
 956 745 l 1,5,-1
 953 715 l 2,6,7
 951 686 951 686 954 665 c 2,8,-1
 957 644 l 1,9,-1
 1024 644 l 2,10,11
 1091 644 1091 644 1159 648 c 2,12,-1
 1227 652 l 1,13,-1
 1227 633 l 2,14,15
 1227 612 1227 612 1220 614 c 0,16,17
 1218 615 1218 615 1215 619 c 0,18,19
 1213 623 1213 623 1199 616.5 c 128,-1,20
 1185 610 1185 610 1185 605 c 0,21,22
 1185 601 1185 601 1138 599 c 0,23,24
 1106 598 1106 598 1093.5 595.5 c 128,-1,25
 1081 593 1081 593 1063 584 c 128,-1,26
 1045 575 1045 575 1035.5 565.5 c 128,-1,27
 1026 556 1026 556 1012 534 c 0,28,29
 1008 526 1008 526 978 517.5 c 128,-1,30
 948 509 948 509 871 485 c 0,31,32
 817 469 817 469 798 465.5 c 128,-1,33
 779 462 779 462 745 462 c 0,34,35
 715 462 715 462 706 463 c 128,-1,36
 697 464 697 464 697 469 c 0,37,38
 697 476 697 476 680.5 476 c 128,-1,39
 664 476 664 476 664 469 c 0,40,41
 664 464 664 464 648.5 463 c 128,-1,42
 633 462 633 462 577 462 c 2,43,-1
 489 462 l 1,44,-1
 489 483 l 1,45,-1
 489 503 l 1,46,-1
 594 503 l 1,47,-1
 700 503 l 1,48,-1
 712 519 l 2,49,50
 734 548 734 548 717 575 c 2,51,-1
 709 586 l 1,52,-1
 551 586 l 1,53,54
 551 586 551 586 515 586 c 2,55,56
 419 587 419 587 403 583 c 128,-1,57
 387 579 387 579 387 557 c 2,58,59
 387 557 387 557 387 549 c 2,60,61
 387 526 387 526 394 526 c 128,-1,62
 401 526 401 526 401 517 c 128,-1,63
 401 508 401 508 408 505 c 128,-1,64
 415 502 415 502 415 482 c 2,65,-1
 415 462 l 1,66,-1
 394 462 l 1,67,-1
 374 462 l 1,68,-1
 374 482 l 2,69,70
 374 504 374 504 360 510.5 c 128,-1,71
 346 517 346 517 298 517 c 256,72,73
 250 517 250 517 247.5 524 c 128,-1,74
 245 531 245 531 231 531 c 128,-1,75
 217 531 217 531 213 524 c 0,76,77
 210 518 210 518 209 518 c 128,-1,78
 208 518 208 518 206 524 c 256,79,80
 204 530 204 530 193 531 c 128,-1,81
 182 532 182 532 177 526 c 0,82,83
 172 521 172 521 169 526 c 128,-1,84
 166 531 166 531 144 531 c 0,85,86
 107 531 107 531 95 500.5 c 128,-1,87
 83 470 83 470 83 378 c 0,88,89
 83 310 83 310 88 281.5 c 128,-1,90
 93 253 93 253 106 240 c 0,91,92
 115 230 115 230 123.5 228.5 c 128,-1,93
 132 227 132 227 163 227 c 0,94,95
 208 227 208 227 208 232.5 c 128,-1,96
 208 238 208 238 213 232 c 0,97,98
 220 226 220 226 232 227 c 128,-1,99
 244 228 244 228 250 236 c 0,100,101
 256 245 256 245 266 242 c 0,102,103
 274 240 274 240 275.5 232.5 c 128,-1,104
 277 225 277 225 277 190 c 256,105,106
 277 155 277 155 275.5 147 c 128,-1,107
 274 139 274 139 268 138 c 0,108,109
 258 135 258 135 258 119 c 2,110,-1
 258 102 l 1,111,-1
 291 102 l 1,112,-1
 323 102 l 1,113,-1
 323 121 l 2,114,115
 323 132 323 132 321 135.5 c 128,-1,116
 319 139 319 139 314 139 c 0,117,118
 307 139 307 139 305.5 146.5 c 128,-1,119
 304 154 304 154 304 189 c 2,120,-1
 304 239 l 1,121,-1
 327 242 l 2,122,123
 350 245 350 245 365 256 c 0,124,125
 384 269 384 269 496 308 c 128,-1,126
 608 347 608 347 620 345 c 0,127,128
 634 343 634 343 641.5 349.5 c 128,-1,129
 649 356 649 356 675 359 c 0,130,131
 693 361 693 361 697 363 c 128,-1,132
 701 365 701 365 701 374 c 0,133,134
 701 389 701 389 711.5 393 c 128,-1,135
 722 397 722 397 764 397 c 2,136,-1
 815 397 l 1,137,-1
 818 375 l 1,138,-1
 821 354 l 1,139,-1
 776 307 l 2,140,141
 735 266 735 266 720 242 c 128,-1,142
 705 218 705 218 708 201 c 0,143,144
 710 191 710 191 716 185 c 128,-1,145
 722 179 722 179 744 167 c 0,146,147
 772 150 772 150 796.5 143.5 c 128,-1,148
 821 137 821 137 826 144 c 0,149,150
 830 150 830 150 830 158 c 0,151,152
 830 169 830 169 839 189.5 c 128,-1,153
 848 210 848 210 856 218 c 0,154,155
 867 228 867 228 871.5 244.5 c 128,-1,156
 876 261 876 261 890.5 269.5 c 128,-1,157
 905 278 905 278 916 305 c 2,158,-1
 928 332 l 1,159,-1
 940 323 l 2,160,161
 948 317 948 317 970 315.5 c 128,-1,162
 992 314 992 314 1093 314 c 0,163,164
 1234 314 1234 314 1242 308 c 128,-1,165
 1250 302 1250 302 1367 304 c 0,166,167
 1445 305 1445 305 1466 307 c 128,-1,168
 1487 309 1487 309 1495 315 c 0,169,170
 1508 323 1508 323 1514 323.5 c 128,-1,171
 1520 324 1520 324 1571 379 c 2,172,-1
 1621 433 l 1,173,-1
 1929 434 l 1,174,-1
 2237 434 l 1,175,-1
 2238 451 l 1,176,-1
 2240 462 l 1,177,-1
 2240 461 l 2,178,179
 2242 453 2242 453 2251 453 c 0,180,181
 2259 453 2259 453 2262.5 443 c 128,-1,182
 2266 433 2266 433 2260 429 c 256,183,184
 2254 425 2254 425 2253 399 c 2,185,-1
 2253 372 l 1,186,-1
 2306 368 l 2,187,188
 2344 365 2344 365 2352 365.5 c 128,-1,189
 2360 366 2360 366 2365.5 373 c 128,-1,190
 2371 380 2371 380 2384.5 381.5 c 128,-1,191
 2398 383 2398 383 2459 383 c 0,192,193
 2545 384 2545 384 2548 379 c 128,-1,194
 2551 374 2551 374 2573.5 374 c 128,-1,195
 2596 374 2596 374 2599 379 c 128,-1,196
 2602 384 2602 384 2612 381 c 0,197,198
 2634 374 2634 374 2650 379 c 128,-1,199
 2666 384 2666 384 2666 398 c 0,200,201
 2666 406 2666 406 2656 413 c 128,-1,202
 2646 420 2646 420 2640.5 415.5 c 128,-1,203
 2635 411 2635 411 2631.5 416 c 128,-1,204
 2628 421 2628 421 2621 415 c 0,205,206
 2615 410 2615 410 2537 407.5 c 128,-1,207
 2459 405 2459 405 2411 409 c 0,208,209
 2383 411 2383 411 2374.5 413 c 128,-1,210
 2366 415 2366 415 2364.5 420.5 c 128,-1,211
 2363 426 2363 426 2358 428 c 128,-1,212
 2353 430 2353 430 2337 430 c 2,213,-1
 2312 430 l 1,214,-1
 2314 456 l 2,215,216
 2316 483 2316 483 2311 495 c 0,217,218
 2308 504 2308 504 2303 506 c 128,-1,219
 2298 508 2298 508 2277 508 c 0,220,221
 2248 508 2248 508 2242 502 c 0,222,223
 2237 497 2237 497 2237 506 c 0,224,225
 2238 509 2238 509 2238 515 c 2,226,-1
 2239 533 l 1,227,-1
 2482 535 l 1,228,-1
 2725 537 l 1,229,-1
 2730 527 l 2,230,231
 2734 520 2734 520 2743 517.5 c 128,-1,232
 2752 515 2752 515 2754 521 c 0,233,234
 2756 525 2756 525 2792 527.5 c 128,-1,235
 2828 530 2828 530 2830 526 c 0,236,237
 2833 522 2833 522 2883 522 c 0,238,239
 2925 522 2925 522 2934 527 c 128,-1,240
 2943 532 2943 532 2943 556.5 c 128,-1,241
 2943 581 2943 581 2934 586 c 128,-1,242
 2925 591 2925 591 2884 591 c 0,243,244
 2834 591 2834 591 2828.5 585.5 c 128,-1,245
 2823 580 2823 580 2810.5 585 c 128,-1,246
 2798 590 2798 590 2766.5 592.5 c 128,-1,247
 2735 595 2735 595 2732 589 c 0,248,249
 2731 584 2731 584 2678 583 c 128,-1,250
 2625 582 2625 582 2432 582 c 0,251,252
 2123 582 2123 582 1876.5 586.5 c 128,-1,253
 1630 591 1630 591 1611 596 c 0,254,255
 1591 601 1591 601 1591 605 c 0,256,257
 1591 610 1591 610 1577.5 616.5 c 128,-1,258
 1564 623 1564 623 1561 619 c 0,259,260
 1559 614 1559 614 1524 614 c 2,261,-1
 1490 614 l 1,262,-1
 1490 635 l 2,263,264
 1490 656 1490 656 1493 656 c 128,-1,265
 1496 656 1496 656 1545 644 c 0,266,267
 1578 636 1578 636 1599 634.5 c 128,-1,268
 1620 633 1620 633 1677 634 c 2,269,-1
 1760 635 l 1,270,-1
 1760 692 l 1,271,-1
 1760 750 l 1,272,-1
 1681 753 l 2,273,274
 1628 755 1628 755 1608 754 c 128,-1,275
 1588 753 1588 753 1557 746 c 0,276,277
 1511 736 1511 736 1453 736 c 2,278,-1
 1395 736 l 1,279,-1
 1395 762 l 1,280,-1
 1394 787 l 1,281,-1
 1357 788 l 1,282,-1
 1320 790 l 1,283,-1
 1318 763 l 1,0,-1
1276 652 m 0,284,285
 1280 656 1280 656 1297 655.5 c 128,-1,286
 1314 655 1314 655 1318 651 c 0,287,288
 1326 642 1326 642 1420 653 c 0,289,290
 1436 656 1436 656 1440 655 c 128,-1,291
 1444 654 1444 654 1444 647 c 256,292,293
 1444 640 1444 640 1432.5 638.5 c 128,-1,294
 1421 637 1421 637 1358 637 c 0,295,296
 1273 637 1273 637 1273 643 c 128,-1,297
 1273 649 1273 649 1276 652 c 0,284,285
948 387 m 0,298,299
 957 399 957 399 971 398 c 0,300,301
 979 396 979 396 975 389 c 0,302,303
 972 380 972 380 973.5 363.5 c 128,-1,304
 975 347 975 347 981 338 c 0,305,306
 985 331 985 331 984 329.5 c 128,-1,307
 983 328 983 328 973 328 c 0,308,309
 958 328 958 328 949 336 c 0,310,311
 942 343 942 343 941.5 359.5 c 128,-1,312
 941 376 941 376 948 387 c 0,298,299
1008 394 m 0,313,314
 1017 396 1017 396 1062 396.5 c 128,-1,315
 1107 397 1107 397 1109.5 390.5 c 128,-1,316
 1112 384 1112 384 1104 356 c 2,317,-1
 1097 328 l 1,318,-1
 1045 328 l 2,319,320
 1007 328 1007 328 999.5 329.5 c 128,-1,321
 992 331 992 331 988 340 c 0,322,323
 979 359 979 359 984.5 374.5 c 128,-1,324
 990 390 990 390 1008 394 c 0,313,314
374 319 m 2,325,-1
 374 356 l 1,326,-1
 394 356 l 2,327,328
 409 356 409 356 412 354 c 128,-1,329
 415 352 415 352 416 341 c 0,330,331
 417 326 417 326 420.5 327 c 128,-1,332
 424 328 424 328 457 328 c 2,333,-1
 489 328 l 1,334,-1
 489 342 l 1,335,-1
 489 356 l 1,336,-1
 534 356 l 2,337,338
 578 356 578 356 576 354 c 128,-1,339
 574 352 574 352 477.5 317 c 128,-1,340
 381 282 381 282 377 282 c 0,341,342
 374 282 374 282 374 319 c 2,325,-1
EndSplineSet
Validated: 37
EndChar

StartChar: uniE02A
Encoding: 57386 57386 36
Width: 2251
VWidth: 720
GlyphClass: 2
Flags: W
TeX: 800 32767
LayerCount: 2
Fore
SplineSet
967.991210938 780.75 m 0,0,1
 970.241210938 793.5 970.241210938 793.5 973.241210938 797.25 c 128,-1,2
 976.241210938 801 976.241210938 801 981.491210938 798.75 c 0,3,4
 991.241210938 795.75 991.241210938 795.75 1006.99121094 792 c 0,5,6
 1021.99121094 789 1021.99121094 789 1021.99121094 780.75 c 128,-1,7
 1021.99121094 772.5 1021.99121094 772.5 1008.49121094 729 c 0,8,9
 994.241210938 681.75 994.241210938 681.75 994.241210938 660.75 c 0,10,11
 994.241210938 646.5 994.241210938 646.5 997.616210938 642 c 128,-1,12
 1000.99121094 637.5 1000.99121094 637.5 1017.49121094 632.25 c 0,13,14
 1040.74121094 624 1040.74121094 624 1055.74121094 631.5 c 0,15,16
 1067.74121094 636.75 1067.74121094 636.75 1102.61621094 637.875 c 128,-1,17
 1137.49121094 639 1137.49121094 639 1142.74121094 633.75 c 0,18,19
 1145.74121094 630.75 1145.74121094 630.75 1152.49121094 629.25 c 128,-1,20
 1159.24121094 627.75 1159.24121094 627.75 1164.49121094 628.5 c 128,-1,21
 1169.74121094 629.25 1169.74121094 629.25 1169.74121094 632.25 c 0,22,23
 1169.74121094 639 1169.74121094 639 1176.11621094 634.875 c 128,-1,24
 1182.49121094 630.75 1182.49121094 630.75 1251.86621094 630.75 c 128,-1,25
 1321.24121094 630.75 1321.24121094 630.75 1327.61621094 634.875 c 128,-1,26
 1333.99121094 639 1333.99121094 639 1333.99121094 632.25 c 0,27,28
 1333.99121094 630 1333.99121094 630 1344.11621094 629.25 c 128,-1,29
 1354.24121094 628.5 1354.24121094 628.5 1368.11621094 630.375 c 128,-1,30
 1381.99121094 632.25 1381.99121094 632.25 1390.99121094 635.25 c 0,31,32
 1398.49121094 637.5 1398.49121094 637.5 1398.49121094 633 c 128,-1,33
 1398.49121094 628.5 1398.49121094 628.5 1410.11621094 628.5 c 128,-1,34
 1421.74121094 628.5 1421.74121094 628.5 1421.74121094 631.875 c 128,-1,35
 1421.74121094 635.25 1421.74121094 635.25 1442.36621094 635.25 c 128,-1,36
 1462.99121094 635.25 1462.99121094 635.25 1462.99121094 631.875 c 128,-1,37
 1462.99121094 628.5 1462.99121094 628.5 1474.61621094 628.5 c 128,-1,38
 1486.24121094 628.5 1486.24121094 628.5 1486.24121094 633 c 0,39,40
 1486.24121094 636.75 1486.24121094 636.75 1563.11621094 637.5 c 128,-1,41
 1639.99121094 638.25 1639.99121094 638.25 1738.24121094 636.75 c 128,-1,42
 1836.49121094 635.25 1836.49121094 635.25 1891.24121094 632.25 c 0,43,44
 1972.24121094 627 1972.24121094 627 2050.99121094 615 c 128,-1,45
 2129.74121094 603 2129.74121094 603 2169.49121094 590.25 c 0,46,47
 2199.49121094 579.75 2199.49121094 579.75 2244.49121094 558 c 128,-1,48
 2289.49121094 536.25 2289.49121094 536.25 2289.49121094 531.75 c 0,49,50
 2289.49121094 526.5 2289.49121094 526.5 2252.36621094 507.375 c 128,-1,51
 2215.24121094 488.25 2215.24121094 488.25 2182.24121094 476.25 c 0,52,53
 2145.49121094 463.5 2145.49121094 463.5 2078.36621094 451.125 c 128,-1,54
 2011.24121094 438.75 2011.24121094 438.75 1940.74121094 432.75 c 0,55,56
 1873.24121094 427.5 1873.24121094 427.5 1683.11621094 427.125 c 128,-1,57
 1492.99121094 426.75 1492.99121094 426.75 1477.99121094 432.75 c 0,58,59
 1474.24121094 434.25 1474.24121094 434.25 1470.49121094 435 c 128,-1,60
 1466.74121094 435.75 1466.74121094 435.75 1464.86621094 435.375 c 128,-1,61
 1462.99121094 435 1462.99121094 435 1462.99121094 433.5 c 0,62,63
 1462.99121094 429 1462.99121094 429 1442.36621094 429 c 128,-1,64
 1421.74121094 429 1421.74121094 429 1421.74121094 434.25 c 128,-1,65
 1421.74121094 439.5 1421.74121094 439.5 1415.74121094 435.75 c 0,66,67
 1411.24121094 432.75 1411.24121094 432.75 1396.99121094 431.25 c 128,-1,68
 1382.74121094 429.75 1382.74121094 429.75 1369.99121094 430.125 c 128,-1,69
 1357.24121094 430.5 1357.24121094 430.5 1357.24121094 433.5 c 0,70,71
 1357.24121094 438 1357.24121094 438 1344.49121094 433.5 c 0,72,73
 1332.49121094 429.75 1332.49121094 429.75 1278.49121094 430.5 c 128,-1,74
 1224.49121094 431.25 1224.49121094 431.25 1217.74121094 435 c 0,75,76
 1210.99121094 439.5 1210.99121094 439.5 1210.99121094 434.625 c 128,-1,77
 1210.99121094 429.75 1210.99121094 429.75 1181.74121094 429.75 c 128,-1,78
 1152.49121094 429.75 1152.49121094 429.75 1152.11621094 435.75 c 128,-1,79
 1151.74121094 441.75 1151.74121094 441.75 1146.49121094 433.5 c 0,80,81
 1143.49121094 428.25 1143.49121094 428.25 1130.74121094 427.5 c 128,-1,82
 1117.99121094 426.75 1117.99121094 426.75 1081.99121094 429 c 0,83,84
 994.241210938 434.25 994.241210938 434.25 994.241210938 414.75 c 0,85,86
 994.241210938 408 994.241210938 408 973.241210938 342.375 c 128,-1,87
 952.241210938 276.75 952.241210938 276.75 947.741210938 269.25 c 0,88,89
 944.741210938 264 944.741210938 264 938.741210938 264.375 c 128,-1,90
 932.741210938 264.75 932.741210938 264.75 915.491210938 271.5 c 2,91,-1
 889.241210938 282 l 1,92,-1
 897.491210938 298.5 l 2,93,94
 911.741210938 326.25 911.741210938 326.25 902.741210938 357 c 128,-1,95
 893.741210938 387.75 893.741210938 387.75 865.991210938 404.25 c 0,96,97
 849.491210938 414.75 849.491210938 414.75 812.366210938 415.875 c 128,-1,98
 775.241210938 417 775.241210938 417 682.991210938 409.5 c 0,99,100
 509.741210938 394.5 509.741210938 394.5 298.991210938 412.5 c 0,101,102
 219.491210938 419.25 219.491210938 419.25 188.741210938 419.25 c 128,-1,103
 157.991210938 419.25 157.991210938 419.25 140.741210938 414.375 c 128,-1,104
 123.491210938 409.5 123.491210938 409.5 103.991210938 392.25 c 0,105,106
 74.7412109375 368.25 74.7412109375 368.25 56.7412109375 364.5 c 0,107,108
 37.2412109375 360.75 37.2412109375 360.75 18.1162109375 380.625 c 128,-1,109
 -1.0087890625 400.5 -1.0087890625 400.5 -11.1337890625 435.75 c 128,-1,110
 -21.2587890625 471 -21.2587890625 471 -29.5087890625 497.25 c 256,111,112
 -37.7587890625 523.5 -37.7587890625 523.5 -36.2587890625 534.75 c 128,-1,113
 -34.7587890625 546 -34.7587890625 546 -16.7587890625 587.25 c 0,114,115
 -5.5087890625 612.75 -5.5087890625 612.75 2.7412109375 627.375 c 128,-1,116
 10.9912109375 642 10.9912109375 642 20.3662109375 651.75 c 128,-1,117
 29.7412109375 661.5 29.7412109375 661.5 41.7412109375 663 c 128,-1,118
 53.7412109375 664.5 53.7412109375 664.5 67.6162109375 662.25 c 128,-1,119
 81.4912109375 660 81.4912109375 660 104.741210938 652.5 c 0,120,121
 133.991210938 643.5 133.991210938 643.5 151.241210938 641.25 c 128,-1,122
 168.491210938 639 168.491210938 639 203.741210938 641.25 c 0,123,124
 256.991210938 644.25 256.991210938 644.25 260.741210938 646.5 c 0,125,126
 265.241210938 649.5 265.241210938 649.5 359.741210938 654 c 128,-1,127
 454.241210938 658.5 454.241210938 658.5 513.491210938 658.5 c 0,128,129
 592.241210938 658.5 592.241210938 658.5 674.741210938 654 c 0,130,131
 776.741210938 648 776.741210938 648 813.491210938 649.125 c 128,-1,132
 850.241210938 650.25 850.241210938 650.25 875.741210938 661.5 c 0,133,134
 909.491210938 676.5 909.491210938 676.5 934.991210938 709.125 c 128,-1,135
 960.491210938 741.75 960.491210938 741.75 967.991210938 780.75 c 0,0,1
EndSplineSet
Validated: 33
EndChar

StartChar: uniE02B
Encoding: 57387 57387 37
Width: 512
GlyphClass: 2
Flags: W
LayerCount: 2
Fore
SplineSet
161.25 6.5 m 4,0,1
 58.75 31.5 58.75 31.5 117.5 112.75 c 4,2,3
 135 135.25 135 135.25 137.5 171.5 c 132,-1,4
 140 207.75 140 207.75 140 384 c 4,5,6
 140 559 140 559 136.875 594.625 c 132,-1,7
 133.75 630.25 133.75 630.25 117.5 647.75 c 4,8,9
 86.25 681.5 86.25 681.5 100 724 c 132,-1,10
 113.75 766.5 113.75 766.5 157.5 766.5 c 4,11,12
 186.25 766.5 186.25 766.5 186.25 831.5 c 4,13,14
 186.25 865.25 186.25 865.25 171.25 870.25 c 4,15,16
 152.5 877.75 152.5 877.75 156.25 893.375 c 132,-1,17
 160 909 160 909 181.25 917.75 c 4,18,19
 207.5 927.75 207.5 927.75 262.5 927.75 c 4,20,21
 302.5 927.75 302.5 927.75 310 931.5 c 132,-1,22
 317.5 935.25 317.5 935.25 317.5 957.75 c 4,23,24
 317.5 987.75 317.5 987.75 332.5 987.75 c 4,25,26
 338.75 987.75 338.75 987.75 343.125 982.75 c 132,-1,27
 347.5 977.75 347.5 977.75 347.5 970.25 c 4,28,29
 347.5 952.75 347.5 952.75 377.5 889.625 c 132,-1,30
 407.5 826.5 407.5 826.5 446.25 762.75 c 6,31,-1
 487.5 695.25 l 5,32,-1
 487.5 484 l 6,33,34
 487.5 335.25 487.5 335.25 485 302.75 c 132,-1,35
 482.5 270.25 482.5 270.25 468.75 262.75 c 4,36,37
 448.75 252.75 448.75 252.75 436.25 252.75 c 4,38,39
 426.25 254 426.25 254 443.75 261.5 c 4,40,41
 446.25 262.75 446.25 262.75 450 264 c 6,42,-1
 477.5 274 l 5,43,-1
 477.5 681.5 l 5,44,-1
 417.5 741.5 l 6,45,46
 357.5 800.25 357.5 800.25 357.5 783.375 c 132,-1,47
 357.5 766.5 357.5 766.5 377.5 756.5 c 4,48,49
 396.25 746.5 396.25 746.5 397.5 711.5 c 132,-1,50
 398.75 676.5 398.75 676.5 382.5 651.5 c 4,51,52
 355 609 355 609 355 289 c 4,53,54
 356.25 194 356.25 194 359.375 166.5 c 132,-1,55
 362.5 139 362.5 139 376.25 120.25 c 4,56,57
 395 95.25 395 95.25 396.875 64.625 c 132,-1,58
 398.75 34 398.75 34 382.5 20.25 c 4,59,60
 370 10.25 370 10.25 280 4.625 c 132,-1,61
 190 -1 190 -1 161.25 6.5 c 4,0,1
EndSplineSet
Validated: 33
EndChar

